G04 #@! TF.GenerationSoftware,KiCad,Pcbnew,(5.1.6)-1*
G04 #@! TF.CreationDate,2021-03-10T15:07:37+06:00*
G04 #@! TF.ProjectId,nodemcu01,6e6f6465-6d63-4753-9031-2e6b69636164,rev?*
G04 #@! TF.SameCoordinates,Original*
G04 #@! TF.FileFunction,Copper,L1,Top*
G04 #@! TF.FilePolarity,Positive*
%FSLAX46Y46*%
G04 Gerber Fmt 4.6, Leading zero omitted, Abs format (unit mm)*
G04 Created by KiCad (PCBNEW (5.1.6)-1) date 2021-03-10 15:07:37*
%MOMM*%
%LPD*%
G01*
G04 APERTURE LIST*
G04 #@! TA.AperFunction,ComponentPad*
%ADD10O,1.950000X1.700000*%
G04 #@! TD*
G04 #@! TA.AperFunction,ComponentPad*
%ADD11C,2.350000*%
G04 #@! TD*
G04 #@! TA.AperFunction,ComponentPad*
%ADD12C,2.300000*%
G04 #@! TD*
G04 #@! TA.AperFunction,ComponentPad*
%ADD13R,2.300000X2.000000*%
G04 #@! TD*
G04 #@! TA.AperFunction,ComponentPad*
%ADD14O,1.905000X2.000000*%
G04 #@! TD*
G04 #@! TA.AperFunction,ComponentPad*
%ADD15R,1.905000X2.000000*%
G04 #@! TD*
G04 #@! TA.AperFunction,ComponentPad*
%ADD16C,2.413000*%
G04 #@! TD*
G04 #@! TA.AperFunction,ComponentPad*
%ADD17R,2.413000X2.413000*%
G04 #@! TD*
G04 #@! TA.AperFunction,ComponentPad*
%ADD18O,3.352800X1.676400*%
G04 #@! TD*
G04 #@! TA.AperFunction,ViaPad*
%ADD19C,1.500000*%
G04 #@! TD*
G04 #@! TA.AperFunction,Conductor*
%ADD20C,0.400000*%
G04 #@! TD*
G04 #@! TA.AperFunction,Conductor*
%ADD21C,0.500000*%
G04 #@! TD*
G04 #@! TA.AperFunction,Conductor*
%ADD22C,0.800000*%
G04 #@! TD*
G04 #@! TA.AperFunction,Conductor*
%ADD23C,1.500000*%
G04 #@! TD*
G04 APERTURE END LIST*
D10*
G04 #@! TO.P,J5,10*
G04 #@! TO.N,GND*
X139800000Y-145500000D03*
G04 #@! TO.P,J5,9*
G04 #@! TO.N,SW9*
X139800000Y-143000000D03*
G04 #@! TO.P,J5,8*
G04 #@! TO.N,SW8*
X139800000Y-140500000D03*
G04 #@! TO.P,J5,7*
G04 #@! TO.N,SW7*
X139800000Y-138000000D03*
G04 #@! TO.P,J5,6*
G04 #@! TO.N,SW6*
X139800000Y-135500000D03*
G04 #@! TO.P,J5,5*
G04 #@! TO.N,SW5*
X139800000Y-133000000D03*
G04 #@! TO.P,J5,4*
G04 #@! TO.N,SW4*
X139800000Y-130500000D03*
G04 #@! TO.P,J5,3*
G04 #@! TO.N,SW3*
X139800000Y-128000000D03*
G04 #@! TO.P,J5,2*
G04 #@! TO.N,SW2*
X139800000Y-125500000D03*
G04 #@! TO.P,J5,1*
G04 #@! TO.N,SW1*
G04 #@! TA.AperFunction,ComponentPad*
G36*
G01*
X139075000Y-122150000D02*
X140525000Y-122150000D01*
G75*
G02*
X140775000Y-122400000I0J-250000D01*
G01*
X140775000Y-123600000D01*
G75*
G02*
X140525000Y-123850000I-250000J0D01*
G01*
X139075000Y-123850000D01*
G75*
G02*
X138825000Y-123600000I0J250000D01*
G01*
X138825000Y-122400000D01*
G75*
G02*
X139075000Y-122150000I250000J0D01*
G01*
G37*
G04 #@! TD.AperFunction*
G04 #@! TD*
G04 #@! TO.P,U3,4*
G04 #@! TO.N,ZC*
G04 #@! TA.AperFunction,SMDPad,CuDef*
G36*
G01*
X118950000Y-91697500D02*
X118950000Y-91972500D01*
G75*
G02*
X118812500Y-92110000I-137500J0D01*
G01*
X117487500Y-92110000D01*
G75*
G02*
X117350000Y-91972500I0J137500D01*
G01*
X117350000Y-91697500D01*
G75*
G02*
X117487500Y-91560000I137500J0D01*
G01*
X118812500Y-91560000D01*
G75*
G02*
X118950000Y-91697500I0J-137500D01*
G01*
G37*
G04 #@! TD.AperFunction*
G04 #@! TO.P,U3,3*
G04 #@! TO.N,GND*
G04 #@! TA.AperFunction,SMDPad,CuDef*
G36*
G01*
X118950000Y-90427500D02*
X118950000Y-90702500D01*
G75*
G02*
X118812500Y-90840000I-137500J0D01*
G01*
X117487500Y-90840000D01*
G75*
G02*
X117350000Y-90702500I0J137500D01*
G01*
X117350000Y-90427500D01*
G75*
G02*
X117487500Y-90290000I137500J0D01*
G01*
X118812500Y-90290000D01*
G75*
G02*
X118950000Y-90427500I0J-137500D01*
G01*
G37*
G04 #@! TD.AperFunction*
G04 #@! TO.P,U3,2*
G04 #@! TO.N,Net-(D3-Pad2)*
G04 #@! TA.AperFunction,SMDPad,CuDef*
G36*
G01*
X125450000Y-90427500D02*
X125450000Y-90702500D01*
G75*
G02*
X125312500Y-90840000I-137500J0D01*
G01*
X123987500Y-90840000D01*
G75*
G02*
X123850000Y-90702500I0J137500D01*
G01*
X123850000Y-90427500D01*
G75*
G02*
X123987500Y-90290000I137500J0D01*
G01*
X125312500Y-90290000D01*
G75*
G02*
X125450000Y-90427500I0J-137500D01*
G01*
G37*
G04 #@! TD.AperFunction*
G04 #@! TO.P,U3,1*
G04 #@! TO.N,Net-(D4-Pad1)*
G04 #@! TA.AperFunction,SMDPad,CuDef*
G36*
G01*
X125450000Y-91697500D02*
X125450000Y-91972500D01*
G75*
G02*
X125312500Y-92110000I-137500J0D01*
G01*
X123987500Y-92110000D01*
G75*
G02*
X123850000Y-91972500I0J137500D01*
G01*
X123850000Y-91697500D01*
G75*
G02*
X123987500Y-91560000I137500J0D01*
G01*
X125312500Y-91560000D01*
G75*
G02*
X125450000Y-91697500I0J-137500D01*
G01*
G37*
G04 #@! TD.AperFunction*
G04 #@! TD*
G04 #@! TO.P,U2,4*
G04 #@! TO.N,Net-(C5-Pad1)*
G04 #@! TA.AperFunction,SMDPad,CuDef*
G36*
G01*
X153650000Y-146702500D02*
X153650000Y-146427500D01*
G75*
G02*
X153787500Y-146290000I137500J0D01*
G01*
X155112500Y-146290000D01*
G75*
G02*
X155250000Y-146427500I0J-137500D01*
G01*
X155250000Y-146702500D01*
G75*
G02*
X155112500Y-146840000I-137500J0D01*
G01*
X153787500Y-146840000D01*
G75*
G02*
X153650000Y-146702500I0J137500D01*
G01*
G37*
G04 #@! TD.AperFunction*
G04 #@! TO.P,U2,3*
G04 #@! TO.N,Net-(Q5-Pad1)*
G04 #@! TA.AperFunction,SMDPad,CuDef*
G36*
G01*
X153650000Y-147972500D02*
X153650000Y-147697500D01*
G75*
G02*
X153787500Y-147560000I137500J0D01*
G01*
X155112500Y-147560000D01*
G75*
G02*
X155250000Y-147697500I0J-137500D01*
G01*
X155250000Y-147972500D01*
G75*
G02*
X155112500Y-148110000I-137500J0D01*
G01*
X153787500Y-148110000D01*
G75*
G02*
X153650000Y-147972500I0J137500D01*
G01*
G37*
G04 #@! TD.AperFunction*
G04 #@! TO.P,U2,2*
G04 #@! TO.N,GND*
G04 #@! TA.AperFunction,SMDPad,CuDef*
G36*
G01*
X147150000Y-147972500D02*
X147150000Y-147697500D01*
G75*
G02*
X147287500Y-147560000I137500J0D01*
G01*
X148612500Y-147560000D01*
G75*
G02*
X148750000Y-147697500I0J-137500D01*
G01*
X148750000Y-147972500D01*
G75*
G02*
X148612500Y-148110000I-137500J0D01*
G01*
X147287500Y-148110000D01*
G75*
G02*
X147150000Y-147972500I0J137500D01*
G01*
G37*
G04 #@! TD.AperFunction*
G04 #@! TO.P,U2,1*
G04 #@! TO.N,Net-(R3-Pad1)*
G04 #@! TA.AperFunction,SMDPad,CuDef*
G36*
G01*
X147150000Y-146702500D02*
X147150000Y-146427500D01*
G75*
G02*
X147287500Y-146290000I137500J0D01*
G01*
X148612500Y-146290000D01*
G75*
G02*
X148750000Y-146427500I0J-137500D01*
G01*
X148750000Y-146702500D01*
G75*
G02*
X148612500Y-146840000I-137500J0D01*
G01*
X147287500Y-146840000D01*
G75*
G02*
X147150000Y-146702500I0J137500D01*
G01*
G37*
G04 #@! TD.AperFunction*
G04 #@! TD*
G04 #@! TO.P,U1,4*
G04 #@! TO.N,Net-(C3-Pad1)*
G04 #@! TA.AperFunction,SMDPad,CuDef*
G36*
G01*
X153450000Y-132302500D02*
X153450000Y-132027500D01*
G75*
G02*
X153587500Y-131890000I137500J0D01*
G01*
X154912500Y-131890000D01*
G75*
G02*
X155050000Y-132027500I0J-137500D01*
G01*
X155050000Y-132302500D01*
G75*
G02*
X154912500Y-132440000I-137500J0D01*
G01*
X153587500Y-132440000D01*
G75*
G02*
X153450000Y-132302500I0J137500D01*
G01*
G37*
G04 #@! TD.AperFunction*
G04 #@! TO.P,U1,3*
G04 #@! TO.N,Net-(Q3-Pad1)*
G04 #@! TA.AperFunction,SMDPad,CuDef*
G36*
G01*
X153450000Y-133572500D02*
X153450000Y-133297500D01*
G75*
G02*
X153587500Y-133160000I137500J0D01*
G01*
X154912500Y-133160000D01*
G75*
G02*
X155050000Y-133297500I0J-137500D01*
G01*
X155050000Y-133572500D01*
G75*
G02*
X154912500Y-133710000I-137500J0D01*
G01*
X153587500Y-133710000D01*
G75*
G02*
X153450000Y-133572500I0J137500D01*
G01*
G37*
G04 #@! TD.AperFunction*
G04 #@! TO.P,U1,2*
G04 #@! TO.N,GND*
G04 #@! TA.AperFunction,SMDPad,CuDef*
G36*
G01*
X146950000Y-133572500D02*
X146950000Y-133297500D01*
G75*
G02*
X147087500Y-133160000I137500J0D01*
G01*
X148412500Y-133160000D01*
G75*
G02*
X148550000Y-133297500I0J-137500D01*
G01*
X148550000Y-133572500D01*
G75*
G02*
X148412500Y-133710000I-137500J0D01*
G01*
X147087500Y-133710000D01*
G75*
G02*
X146950000Y-133572500I0J137500D01*
G01*
G37*
G04 #@! TD.AperFunction*
G04 #@! TO.P,U1,1*
G04 #@! TO.N,Net-(R2-Pad1)*
G04 #@! TA.AperFunction,SMDPad,CuDef*
G36*
G01*
X146950000Y-132302500D02*
X146950000Y-132027500D01*
G75*
G02*
X147087500Y-131890000I137500J0D01*
G01*
X148412500Y-131890000D01*
G75*
G02*
X148550000Y-132027500I0J-137500D01*
G01*
X148550000Y-132302500D01*
G75*
G02*
X148412500Y-132440000I-137500J0D01*
G01*
X147087500Y-132440000D01*
G75*
G02*
X146950000Y-132302500I0J137500D01*
G01*
G37*
G04 #@! TD.AperFunction*
G04 #@! TD*
G04 #@! TO.P,U5,4*
G04 #@! TO.N,Net-(C1-Pad1)*
G04 #@! TA.AperFunction,SMDPad,CuDef*
G36*
G01*
X153300000Y-115667500D02*
X153300000Y-115392500D01*
G75*
G02*
X153437500Y-115255000I137500J0D01*
G01*
X154762500Y-115255000D01*
G75*
G02*
X154900000Y-115392500I0J-137500D01*
G01*
X154900000Y-115667500D01*
G75*
G02*
X154762500Y-115805000I-137500J0D01*
G01*
X153437500Y-115805000D01*
G75*
G02*
X153300000Y-115667500I0J137500D01*
G01*
G37*
G04 #@! TD.AperFunction*
G04 #@! TO.P,U5,3*
G04 #@! TO.N,Net-(Q1-Pad1)*
G04 #@! TA.AperFunction,SMDPad,CuDef*
G36*
G01*
X153300000Y-116937500D02*
X153300000Y-116662500D01*
G75*
G02*
X153437500Y-116525000I137500J0D01*
G01*
X154762500Y-116525000D01*
G75*
G02*
X154900000Y-116662500I0J-137500D01*
G01*
X154900000Y-116937500D01*
G75*
G02*
X154762500Y-117075000I-137500J0D01*
G01*
X153437500Y-117075000D01*
G75*
G02*
X153300000Y-116937500I0J137500D01*
G01*
G37*
G04 #@! TD.AperFunction*
G04 #@! TO.P,U5,2*
G04 #@! TO.N,GND*
G04 #@! TA.AperFunction,SMDPad,CuDef*
G36*
G01*
X146800000Y-116937500D02*
X146800000Y-116662500D01*
G75*
G02*
X146937500Y-116525000I137500J0D01*
G01*
X148262500Y-116525000D01*
G75*
G02*
X148400000Y-116662500I0J-137500D01*
G01*
X148400000Y-116937500D01*
G75*
G02*
X148262500Y-117075000I-137500J0D01*
G01*
X146937500Y-117075000D01*
G75*
G02*
X146800000Y-116937500I0J137500D01*
G01*
G37*
G04 #@! TD.AperFunction*
G04 #@! TO.P,U5,1*
G04 #@! TO.N,Net-(R1-Pad1)*
G04 #@! TA.AperFunction,SMDPad,CuDef*
G36*
G01*
X146800000Y-115667500D02*
X146800000Y-115392500D01*
G75*
G02*
X146937500Y-115255000I137500J0D01*
G01*
X148262500Y-115255000D01*
G75*
G02*
X148400000Y-115392500I0J-137500D01*
G01*
X148400000Y-115667500D01*
G75*
G02*
X148262500Y-115805000I-137500J0D01*
G01*
X146937500Y-115805000D01*
G75*
G02*
X146800000Y-115667500I0J137500D01*
G01*
G37*
G04 #@! TD.AperFunction*
G04 #@! TD*
G04 #@! TO.P,R3,2*
G04 #@! TO.N,Net-(M1-Pad27)*
G04 #@! TA.AperFunction,SMDPad,CuDef*
G36*
G01*
X148256250Y-143012500D02*
X147343750Y-143012500D01*
G75*
G02*
X147100000Y-142768750I0J243750D01*
G01*
X147100000Y-142281250D01*
G75*
G02*
X147343750Y-142037500I243750J0D01*
G01*
X148256250Y-142037500D01*
G75*
G02*
X148500000Y-142281250I0J-243750D01*
G01*
X148500000Y-142768750D01*
G75*
G02*
X148256250Y-143012500I-243750J0D01*
G01*
G37*
G04 #@! TD.AperFunction*
G04 #@! TO.P,R3,1*
G04 #@! TO.N,Net-(R3-Pad1)*
G04 #@! TA.AperFunction,SMDPad,CuDef*
G36*
G01*
X148256250Y-144887500D02*
X147343750Y-144887500D01*
G75*
G02*
X147100000Y-144643750I0J243750D01*
G01*
X147100000Y-144156250D01*
G75*
G02*
X147343750Y-143912500I243750J0D01*
G01*
X148256250Y-143912500D01*
G75*
G02*
X148500000Y-144156250I0J-243750D01*
G01*
X148500000Y-144643750D01*
G75*
G02*
X148256250Y-144887500I-243750J0D01*
G01*
G37*
G04 #@! TD.AperFunction*
G04 #@! TD*
G04 #@! TO.P,R2,2*
G04 #@! TO.N,Net-(M1-Pad28)*
G04 #@! TA.AperFunction,SMDPad,CuDef*
G36*
G01*
X148256250Y-128412500D02*
X147343750Y-128412500D01*
G75*
G02*
X147100000Y-128168750I0J243750D01*
G01*
X147100000Y-127681250D01*
G75*
G02*
X147343750Y-127437500I243750J0D01*
G01*
X148256250Y-127437500D01*
G75*
G02*
X148500000Y-127681250I0J-243750D01*
G01*
X148500000Y-128168750D01*
G75*
G02*
X148256250Y-128412500I-243750J0D01*
G01*
G37*
G04 #@! TD.AperFunction*
G04 #@! TO.P,R2,1*
G04 #@! TO.N,Net-(R2-Pad1)*
G04 #@! TA.AperFunction,SMDPad,CuDef*
G36*
G01*
X148256250Y-130287500D02*
X147343750Y-130287500D01*
G75*
G02*
X147100000Y-130043750I0J243750D01*
G01*
X147100000Y-129556250D01*
G75*
G02*
X147343750Y-129312500I243750J0D01*
G01*
X148256250Y-129312500D01*
G75*
G02*
X148500000Y-129556250I0J-243750D01*
G01*
X148500000Y-130043750D01*
G75*
G02*
X148256250Y-130287500I-243750J0D01*
G01*
G37*
G04 #@! TD.AperFunction*
G04 #@! TD*
G04 #@! TO.P,R1,2*
G04 #@! TO.N,Net-(M1-Pad29)*
G04 #@! TA.AperFunction,SMDPad,CuDef*
G36*
G01*
X148056250Y-112212500D02*
X147143750Y-112212500D01*
G75*
G02*
X146900000Y-111968750I0J243750D01*
G01*
X146900000Y-111481250D01*
G75*
G02*
X147143750Y-111237500I243750J0D01*
G01*
X148056250Y-111237500D01*
G75*
G02*
X148300000Y-111481250I0J-243750D01*
G01*
X148300000Y-111968750D01*
G75*
G02*
X148056250Y-112212500I-243750J0D01*
G01*
G37*
G04 #@! TD.AperFunction*
G04 #@! TO.P,R1,1*
G04 #@! TO.N,Net-(R1-Pad1)*
G04 #@! TA.AperFunction,SMDPad,CuDef*
G36*
G01*
X148056250Y-114087500D02*
X147143750Y-114087500D01*
G75*
G02*
X146900000Y-113843750I0J243750D01*
G01*
X146900000Y-113356250D01*
G75*
G02*
X147143750Y-113112500I243750J0D01*
G01*
X148056250Y-113112500D01*
G75*
G02*
X148300000Y-113356250I0J-243750D01*
G01*
X148300000Y-113843750D01*
G75*
G02*
X148056250Y-114087500I-243750J0D01*
G01*
G37*
G04 #@! TD.AperFunction*
G04 #@! TD*
D11*
G04 #@! TO.P,F1,1*
G04 #@! TO.N,Net-(F1-Pad1)*
X164600000Y-79200000D03*
X159600000Y-79200000D03*
G04 #@! TO.P,F1,2*
G04 #@! TO.N,ACL*
X144600000Y-79200000D03*
X149600000Y-79200000D03*
G04 #@! TD*
G04 #@! TO.P,R18,2*
G04 #@! TO.N,Net-(M1-Pad25)*
G04 #@! TA.AperFunction,SMDPad,CuDef*
G36*
G01*
X128225000Y-116025000D02*
X126975000Y-116025000D01*
G75*
G02*
X126725000Y-115775000I0J250000D01*
G01*
X126725000Y-115025000D01*
G75*
G02*
X126975000Y-114775000I250000J0D01*
G01*
X128225000Y-114775000D01*
G75*
G02*
X128475000Y-115025000I0J-250000D01*
G01*
X128475000Y-115775000D01*
G75*
G02*
X128225000Y-116025000I-250000J0D01*
G01*
G37*
G04 #@! TD.AperFunction*
G04 #@! TO.P,R18,1*
G04 #@! TO.N,ZC*
G04 #@! TA.AperFunction,SMDPad,CuDef*
G36*
G01*
X128225000Y-118825000D02*
X126975000Y-118825000D01*
G75*
G02*
X126725000Y-118575000I0J250000D01*
G01*
X126725000Y-117825000D01*
G75*
G02*
X126975000Y-117575000I250000J0D01*
G01*
X128225000Y-117575000D01*
G75*
G02*
X128475000Y-117825000I0J-250000D01*
G01*
X128475000Y-118575000D01*
G75*
G02*
X128225000Y-118825000I-250000J0D01*
G01*
G37*
G04 #@! TD.AperFunction*
G04 #@! TD*
D12*
G04 #@! TO.P,PS1,4*
G04 #@! TO.N,VDD*
X138200000Y-86400000D03*
G04 #@! TO.P,PS1,2*
G04 #@! TO.N,ACN*
X167600000Y-91600000D03*
D13*
G04 #@! TO.P,PS1,1*
G04 #@! TO.N,ACL*
X167600000Y-96600000D03*
D12*
G04 #@! TO.P,PS1,3*
G04 #@! TO.N,GND*
X138200000Y-101800000D03*
G04 #@! TD*
G04 #@! TO.P,R17,2*
G04 #@! TO.N,ACL*
G04 #@! TA.AperFunction,SMDPad,CuDef*
G36*
G01*
X168775000Y-147375000D02*
X170025000Y-147375000D01*
G75*
G02*
X170275000Y-147625000I0J-250000D01*
G01*
X170275000Y-148375000D01*
G75*
G02*
X170025000Y-148625000I-250000J0D01*
G01*
X168775000Y-148625000D01*
G75*
G02*
X168525000Y-148375000I0J250000D01*
G01*
X168525000Y-147625000D01*
G75*
G02*
X168775000Y-147375000I250000J0D01*
G01*
G37*
G04 #@! TD.AperFunction*
G04 #@! TO.P,R17,1*
G04 #@! TO.N,Net-(R16-Pad1)*
G04 #@! TA.AperFunction,SMDPad,CuDef*
G36*
G01*
X168775000Y-144575000D02*
X170025000Y-144575000D01*
G75*
G02*
X170275000Y-144825000I0J-250000D01*
G01*
X170275000Y-145575000D01*
G75*
G02*
X170025000Y-145825000I-250000J0D01*
G01*
X168775000Y-145825000D01*
G75*
G02*
X168525000Y-145575000I0J250000D01*
G01*
X168525000Y-144825000D01*
G75*
G02*
X168775000Y-144575000I250000J0D01*
G01*
G37*
G04 #@! TD.AperFunction*
G04 #@! TD*
G04 #@! TO.P,R16,2*
G04 #@! TO.N,Net-(D10-Pad2)*
G04 #@! TA.AperFunction,SMDPad,CuDef*
G36*
G01*
X166375000Y-147375000D02*
X167625000Y-147375000D01*
G75*
G02*
X167875000Y-147625000I0J-250000D01*
G01*
X167875000Y-148375000D01*
G75*
G02*
X167625000Y-148625000I-250000J0D01*
G01*
X166375000Y-148625000D01*
G75*
G02*
X166125000Y-148375000I0J250000D01*
G01*
X166125000Y-147625000D01*
G75*
G02*
X166375000Y-147375000I250000J0D01*
G01*
G37*
G04 #@! TD.AperFunction*
G04 #@! TO.P,R16,1*
G04 #@! TO.N,Net-(R16-Pad1)*
G04 #@! TA.AperFunction,SMDPad,CuDef*
G36*
G01*
X166375000Y-144575000D02*
X167625000Y-144575000D01*
G75*
G02*
X167875000Y-144825000I0J-250000D01*
G01*
X167875000Y-145575000D01*
G75*
G02*
X167625000Y-145825000I-250000J0D01*
G01*
X166375000Y-145825000D01*
G75*
G02*
X166125000Y-145575000I0J250000D01*
G01*
X166125000Y-144825000D01*
G75*
G02*
X166375000Y-144575000I250000J0D01*
G01*
G37*
G04 #@! TD.AperFunction*
G04 #@! TD*
G04 #@! TO.P,R15,2*
G04 #@! TO.N,Net-(C6-Pad1)*
G04 #@! TA.AperFunction,SMDPad,CuDef*
G36*
G01*
X161775000Y-143425000D02*
X161775000Y-142175000D01*
G75*
G02*
X162025000Y-141925000I250000J0D01*
G01*
X162775000Y-141925000D01*
G75*
G02*
X163025000Y-142175000I0J-250000D01*
G01*
X163025000Y-143425000D01*
G75*
G02*
X162775000Y-143675000I-250000J0D01*
G01*
X162025000Y-143675000D01*
G75*
G02*
X161775000Y-143425000I0J250000D01*
G01*
G37*
G04 #@! TD.AperFunction*
G04 #@! TO.P,R15,1*
G04 #@! TO.N,Net-(C5-Pad1)*
G04 #@! TA.AperFunction,SMDPad,CuDef*
G36*
G01*
X158975000Y-143425000D02*
X158975000Y-142175000D01*
G75*
G02*
X159225000Y-141925000I250000J0D01*
G01*
X159975000Y-141925000D01*
G75*
G02*
X160225000Y-142175000I0J-250000D01*
G01*
X160225000Y-143425000D01*
G75*
G02*
X159975000Y-143675000I-250000J0D01*
G01*
X159225000Y-143675000D01*
G75*
G02*
X158975000Y-143425000I0J250000D01*
G01*
G37*
G04 #@! TD.AperFunction*
G04 #@! TD*
G04 #@! TO.P,R14,2*
G04 #@! TO.N,Net-(C5-Pad2)*
G04 #@! TA.AperFunction,SMDPad,CuDef*
G36*
G01*
X152775000Y-144425000D02*
X152775000Y-143175000D01*
G75*
G02*
X153025000Y-142925000I250000J0D01*
G01*
X153775000Y-142925000D01*
G75*
G02*
X154025000Y-143175000I0J-250000D01*
G01*
X154025000Y-144425000D01*
G75*
G02*
X153775000Y-144675000I-250000J0D01*
G01*
X153025000Y-144675000D01*
G75*
G02*
X152775000Y-144425000I0J250000D01*
G01*
G37*
G04 #@! TD.AperFunction*
G04 #@! TO.P,R14,1*
G04 #@! TO.N,Net-(Q5-Pad1)*
G04 #@! TA.AperFunction,SMDPad,CuDef*
G36*
G01*
X149975000Y-144425000D02*
X149975000Y-143175000D01*
G75*
G02*
X150225000Y-142925000I250000J0D01*
G01*
X150975000Y-142925000D01*
G75*
G02*
X151225000Y-143175000I0J-250000D01*
G01*
X151225000Y-144425000D01*
G75*
G02*
X150975000Y-144675000I-250000J0D01*
G01*
X150225000Y-144675000D01*
G75*
G02*
X149975000Y-144425000I0J250000D01*
G01*
G37*
G04 #@! TD.AperFunction*
G04 #@! TD*
D14*
G04 #@! TO.P,Q6,3*
G04 #@! TO.N,Net-(C5-Pad2)*
X156680000Y-139600000D03*
G04 #@! TO.P,Q6,2*
G04 #@! TO.N,ACN*
X154140000Y-139600000D03*
D15*
G04 #@! TO.P,Q6,1*
G04 #@! TO.N,Net-(Q5-Pad1)*
X151600000Y-139600000D03*
G04 #@! TD*
D14*
G04 #@! TO.P,Q5,3*
G04 #@! TO.N,Net-(C5-Pad2)*
X167480000Y-139600000D03*
G04 #@! TO.P,Q5,2*
G04 #@! TO.N,CH3*
X164940000Y-139600000D03*
D15*
G04 #@! TO.P,Q5,1*
G04 #@! TO.N,Net-(Q5-Pad1)*
X162400000Y-139600000D03*
G04 #@! TD*
D16*
G04 #@! TO.P,J4,3*
G04 #@! TO.N,ACL*
X175000000Y-136402300D03*
G04 #@! TO.P,J4,2*
G04 #@! TO.N,N/C*
X175000000Y-139902420D03*
D17*
G04 #@! TO.P,J4,1*
G04 #@! TO.N,CH3*
X175000000Y-143400000D03*
G04 #@! TD*
G04 #@! TO.P,D10,2*
G04 #@! TO.N,Net-(D10-Pad2)*
G04 #@! TA.AperFunction,SMDPad,CuDef*
G36*
G01*
X163975000Y-147375000D02*
X165225000Y-147375000D01*
G75*
G02*
X165475000Y-147625000I0J-250000D01*
G01*
X165475000Y-148375000D01*
G75*
G02*
X165225000Y-148625000I-250000J0D01*
G01*
X163975000Y-148625000D01*
G75*
G02*
X163725000Y-148375000I0J250000D01*
G01*
X163725000Y-147625000D01*
G75*
G02*
X163975000Y-147375000I250000J0D01*
G01*
G37*
G04 #@! TD.AperFunction*
G04 #@! TO.P,D10,1*
G04 #@! TO.N,Net-(C6-Pad1)*
G04 #@! TA.AperFunction,SMDPad,CuDef*
G36*
G01*
X163975000Y-144575000D02*
X165225000Y-144575000D01*
G75*
G02*
X165475000Y-144825000I0J-250000D01*
G01*
X165475000Y-145575000D01*
G75*
G02*
X165225000Y-145825000I-250000J0D01*
G01*
X163975000Y-145825000D01*
G75*
G02*
X163725000Y-145575000I0J250000D01*
G01*
X163725000Y-144825000D01*
G75*
G02*
X163975000Y-144575000I250000J0D01*
G01*
G37*
G04 #@! TD.AperFunction*
G04 #@! TD*
G04 #@! TO.P,D9,2*
G04 #@! TO.N,Net-(C5-Pad2)*
G04 #@! TA.AperFunction,SMDPad,CuDef*
G36*
G01*
X156775000Y-147375000D02*
X158025000Y-147375000D01*
G75*
G02*
X158275000Y-147625000I0J-250000D01*
G01*
X158275000Y-148375000D01*
G75*
G02*
X158025000Y-148625000I-250000J0D01*
G01*
X156775000Y-148625000D01*
G75*
G02*
X156525000Y-148375000I0J250000D01*
G01*
X156525000Y-147625000D01*
G75*
G02*
X156775000Y-147375000I250000J0D01*
G01*
G37*
G04 #@! TD.AperFunction*
G04 #@! TO.P,D9,1*
G04 #@! TO.N,Net-(C5-Pad1)*
G04 #@! TA.AperFunction,SMDPad,CuDef*
G36*
G01*
X156775000Y-144575000D02*
X158025000Y-144575000D01*
G75*
G02*
X158275000Y-144825000I0J-250000D01*
G01*
X158275000Y-145575000D01*
G75*
G02*
X158025000Y-145825000I-250000J0D01*
G01*
X156775000Y-145825000D01*
G75*
G02*
X156525000Y-145575000I0J250000D01*
G01*
X156525000Y-144825000D01*
G75*
G02*
X156775000Y-144575000I250000J0D01*
G01*
G37*
G04 #@! TD.AperFunction*
G04 #@! TD*
G04 #@! TO.P,C6,2*
G04 #@! TO.N,Net-(C5-Pad2)*
G04 #@! TA.AperFunction,SMDPad,CuDef*
G36*
G01*
X161575000Y-147375000D02*
X162825000Y-147375000D01*
G75*
G02*
X163075000Y-147625000I0J-250000D01*
G01*
X163075000Y-148375000D01*
G75*
G02*
X162825000Y-148625000I-250000J0D01*
G01*
X161575000Y-148625000D01*
G75*
G02*
X161325000Y-148375000I0J250000D01*
G01*
X161325000Y-147625000D01*
G75*
G02*
X161575000Y-147375000I250000J0D01*
G01*
G37*
G04 #@! TD.AperFunction*
G04 #@! TO.P,C6,1*
G04 #@! TO.N,Net-(C6-Pad1)*
G04 #@! TA.AperFunction,SMDPad,CuDef*
G36*
G01*
X161575000Y-144575000D02*
X162825000Y-144575000D01*
G75*
G02*
X163075000Y-144825000I0J-250000D01*
G01*
X163075000Y-145575000D01*
G75*
G02*
X162825000Y-145825000I-250000J0D01*
G01*
X161575000Y-145825000D01*
G75*
G02*
X161325000Y-145575000I0J250000D01*
G01*
X161325000Y-144825000D01*
G75*
G02*
X161575000Y-144575000I250000J0D01*
G01*
G37*
G04 #@! TD.AperFunction*
G04 #@! TD*
G04 #@! TO.P,C5,2*
G04 #@! TO.N,Net-(C5-Pad2)*
G04 #@! TA.AperFunction,SMDPad,CuDef*
G36*
G01*
X159175000Y-147375000D02*
X160425000Y-147375000D01*
G75*
G02*
X160675000Y-147625000I0J-250000D01*
G01*
X160675000Y-148375000D01*
G75*
G02*
X160425000Y-148625000I-250000J0D01*
G01*
X159175000Y-148625000D01*
G75*
G02*
X158925000Y-148375000I0J250000D01*
G01*
X158925000Y-147625000D01*
G75*
G02*
X159175000Y-147375000I250000J0D01*
G01*
G37*
G04 #@! TD.AperFunction*
G04 #@! TO.P,C5,1*
G04 #@! TO.N,Net-(C5-Pad1)*
G04 #@! TA.AperFunction,SMDPad,CuDef*
G36*
G01*
X159175000Y-144575000D02*
X160425000Y-144575000D01*
G75*
G02*
X160675000Y-144825000I0J-250000D01*
G01*
X160675000Y-145575000D01*
G75*
G02*
X160425000Y-145825000I-250000J0D01*
G01*
X159175000Y-145825000D01*
G75*
G02*
X158925000Y-145575000I0J250000D01*
G01*
X158925000Y-144825000D01*
G75*
G02*
X159175000Y-144575000I250000J0D01*
G01*
G37*
G04 #@! TD.AperFunction*
G04 #@! TD*
G04 #@! TO.P,R13,2*
G04 #@! TO.N,ACL*
G04 #@! TA.AperFunction,SMDPad,CuDef*
G36*
G01*
X168575000Y-131775000D02*
X169825000Y-131775000D01*
G75*
G02*
X170075000Y-132025000I0J-250000D01*
G01*
X170075000Y-132775000D01*
G75*
G02*
X169825000Y-133025000I-250000J0D01*
G01*
X168575000Y-133025000D01*
G75*
G02*
X168325000Y-132775000I0J250000D01*
G01*
X168325000Y-132025000D01*
G75*
G02*
X168575000Y-131775000I250000J0D01*
G01*
G37*
G04 #@! TD.AperFunction*
G04 #@! TO.P,R13,1*
G04 #@! TO.N,Net-(R12-Pad1)*
G04 #@! TA.AperFunction,SMDPad,CuDef*
G36*
G01*
X168575000Y-128975000D02*
X169825000Y-128975000D01*
G75*
G02*
X170075000Y-129225000I0J-250000D01*
G01*
X170075000Y-129975000D01*
G75*
G02*
X169825000Y-130225000I-250000J0D01*
G01*
X168575000Y-130225000D01*
G75*
G02*
X168325000Y-129975000I0J250000D01*
G01*
X168325000Y-129225000D01*
G75*
G02*
X168575000Y-128975000I250000J0D01*
G01*
G37*
G04 #@! TD.AperFunction*
G04 #@! TD*
G04 #@! TO.P,R12,2*
G04 #@! TO.N,Net-(D8-Pad2)*
G04 #@! TA.AperFunction,SMDPad,CuDef*
G36*
G01*
X166175000Y-131775000D02*
X167425000Y-131775000D01*
G75*
G02*
X167675000Y-132025000I0J-250000D01*
G01*
X167675000Y-132775000D01*
G75*
G02*
X167425000Y-133025000I-250000J0D01*
G01*
X166175000Y-133025000D01*
G75*
G02*
X165925000Y-132775000I0J250000D01*
G01*
X165925000Y-132025000D01*
G75*
G02*
X166175000Y-131775000I250000J0D01*
G01*
G37*
G04 #@! TD.AperFunction*
G04 #@! TO.P,R12,1*
G04 #@! TO.N,Net-(R12-Pad1)*
G04 #@! TA.AperFunction,SMDPad,CuDef*
G36*
G01*
X166175000Y-128975000D02*
X167425000Y-128975000D01*
G75*
G02*
X167675000Y-129225000I0J-250000D01*
G01*
X167675000Y-129975000D01*
G75*
G02*
X167425000Y-130225000I-250000J0D01*
G01*
X166175000Y-130225000D01*
G75*
G02*
X165925000Y-129975000I0J250000D01*
G01*
X165925000Y-129225000D01*
G75*
G02*
X166175000Y-128975000I250000J0D01*
G01*
G37*
G04 #@! TD.AperFunction*
G04 #@! TD*
G04 #@! TO.P,R11,2*
G04 #@! TO.N,Net-(C4-Pad1)*
G04 #@! TA.AperFunction,SMDPad,CuDef*
G36*
G01*
X161775000Y-127825000D02*
X161775000Y-126575000D01*
G75*
G02*
X162025000Y-126325000I250000J0D01*
G01*
X162775000Y-126325000D01*
G75*
G02*
X163025000Y-126575000I0J-250000D01*
G01*
X163025000Y-127825000D01*
G75*
G02*
X162775000Y-128075000I-250000J0D01*
G01*
X162025000Y-128075000D01*
G75*
G02*
X161775000Y-127825000I0J250000D01*
G01*
G37*
G04 #@! TD.AperFunction*
G04 #@! TO.P,R11,1*
G04 #@! TO.N,Net-(C3-Pad1)*
G04 #@! TA.AperFunction,SMDPad,CuDef*
G36*
G01*
X158975000Y-127825000D02*
X158975000Y-126575000D01*
G75*
G02*
X159225000Y-126325000I250000J0D01*
G01*
X159975000Y-126325000D01*
G75*
G02*
X160225000Y-126575000I0J-250000D01*
G01*
X160225000Y-127825000D01*
G75*
G02*
X159975000Y-128075000I-250000J0D01*
G01*
X159225000Y-128075000D01*
G75*
G02*
X158975000Y-127825000I0J250000D01*
G01*
G37*
G04 #@! TD.AperFunction*
G04 #@! TD*
G04 #@! TO.P,R10,2*
G04 #@! TO.N,Net-(C3-Pad2)*
G04 #@! TA.AperFunction,SMDPad,CuDef*
G36*
G01*
X152975000Y-128825000D02*
X152975000Y-127575000D01*
G75*
G02*
X153225000Y-127325000I250000J0D01*
G01*
X153975000Y-127325000D01*
G75*
G02*
X154225000Y-127575000I0J-250000D01*
G01*
X154225000Y-128825000D01*
G75*
G02*
X153975000Y-129075000I-250000J0D01*
G01*
X153225000Y-129075000D01*
G75*
G02*
X152975000Y-128825000I0J250000D01*
G01*
G37*
G04 #@! TD.AperFunction*
G04 #@! TO.P,R10,1*
G04 #@! TO.N,Net-(Q3-Pad1)*
G04 #@! TA.AperFunction,SMDPad,CuDef*
G36*
G01*
X150175000Y-128825000D02*
X150175000Y-127575000D01*
G75*
G02*
X150425000Y-127325000I250000J0D01*
G01*
X151175000Y-127325000D01*
G75*
G02*
X151425000Y-127575000I0J-250000D01*
G01*
X151425000Y-128825000D01*
G75*
G02*
X151175000Y-129075000I-250000J0D01*
G01*
X150425000Y-129075000D01*
G75*
G02*
X150175000Y-128825000I0J250000D01*
G01*
G37*
G04 #@! TD.AperFunction*
G04 #@! TD*
D14*
G04 #@! TO.P,Q4,3*
G04 #@! TO.N,Net-(C3-Pad2)*
X156680000Y-124000000D03*
G04 #@! TO.P,Q4,2*
G04 #@! TO.N,ACN*
X154140000Y-124000000D03*
D15*
G04 #@! TO.P,Q4,1*
G04 #@! TO.N,Net-(Q3-Pad1)*
X151600000Y-124000000D03*
G04 #@! TD*
D14*
G04 #@! TO.P,Q3,3*
G04 #@! TO.N,Net-(C3-Pad2)*
X167480000Y-124000000D03*
G04 #@! TO.P,Q3,2*
G04 #@! TO.N,CH2*
X164940000Y-124000000D03*
D15*
G04 #@! TO.P,Q3,1*
G04 #@! TO.N,Net-(Q3-Pad1)*
X162400000Y-124000000D03*
G04 #@! TD*
D16*
G04 #@! TO.P,J3,3*
G04 #@! TO.N,ACL*
X175000000Y-120802300D03*
G04 #@! TO.P,J3,2*
G04 #@! TO.N,N/C*
X175000000Y-124302420D03*
D17*
G04 #@! TO.P,J3,1*
G04 #@! TO.N,CH2*
X175000000Y-127800000D03*
G04 #@! TD*
G04 #@! TO.P,D8,2*
G04 #@! TO.N,Net-(D8-Pad2)*
G04 #@! TA.AperFunction,SMDPad,CuDef*
G36*
G01*
X163775000Y-131775000D02*
X165025000Y-131775000D01*
G75*
G02*
X165275000Y-132025000I0J-250000D01*
G01*
X165275000Y-132775000D01*
G75*
G02*
X165025000Y-133025000I-250000J0D01*
G01*
X163775000Y-133025000D01*
G75*
G02*
X163525000Y-132775000I0J250000D01*
G01*
X163525000Y-132025000D01*
G75*
G02*
X163775000Y-131775000I250000J0D01*
G01*
G37*
G04 #@! TD.AperFunction*
G04 #@! TO.P,D8,1*
G04 #@! TO.N,Net-(C4-Pad1)*
G04 #@! TA.AperFunction,SMDPad,CuDef*
G36*
G01*
X163775000Y-128975000D02*
X165025000Y-128975000D01*
G75*
G02*
X165275000Y-129225000I0J-250000D01*
G01*
X165275000Y-129975000D01*
G75*
G02*
X165025000Y-130225000I-250000J0D01*
G01*
X163775000Y-130225000D01*
G75*
G02*
X163525000Y-129975000I0J250000D01*
G01*
X163525000Y-129225000D01*
G75*
G02*
X163775000Y-128975000I250000J0D01*
G01*
G37*
G04 #@! TD.AperFunction*
G04 #@! TD*
G04 #@! TO.P,D7,2*
G04 #@! TO.N,Net-(C3-Pad2)*
G04 #@! TA.AperFunction,SMDPad,CuDef*
G36*
G01*
X156575000Y-131775000D02*
X157825000Y-131775000D01*
G75*
G02*
X158075000Y-132025000I0J-250000D01*
G01*
X158075000Y-132775000D01*
G75*
G02*
X157825000Y-133025000I-250000J0D01*
G01*
X156575000Y-133025000D01*
G75*
G02*
X156325000Y-132775000I0J250000D01*
G01*
X156325000Y-132025000D01*
G75*
G02*
X156575000Y-131775000I250000J0D01*
G01*
G37*
G04 #@! TD.AperFunction*
G04 #@! TO.P,D7,1*
G04 #@! TO.N,Net-(C3-Pad1)*
G04 #@! TA.AperFunction,SMDPad,CuDef*
G36*
G01*
X156575000Y-128975000D02*
X157825000Y-128975000D01*
G75*
G02*
X158075000Y-129225000I0J-250000D01*
G01*
X158075000Y-129975000D01*
G75*
G02*
X157825000Y-130225000I-250000J0D01*
G01*
X156575000Y-130225000D01*
G75*
G02*
X156325000Y-129975000I0J250000D01*
G01*
X156325000Y-129225000D01*
G75*
G02*
X156575000Y-128975000I250000J0D01*
G01*
G37*
G04 #@! TD.AperFunction*
G04 #@! TD*
G04 #@! TO.P,C4,2*
G04 #@! TO.N,Net-(C3-Pad2)*
G04 #@! TA.AperFunction,SMDPad,CuDef*
G36*
G01*
X161375000Y-131775000D02*
X162625000Y-131775000D01*
G75*
G02*
X162875000Y-132025000I0J-250000D01*
G01*
X162875000Y-132775000D01*
G75*
G02*
X162625000Y-133025000I-250000J0D01*
G01*
X161375000Y-133025000D01*
G75*
G02*
X161125000Y-132775000I0J250000D01*
G01*
X161125000Y-132025000D01*
G75*
G02*
X161375000Y-131775000I250000J0D01*
G01*
G37*
G04 #@! TD.AperFunction*
G04 #@! TO.P,C4,1*
G04 #@! TO.N,Net-(C4-Pad1)*
G04 #@! TA.AperFunction,SMDPad,CuDef*
G36*
G01*
X161375000Y-128975000D02*
X162625000Y-128975000D01*
G75*
G02*
X162875000Y-129225000I0J-250000D01*
G01*
X162875000Y-129975000D01*
G75*
G02*
X162625000Y-130225000I-250000J0D01*
G01*
X161375000Y-130225000D01*
G75*
G02*
X161125000Y-129975000I0J250000D01*
G01*
X161125000Y-129225000D01*
G75*
G02*
X161375000Y-128975000I250000J0D01*
G01*
G37*
G04 #@! TD.AperFunction*
G04 #@! TD*
G04 #@! TO.P,C3,2*
G04 #@! TO.N,Net-(C3-Pad2)*
G04 #@! TA.AperFunction,SMDPad,CuDef*
G36*
G01*
X158975000Y-131775000D02*
X160225000Y-131775000D01*
G75*
G02*
X160475000Y-132025000I0J-250000D01*
G01*
X160475000Y-132775000D01*
G75*
G02*
X160225000Y-133025000I-250000J0D01*
G01*
X158975000Y-133025000D01*
G75*
G02*
X158725000Y-132775000I0J250000D01*
G01*
X158725000Y-132025000D01*
G75*
G02*
X158975000Y-131775000I250000J0D01*
G01*
G37*
G04 #@! TD.AperFunction*
G04 #@! TO.P,C3,1*
G04 #@! TO.N,Net-(C3-Pad1)*
G04 #@! TA.AperFunction,SMDPad,CuDef*
G36*
G01*
X158975000Y-128975000D02*
X160225000Y-128975000D01*
G75*
G02*
X160475000Y-129225000I0J-250000D01*
G01*
X160475000Y-129975000D01*
G75*
G02*
X160225000Y-130225000I-250000J0D01*
G01*
X158975000Y-130225000D01*
G75*
G02*
X158725000Y-129975000I0J250000D01*
G01*
X158725000Y-129225000D01*
G75*
G02*
X158975000Y-128975000I250000J0D01*
G01*
G37*
G04 #@! TD.AperFunction*
G04 #@! TD*
G04 #@! TO.P,R9,2*
G04 #@! TO.N,ACL*
G04 #@! TA.AperFunction,SMDPad,CuDef*
G36*
G01*
X111775000Y-82425000D02*
X111775000Y-83675000D01*
G75*
G02*
X111525000Y-83925000I-250000J0D01*
G01*
X110775000Y-83925000D01*
G75*
G02*
X110525000Y-83675000I0J250000D01*
G01*
X110525000Y-82425000D01*
G75*
G02*
X110775000Y-82175000I250000J0D01*
G01*
X111525000Y-82175000D01*
G75*
G02*
X111775000Y-82425000I0J-250000D01*
G01*
G37*
G04 #@! TD.AperFunction*
G04 #@! TO.P,R9,1*
G04 #@! TO.N,Net-(R8-Pad2)*
G04 #@! TA.AperFunction,SMDPad,CuDef*
G36*
G01*
X114575000Y-82425000D02*
X114575000Y-83675000D01*
G75*
G02*
X114325000Y-83925000I-250000J0D01*
G01*
X113575000Y-83925000D01*
G75*
G02*
X113325000Y-83675000I0J250000D01*
G01*
X113325000Y-82425000D01*
G75*
G02*
X113575000Y-82175000I250000J0D01*
G01*
X114325000Y-82175000D01*
G75*
G02*
X114575000Y-82425000I0J-250000D01*
G01*
G37*
G04 #@! TD.AperFunction*
G04 #@! TD*
G04 #@! TO.P,R8,2*
G04 #@! TO.N,Net-(R8-Pad2)*
G04 #@! TA.AperFunction,SMDPad,CuDef*
G36*
G01*
X116925000Y-82425000D02*
X116925000Y-83675000D01*
G75*
G02*
X116675000Y-83925000I-250000J0D01*
G01*
X115925000Y-83925000D01*
G75*
G02*
X115675000Y-83675000I0J250000D01*
G01*
X115675000Y-82425000D01*
G75*
G02*
X115925000Y-82175000I250000J0D01*
G01*
X116675000Y-82175000D01*
G75*
G02*
X116925000Y-82425000I0J-250000D01*
G01*
G37*
G04 #@! TD.AperFunction*
G04 #@! TO.P,R8,1*
G04 #@! TO.N,Net-(D3-Pad1)*
G04 #@! TA.AperFunction,SMDPad,CuDef*
G36*
G01*
X119725000Y-82425000D02*
X119725000Y-83675000D01*
G75*
G02*
X119475000Y-83925000I-250000J0D01*
G01*
X118725000Y-83925000D01*
G75*
G02*
X118475000Y-83675000I0J250000D01*
G01*
X118475000Y-82425000D01*
G75*
G02*
X118725000Y-82175000I250000J0D01*
G01*
X119475000Y-82175000D01*
G75*
G02*
X119725000Y-82425000I0J-250000D01*
G01*
G37*
G04 #@! TD.AperFunction*
G04 #@! TD*
D16*
G04 #@! TO.P,J2,3*
G04 #@! TO.N,Net-(F1-Pad1)*
X175000000Y-89202300D03*
G04 #@! TO.P,J2,2*
G04 #@! TO.N,ACN*
X175000000Y-92702420D03*
D17*
G04 #@! TO.P,J2,1*
G04 #@! TO.N,N/C*
X175000000Y-96200000D03*
G04 #@! TD*
G04 #@! TO.P,D6,2*
G04 #@! TO.N,Net-(D3-Pad2)*
G04 #@! TA.AperFunction,SMDPad,CuDef*
G36*
G01*
X130575000Y-85275000D02*
X131825000Y-85275000D01*
G75*
G02*
X132075000Y-85525000I0J-250000D01*
G01*
X132075000Y-86275000D01*
G75*
G02*
X131825000Y-86525000I-250000J0D01*
G01*
X130575000Y-86525000D01*
G75*
G02*
X130325000Y-86275000I0J250000D01*
G01*
X130325000Y-85525000D01*
G75*
G02*
X130575000Y-85275000I250000J0D01*
G01*
G37*
G04 #@! TD.AperFunction*
G04 #@! TO.P,D6,1*
G04 #@! TO.N,ACN*
G04 #@! TA.AperFunction,SMDPad,CuDef*
G36*
G01*
X130575000Y-82475000D02*
X131825000Y-82475000D01*
G75*
G02*
X132075000Y-82725000I0J-250000D01*
G01*
X132075000Y-83475000D01*
G75*
G02*
X131825000Y-83725000I-250000J0D01*
G01*
X130575000Y-83725000D01*
G75*
G02*
X130325000Y-83475000I0J250000D01*
G01*
X130325000Y-82725000D01*
G75*
G02*
X130575000Y-82475000I250000J0D01*
G01*
G37*
G04 #@! TD.AperFunction*
G04 #@! TD*
G04 #@! TO.P,D5,2*
G04 #@! TO.N,ACN*
G04 #@! TA.AperFunction,SMDPad,CuDef*
G36*
G01*
X129325000Y-83675000D02*
X128075000Y-83675000D01*
G75*
G02*
X127825000Y-83425000I0J250000D01*
G01*
X127825000Y-82675000D01*
G75*
G02*
X128075000Y-82425000I250000J0D01*
G01*
X129325000Y-82425000D01*
G75*
G02*
X129575000Y-82675000I0J-250000D01*
G01*
X129575000Y-83425000D01*
G75*
G02*
X129325000Y-83675000I-250000J0D01*
G01*
G37*
G04 #@! TD.AperFunction*
G04 #@! TO.P,D5,1*
G04 #@! TO.N,Net-(D4-Pad1)*
G04 #@! TA.AperFunction,SMDPad,CuDef*
G36*
G01*
X129325000Y-86475000D02*
X128075000Y-86475000D01*
G75*
G02*
X127825000Y-86225000I0J250000D01*
G01*
X127825000Y-85475000D01*
G75*
G02*
X128075000Y-85225000I250000J0D01*
G01*
X129325000Y-85225000D01*
G75*
G02*
X129575000Y-85475000I0J-250000D01*
G01*
X129575000Y-86225000D01*
G75*
G02*
X129325000Y-86475000I-250000J0D01*
G01*
G37*
G04 #@! TD.AperFunction*
G04 #@! TD*
G04 #@! TO.P,D4,2*
G04 #@! TO.N,Net-(D3-Pad1)*
G04 #@! TA.AperFunction,SMDPad,CuDef*
G36*
G01*
X126775000Y-83675000D02*
X125525000Y-83675000D01*
G75*
G02*
X125275000Y-83425000I0J250000D01*
G01*
X125275000Y-82675000D01*
G75*
G02*
X125525000Y-82425000I250000J0D01*
G01*
X126775000Y-82425000D01*
G75*
G02*
X127025000Y-82675000I0J-250000D01*
G01*
X127025000Y-83425000D01*
G75*
G02*
X126775000Y-83675000I-250000J0D01*
G01*
G37*
G04 #@! TD.AperFunction*
G04 #@! TO.P,D4,1*
G04 #@! TO.N,Net-(D4-Pad1)*
G04 #@! TA.AperFunction,SMDPad,CuDef*
G36*
G01*
X126775000Y-86475000D02*
X125525000Y-86475000D01*
G75*
G02*
X125275000Y-86225000I0J250000D01*
G01*
X125275000Y-85475000D01*
G75*
G02*
X125525000Y-85225000I250000J0D01*
G01*
X126775000Y-85225000D01*
G75*
G02*
X127025000Y-85475000I0J-250000D01*
G01*
X127025000Y-86225000D01*
G75*
G02*
X126775000Y-86475000I-250000J0D01*
G01*
G37*
G04 #@! TD.AperFunction*
G04 #@! TD*
G04 #@! TO.P,D3,2*
G04 #@! TO.N,Net-(D3-Pad2)*
G04 #@! TA.AperFunction,SMDPad,CuDef*
G36*
G01*
X123075000Y-85225000D02*
X124325000Y-85225000D01*
G75*
G02*
X124575000Y-85475000I0J-250000D01*
G01*
X124575000Y-86225000D01*
G75*
G02*
X124325000Y-86475000I-250000J0D01*
G01*
X123075000Y-86475000D01*
G75*
G02*
X122825000Y-86225000I0J250000D01*
G01*
X122825000Y-85475000D01*
G75*
G02*
X123075000Y-85225000I250000J0D01*
G01*
G37*
G04 #@! TD.AperFunction*
G04 #@! TO.P,D3,1*
G04 #@! TO.N,Net-(D3-Pad1)*
G04 #@! TA.AperFunction,SMDPad,CuDef*
G36*
G01*
X123075000Y-82425000D02*
X124325000Y-82425000D01*
G75*
G02*
X124575000Y-82675000I0J-250000D01*
G01*
X124575000Y-83425000D01*
G75*
G02*
X124325000Y-83675000I-250000J0D01*
G01*
X123075000Y-83675000D01*
G75*
G02*
X122825000Y-83425000I0J250000D01*
G01*
X122825000Y-82675000D01*
G75*
G02*
X123075000Y-82425000I250000J0D01*
G01*
G37*
G04 #@! TD.AperFunction*
G04 #@! TD*
G04 #@! TO.P,R7,2*
G04 #@! TO.N,Net-(C1-Pad2)*
G04 #@! TA.AperFunction,SMDPad,CuDef*
G36*
G01*
X152975000Y-113625000D02*
X152975000Y-112375000D01*
G75*
G02*
X153225000Y-112125000I250000J0D01*
G01*
X153975000Y-112125000D01*
G75*
G02*
X154225000Y-112375000I0J-250000D01*
G01*
X154225000Y-113625000D01*
G75*
G02*
X153975000Y-113875000I-250000J0D01*
G01*
X153225000Y-113875000D01*
G75*
G02*
X152975000Y-113625000I0J250000D01*
G01*
G37*
G04 #@! TD.AperFunction*
G04 #@! TO.P,R7,1*
G04 #@! TO.N,Net-(Q1-Pad1)*
G04 #@! TA.AperFunction,SMDPad,CuDef*
G36*
G01*
X150175000Y-113625000D02*
X150175000Y-112375000D01*
G75*
G02*
X150425000Y-112125000I250000J0D01*
G01*
X151175000Y-112125000D01*
G75*
G02*
X151425000Y-112375000I0J-250000D01*
G01*
X151425000Y-113625000D01*
G75*
G02*
X151175000Y-113875000I-250000J0D01*
G01*
X150425000Y-113875000D01*
G75*
G02*
X150175000Y-113625000I0J250000D01*
G01*
G37*
G04 #@! TD.AperFunction*
G04 #@! TD*
D14*
G04 #@! TO.P,Q2,3*
G04 #@! TO.N,Net-(C1-Pad2)*
X156680000Y-108800000D03*
G04 #@! TO.P,Q2,2*
G04 #@! TO.N,ACN*
X154140000Y-108800000D03*
D15*
G04 #@! TO.P,Q2,1*
G04 #@! TO.N,Net-(Q1-Pad1)*
X151600000Y-108800000D03*
G04 #@! TD*
D14*
G04 #@! TO.P,Q1,3*
G04 #@! TO.N,Net-(C1-Pad2)*
X167680000Y-108800000D03*
G04 #@! TO.P,Q1,2*
G04 #@! TO.N,CH1*
X165140000Y-108800000D03*
D15*
G04 #@! TO.P,Q1,1*
G04 #@! TO.N,Net-(Q1-Pad1)*
X162600000Y-108800000D03*
G04 #@! TD*
G04 #@! TO.P,D2,2*
G04 #@! TO.N,Net-(C1-Pad2)*
G04 #@! TA.AperFunction,SMDPad,CuDef*
G36*
G01*
X156425000Y-116375000D02*
X157675000Y-116375000D01*
G75*
G02*
X157925000Y-116625000I0J-250000D01*
G01*
X157925000Y-117375000D01*
G75*
G02*
X157675000Y-117625000I-250000J0D01*
G01*
X156425000Y-117625000D01*
G75*
G02*
X156175000Y-117375000I0J250000D01*
G01*
X156175000Y-116625000D01*
G75*
G02*
X156425000Y-116375000I250000J0D01*
G01*
G37*
G04 #@! TD.AperFunction*
G04 #@! TO.P,D2,1*
G04 #@! TO.N,Net-(C1-Pad1)*
G04 #@! TA.AperFunction,SMDPad,CuDef*
G36*
G01*
X156425000Y-113575000D02*
X157675000Y-113575000D01*
G75*
G02*
X157925000Y-113825000I0J-250000D01*
G01*
X157925000Y-114575000D01*
G75*
G02*
X157675000Y-114825000I-250000J0D01*
G01*
X156425000Y-114825000D01*
G75*
G02*
X156175000Y-114575000I0J250000D01*
G01*
X156175000Y-113825000D01*
G75*
G02*
X156425000Y-113575000I250000J0D01*
G01*
G37*
G04 #@! TD.AperFunction*
G04 #@! TD*
G04 #@! TO.P,C2,2*
G04 #@! TO.N,Net-(C1-Pad2)*
G04 #@! TA.AperFunction,SMDPad,CuDef*
G36*
G01*
X161225000Y-116375000D02*
X162475000Y-116375000D01*
G75*
G02*
X162725000Y-116625000I0J-250000D01*
G01*
X162725000Y-117375000D01*
G75*
G02*
X162475000Y-117625000I-250000J0D01*
G01*
X161225000Y-117625000D01*
G75*
G02*
X160975000Y-117375000I0J250000D01*
G01*
X160975000Y-116625000D01*
G75*
G02*
X161225000Y-116375000I250000J0D01*
G01*
G37*
G04 #@! TD.AperFunction*
G04 #@! TO.P,C2,1*
G04 #@! TO.N,Net-(C2-Pad1)*
G04 #@! TA.AperFunction,SMDPad,CuDef*
G36*
G01*
X161225000Y-113575000D02*
X162475000Y-113575000D01*
G75*
G02*
X162725000Y-113825000I0J-250000D01*
G01*
X162725000Y-114575000D01*
G75*
G02*
X162475000Y-114825000I-250000J0D01*
G01*
X161225000Y-114825000D01*
G75*
G02*
X160975000Y-114575000I0J250000D01*
G01*
X160975000Y-113825000D01*
G75*
G02*
X161225000Y-113575000I250000J0D01*
G01*
G37*
G04 #@! TD.AperFunction*
G04 #@! TD*
G04 #@! TO.P,C1,2*
G04 #@! TO.N,Net-(C1-Pad2)*
G04 #@! TA.AperFunction,SMDPad,CuDef*
G36*
G01*
X158875000Y-116375000D02*
X160125000Y-116375000D01*
G75*
G02*
X160375000Y-116625000I0J-250000D01*
G01*
X160375000Y-117375000D01*
G75*
G02*
X160125000Y-117625000I-250000J0D01*
G01*
X158875000Y-117625000D01*
G75*
G02*
X158625000Y-117375000I0J250000D01*
G01*
X158625000Y-116625000D01*
G75*
G02*
X158875000Y-116375000I250000J0D01*
G01*
G37*
G04 #@! TD.AperFunction*
G04 #@! TO.P,C1,1*
G04 #@! TO.N,Net-(C1-Pad1)*
G04 #@! TA.AperFunction,SMDPad,CuDef*
G36*
G01*
X158875000Y-113575000D02*
X160125000Y-113575000D01*
G75*
G02*
X160375000Y-113825000I0J-250000D01*
G01*
X160375000Y-114575000D01*
G75*
G02*
X160125000Y-114825000I-250000J0D01*
G01*
X158875000Y-114825000D01*
G75*
G02*
X158625000Y-114575000I0J250000D01*
G01*
X158625000Y-113825000D01*
G75*
G02*
X158875000Y-113575000I250000J0D01*
G01*
G37*
G04 #@! TD.AperFunction*
G04 #@! TD*
G04 #@! TO.P,R6,2*
G04 #@! TO.N,Net-(C2-Pad1)*
G04 #@! TA.AperFunction,SMDPad,CuDef*
G36*
G01*
X161425000Y-112625000D02*
X161425000Y-111375000D01*
G75*
G02*
X161675000Y-111125000I250000J0D01*
G01*
X162425000Y-111125000D01*
G75*
G02*
X162675000Y-111375000I0J-250000D01*
G01*
X162675000Y-112625000D01*
G75*
G02*
X162425000Y-112875000I-250000J0D01*
G01*
X161675000Y-112875000D01*
G75*
G02*
X161425000Y-112625000I0J250000D01*
G01*
G37*
G04 #@! TD.AperFunction*
G04 #@! TO.P,R6,1*
G04 #@! TO.N,Net-(C1-Pad1)*
G04 #@! TA.AperFunction,SMDPad,CuDef*
G36*
G01*
X158625000Y-112625000D02*
X158625000Y-111375000D01*
G75*
G02*
X158875000Y-111125000I250000J0D01*
G01*
X159625000Y-111125000D01*
G75*
G02*
X159875000Y-111375000I0J-250000D01*
G01*
X159875000Y-112625000D01*
G75*
G02*
X159625000Y-112875000I-250000J0D01*
G01*
X158875000Y-112875000D01*
G75*
G02*
X158625000Y-112625000I0J250000D01*
G01*
G37*
G04 #@! TD.AperFunction*
G04 #@! TD*
G04 #@! TO.P,R5,2*
G04 #@! TO.N,ACL*
G04 #@! TA.AperFunction,SMDPad,CuDef*
G36*
G01*
X168525000Y-116375000D02*
X169775000Y-116375000D01*
G75*
G02*
X170025000Y-116625000I0J-250000D01*
G01*
X170025000Y-117375000D01*
G75*
G02*
X169775000Y-117625000I-250000J0D01*
G01*
X168525000Y-117625000D01*
G75*
G02*
X168275000Y-117375000I0J250000D01*
G01*
X168275000Y-116625000D01*
G75*
G02*
X168525000Y-116375000I250000J0D01*
G01*
G37*
G04 #@! TD.AperFunction*
G04 #@! TO.P,R5,1*
G04 #@! TO.N,Net-(R4-Pad1)*
G04 #@! TA.AperFunction,SMDPad,CuDef*
G36*
G01*
X168525000Y-113575000D02*
X169775000Y-113575000D01*
G75*
G02*
X170025000Y-113825000I0J-250000D01*
G01*
X170025000Y-114575000D01*
G75*
G02*
X169775000Y-114825000I-250000J0D01*
G01*
X168525000Y-114825000D01*
G75*
G02*
X168275000Y-114575000I0J250000D01*
G01*
X168275000Y-113825000D01*
G75*
G02*
X168525000Y-113575000I250000J0D01*
G01*
G37*
G04 #@! TD.AperFunction*
G04 #@! TD*
G04 #@! TO.P,R4,2*
G04 #@! TO.N,Net-(D1-Pad2)*
G04 #@! TA.AperFunction,SMDPad,CuDef*
G36*
G01*
X166075000Y-116375000D02*
X167325000Y-116375000D01*
G75*
G02*
X167575000Y-116625000I0J-250000D01*
G01*
X167575000Y-117375000D01*
G75*
G02*
X167325000Y-117625000I-250000J0D01*
G01*
X166075000Y-117625000D01*
G75*
G02*
X165825000Y-117375000I0J250000D01*
G01*
X165825000Y-116625000D01*
G75*
G02*
X166075000Y-116375000I250000J0D01*
G01*
G37*
G04 #@! TD.AperFunction*
G04 #@! TO.P,R4,1*
G04 #@! TO.N,Net-(R4-Pad1)*
G04 #@! TA.AperFunction,SMDPad,CuDef*
G36*
G01*
X166075000Y-113575000D02*
X167325000Y-113575000D01*
G75*
G02*
X167575000Y-113825000I0J-250000D01*
G01*
X167575000Y-114575000D01*
G75*
G02*
X167325000Y-114825000I-250000J0D01*
G01*
X166075000Y-114825000D01*
G75*
G02*
X165825000Y-114575000I0J250000D01*
G01*
X165825000Y-113825000D01*
G75*
G02*
X166075000Y-113575000I250000J0D01*
G01*
G37*
G04 #@! TD.AperFunction*
G04 #@! TD*
G04 #@! TO.P,D1,2*
G04 #@! TO.N,Net-(D1-Pad2)*
G04 #@! TA.AperFunction,SMDPad,CuDef*
G36*
G01*
X163625000Y-116375000D02*
X164875000Y-116375000D01*
G75*
G02*
X165125000Y-116625000I0J-250000D01*
G01*
X165125000Y-117375000D01*
G75*
G02*
X164875000Y-117625000I-250000J0D01*
G01*
X163625000Y-117625000D01*
G75*
G02*
X163375000Y-117375000I0J250000D01*
G01*
X163375000Y-116625000D01*
G75*
G02*
X163625000Y-116375000I250000J0D01*
G01*
G37*
G04 #@! TD.AperFunction*
G04 #@! TO.P,D1,1*
G04 #@! TO.N,Net-(C2-Pad1)*
G04 #@! TA.AperFunction,SMDPad,CuDef*
G36*
G01*
X163625000Y-113575000D02*
X164875000Y-113575000D01*
G75*
G02*
X165125000Y-113825000I0J-250000D01*
G01*
X165125000Y-114575000D01*
G75*
G02*
X164875000Y-114825000I-250000J0D01*
G01*
X163625000Y-114825000D01*
G75*
G02*
X163375000Y-114575000I0J250000D01*
G01*
X163375000Y-113825000D01*
G75*
G02*
X163625000Y-113575000I250000J0D01*
G01*
G37*
G04 #@! TD.AperFunction*
G04 #@! TD*
D16*
G04 #@! TO.P,J1,3*
G04 #@! TO.N,ACL*
X175000000Y-105202300D03*
G04 #@! TO.P,J1,2*
G04 #@! TO.N,N/C*
X175000000Y-108702420D03*
D17*
G04 #@! TO.P,J1,1*
G04 #@! TO.N,CH1*
X175000000Y-112200000D03*
G04 #@! TD*
D18*
G04 #@! TO.P,M1,30*
G04 #@! TO.N,SW1*
X132440000Y-99970000D03*
G04 #@! TO.P,M1,29*
G04 #@! TO.N,Net-(M1-Pad29)*
X132440000Y-102510000D03*
G04 #@! TO.P,M1,28*
G04 #@! TO.N,Net-(M1-Pad28)*
X132440000Y-105050000D03*
G04 #@! TO.P,M1,27*
G04 #@! TO.N,Net-(M1-Pad27)*
X132440000Y-107590000D03*
G04 #@! TO.P,M1,26*
G04 #@! TO.N,SW2*
X132440000Y-110130000D03*
G04 #@! TO.P,M1,25*
G04 #@! TO.N,Net-(M1-Pad25)*
X132440000Y-112670000D03*
G04 #@! TO.P,M1,24*
G04 #@! TO.N,N/C*
X132440000Y-115210000D03*
G04 #@! TO.P,M1,23*
G04 #@! TO.N,SW3*
X132440000Y-117750000D03*
G04 #@! TO.P,M1,22*
G04 #@! TO.N,ZC*
X132440000Y-120290000D03*
G04 #@! TO.P,M1,21*
G04 #@! TO.N,SW4*
X132440000Y-122830000D03*
G04 #@! TO.P,M1,20*
G04 #@! TO.N,SW5*
X132440000Y-125370000D03*
G04 #@! TO.P,M1,19*
G04 #@! TO.N,SW6*
X132440000Y-127910000D03*
G04 #@! TO.P,M1,18*
G04 #@! TO.N,SW7*
X132440000Y-130450000D03*
G04 #@! TO.P,M1,17*
G04 #@! TO.N,N/C*
X132440000Y-132990000D03*
G04 #@! TO.P,M1,16*
X132440000Y-135530000D03*
G04 #@! TO.P,M1,15*
G04 #@! TO.N,VDD*
X109580000Y-135530000D03*
G04 #@! TO.P,M1,14*
G04 #@! TO.N,N/C*
X109580000Y-132990000D03*
G04 #@! TO.P,M1,13*
X109580000Y-130450000D03*
G04 #@! TO.P,M1,12*
X109580000Y-127910000D03*
G04 #@! TO.P,M1,11*
X109580000Y-125370000D03*
G04 #@! TO.P,M1,10*
X109580000Y-122830000D03*
G04 #@! TO.P,M1,9*
X109580000Y-120290000D03*
G04 #@! TO.P,M1,8*
X109580000Y-117750000D03*
G04 #@! TO.P,M1,7*
X109580000Y-115210000D03*
G04 #@! TO.P,M1,6*
X109580000Y-112670000D03*
G04 #@! TO.P,M1,5*
G04 #@! TO.N,SW9*
X109580000Y-110130000D03*
G04 #@! TO.P,M1,4*
G04 #@! TO.N,SW8*
X109580000Y-107590000D03*
G04 #@! TO.P,M1,3*
G04 #@! TO.N,N/C*
X109580000Y-105050000D03*
G04 #@! TO.P,M1,2*
X109580000Y-102510000D03*
G04 #@! TO.P,M1,1*
X109580000Y-99970000D03*
G04 #@! TD*
D19*
G04 #@! TO.N,Net-(M1-Pad28)*
X147800000Y-119800000D03*
X143000000Y-119800000D03*
G04 #@! TO.N,Net-(M1-Pad27)*
X147400000Y-136000000D03*
X143000000Y-136000000D03*
G04 #@! TO.N,GND*
X144800000Y-114800000D03*
G04 #@! TO.N,Net-(C1-Pad2)*
X156680000Y-104520000D03*
X160000000Y-118800000D03*
G04 #@! TO.N,Net-(D3-Pad2)*
X131200000Y-87800000D03*
X123800000Y-87800000D03*
G04 #@! TO.N,Net-(C3-Pad2)*
X156680000Y-119520000D03*
X159400000Y-134400000D03*
G04 #@! TO.N,Net-(C5-Pad2)*
X156680000Y-135120000D03*
X159800000Y-150000000D03*
G04 #@! TO.N,ACN*
X135000000Y-83000000D03*
G04 #@! TO.N,ACL*
X172200000Y-148000000D03*
G04 #@! TD*
D20*
G04 #@! TO.N,Net-(M1-Pad29)*
X147600000Y-111725000D02*
X147600000Y-106000000D01*
X147600000Y-106000000D02*
X145800000Y-104200000D01*
X145800000Y-104200000D02*
X137200000Y-104200000D01*
X135510000Y-102510000D02*
X132440000Y-102510000D01*
X137200000Y-104200000D02*
X135510000Y-102510000D01*
G04 #@! TO.N,Net-(M1-Pad28)*
X147800000Y-127925000D02*
X147800000Y-119800000D01*
X143000000Y-119800000D02*
X143000000Y-106400000D01*
X141650000Y-105050000D02*
X132440000Y-105050000D01*
X143000000Y-106400000D02*
X141650000Y-105050000D01*
G04 #@! TO.N,Net-(M1-Pad27)*
X147800000Y-142525000D02*
X147800000Y-136400000D01*
X147800000Y-136400000D02*
X147400000Y-136000000D01*
X143000000Y-136000000D02*
X143000000Y-122600000D01*
X143000000Y-122600000D02*
X141200000Y-120800000D01*
X141200000Y-120800000D02*
X141200000Y-109200000D01*
X139590000Y-107590000D02*
X132440000Y-107590000D01*
X141200000Y-109200000D02*
X139590000Y-107590000D01*
D21*
G04 #@! TO.N,Net-(R1-Pad1)*
X147600000Y-115530000D02*
X147600000Y-113600000D01*
G04 #@! TO.N,Net-(R2-Pad1)*
X147750000Y-129850000D02*
X147800000Y-129800000D01*
X147750000Y-132165000D02*
X147750000Y-129850000D01*
G04 #@! TO.N,Net-(R3-Pad1)*
X147950000Y-144550000D02*
X147800000Y-144400000D01*
X147950000Y-146565000D02*
X147950000Y-144550000D01*
G04 #@! TO.N,GND*
X147950000Y-147835000D02*
X145835000Y-147835000D01*
X145835000Y-147835000D02*
X145000000Y-147000000D01*
X145000000Y-147000000D02*
X145000000Y-134200000D01*
X145765000Y-133435000D02*
X147750000Y-133435000D01*
X145000000Y-134200000D02*
X145765000Y-133435000D01*
X147750000Y-133435000D02*
X145435000Y-133435000D01*
X145435000Y-133435000D02*
X145000000Y-133000000D01*
X145000000Y-133000000D02*
X145000000Y-117400000D01*
X145600000Y-116800000D02*
X147600000Y-116800000D01*
X145000000Y-117400000D02*
X145600000Y-116800000D01*
X145600000Y-116800000D02*
X144800000Y-116000000D01*
X144800000Y-116000000D02*
X144800000Y-114800000D01*
X118150000Y-90565000D02*
X120765000Y-90565000D01*
X120765000Y-90565000D02*
X121400000Y-91200000D01*
X121400000Y-91200000D02*
X121400000Y-93600000D01*
X121400000Y-93600000D02*
X122400000Y-94600000D01*
X122400000Y-94600000D02*
X136000000Y-94600000D01*
X138200000Y-96800000D02*
X138200000Y-101800000D01*
X136000000Y-94600000D02*
X138200000Y-96800000D01*
X143500000Y-145500000D02*
X145000000Y-147000000D01*
X139800000Y-145500000D02*
X143500000Y-145500000D01*
D22*
G04 #@! TO.N,Net-(D1-Pad2)*
X166700000Y-117000000D02*
X164250000Y-117000000D01*
G04 #@! TO.N,Net-(R4-Pad1)*
X169150000Y-114200000D02*
X166700000Y-114200000D01*
G04 #@! TO.N,Net-(C1-Pad2)*
X156680000Y-104520000D02*
X166520000Y-104520000D01*
X167680000Y-105680000D02*
X167680000Y-108800000D01*
X166520000Y-104520000D02*
X167680000Y-105680000D01*
X161850000Y-117000000D02*
X159500000Y-117000000D01*
X159500000Y-117000000D02*
X157050000Y-117000000D01*
X157050000Y-117000000D02*
X159000000Y-117000000D01*
X159000000Y-117000000D02*
X160000000Y-118000000D01*
X160000000Y-118000000D02*
X160000000Y-118800000D01*
X156680000Y-109920000D02*
X153600000Y-113000000D01*
X156680000Y-108800000D02*
X156680000Y-109920000D01*
G04 #@! TO.N,Net-(C1-Pad1)*
X159250000Y-113950000D02*
X159500000Y-114200000D01*
X159250000Y-112000000D02*
X159250000Y-113950000D01*
X159500000Y-114200000D02*
X157050000Y-114200000D01*
D21*
X154100000Y-115530000D02*
X155430000Y-114200000D01*
X155430000Y-114200000D02*
X157050000Y-114200000D01*
D22*
G04 #@! TO.N,Net-(C2-Pad1)*
X164250000Y-114200000D02*
X161850000Y-114200000D01*
X162050000Y-114000000D02*
X161850000Y-114200000D01*
X162050000Y-112000000D02*
X162050000Y-114000000D01*
G04 #@! TO.N,Net-(Q1-Pad1)*
X162600000Y-108800000D02*
X162600000Y-107200000D01*
X162600000Y-107200000D02*
X162200000Y-106800000D01*
X162200000Y-106800000D02*
X152000000Y-106800000D01*
X151600000Y-107200000D02*
X151600000Y-108800000D01*
X152000000Y-106800000D02*
X151600000Y-107200000D01*
D21*
X154100000Y-116800000D02*
X151800000Y-116800000D01*
X150800000Y-115800000D02*
X150800000Y-113000000D01*
X151800000Y-116800000D02*
X150800000Y-115800000D01*
D22*
X150800000Y-109600000D02*
X151600000Y-108800000D01*
X150800000Y-113000000D02*
X150800000Y-109600000D01*
D21*
G04 #@! TO.N,Net-(D3-Pad2)*
X131200000Y-85900000D02*
X131200000Y-87800000D01*
X123800000Y-85950000D02*
X123700000Y-85850000D01*
X123800000Y-87800000D02*
X123800000Y-85950000D01*
X124650000Y-90565000D02*
X123800000Y-89715000D01*
X123800000Y-89715000D02*
X123800000Y-87800000D01*
D22*
G04 #@! TO.N,Net-(D3-Pad1)*
X126150000Y-83050000D02*
X123700000Y-83050000D01*
X123700000Y-83050000D02*
X119100000Y-83050000D01*
G04 #@! TO.N,Net-(D4-Pad1)*
X128700000Y-85850000D02*
X126150000Y-85850000D01*
D21*
X124650000Y-91835000D02*
X126965000Y-91835000D01*
X128700000Y-90100000D02*
X128700000Y-85850000D01*
X126965000Y-91835000D02*
X128700000Y-90100000D01*
D23*
G04 #@! TO.N,Net-(F1-Pad1)*
X174602300Y-89202300D02*
X164600000Y-79200000D01*
X175000000Y-89202300D02*
X174602300Y-89202300D01*
X164600000Y-79200000D02*
X159600000Y-79200000D01*
D22*
G04 #@! TO.N,Net-(R8-Pad2)*
X116300000Y-83050000D02*
X113950000Y-83050000D01*
G04 #@! TO.N,Net-(C3-Pad2)*
X162000000Y-132400000D02*
X159600000Y-132400000D01*
X159600000Y-132400000D02*
X157200000Y-132400000D01*
X157200000Y-132400000D02*
X158000000Y-132400000D01*
X157200000Y-132400000D02*
X158600000Y-132400000D01*
X158600000Y-132400000D02*
X159400000Y-133200000D01*
X159400000Y-133200000D02*
X159400000Y-134000000D01*
X159400000Y-134000000D02*
X159400000Y-134400000D01*
X167480000Y-124000000D02*
X167480000Y-121480000D01*
X167480000Y-121480000D02*
X166600000Y-120600000D01*
X157760000Y-120600000D02*
X156680000Y-119520000D01*
X166600000Y-120600000D02*
X157760000Y-120600000D01*
X156680000Y-125120000D02*
X153600000Y-128200000D01*
X156680000Y-124000000D02*
X156680000Y-125120000D01*
G04 #@! TO.N,Net-(C3-Pad1)*
X159600000Y-127200000D02*
X159600000Y-129600000D01*
X159600000Y-129600000D02*
X157200000Y-129600000D01*
D21*
X154250000Y-132165000D02*
X154250000Y-131350000D01*
X156000000Y-129600000D02*
X157200000Y-129600000D01*
X154250000Y-131350000D02*
X156000000Y-129600000D01*
D22*
G04 #@! TO.N,Net-(C4-Pad1)*
X164400000Y-129600000D02*
X162000000Y-129600000D01*
X162400000Y-129200000D02*
X162000000Y-129600000D01*
X162400000Y-127200000D02*
X162400000Y-129200000D01*
G04 #@! TO.N,Net-(D8-Pad2)*
X166800000Y-132400000D02*
X164400000Y-132400000D01*
G04 #@! TO.N,Net-(Q3-Pad1)*
X162400000Y-124000000D02*
X162400000Y-122400000D01*
X162400000Y-122400000D02*
X161800000Y-121800000D01*
X161800000Y-121800000D02*
X152200000Y-121800000D01*
X151600000Y-122400000D02*
X151600000Y-124000000D01*
X152200000Y-121800000D02*
X151600000Y-122400000D01*
D21*
X154250000Y-133435000D02*
X152435000Y-133435000D01*
X150800000Y-131800000D02*
X150800000Y-128200000D01*
X152435000Y-133435000D02*
X150800000Y-131800000D01*
D22*
X150800000Y-124800000D02*
X151600000Y-124000000D01*
X150800000Y-128200000D02*
X150800000Y-124800000D01*
G04 #@! TO.N,Net-(R12-Pad1)*
X169200000Y-129600000D02*
X166800000Y-129600000D01*
G04 #@! TO.N,Net-(C5-Pad2)*
X162200000Y-148000000D02*
X159800000Y-148000000D01*
X159800000Y-148000000D02*
X157400000Y-148000000D01*
X167480000Y-139600000D02*
X167480000Y-138280000D01*
X167480000Y-138280000D02*
X165000000Y-135800000D01*
X157360000Y-135800000D02*
X156680000Y-135120000D01*
X165000000Y-135800000D02*
X157360000Y-135800000D01*
X157400000Y-148000000D02*
X159200000Y-148000000D01*
X159200000Y-148000000D02*
X159800000Y-148600000D01*
X159800000Y-148600000D02*
X159800000Y-149600000D01*
X159800000Y-149600000D02*
X159800000Y-150000000D01*
X156680000Y-140520000D02*
X153400000Y-143800000D01*
X156680000Y-139600000D02*
X156680000Y-140520000D01*
G04 #@! TO.N,Net-(C5-Pad1)*
X159800000Y-145200000D02*
X157400000Y-145200000D01*
X159600000Y-145000000D02*
X159800000Y-145200000D01*
X159600000Y-142800000D02*
X159600000Y-145000000D01*
D21*
X154450000Y-146565000D02*
X155835000Y-146565000D01*
X157200000Y-145200000D02*
X157400000Y-145200000D01*
X155835000Y-146565000D02*
X157200000Y-145200000D01*
D22*
G04 #@! TO.N,Net-(C6-Pad1)*
X164600000Y-145200000D02*
X162200000Y-145200000D01*
X162400000Y-145000000D02*
X162200000Y-145200000D01*
X162400000Y-142800000D02*
X162400000Y-145000000D01*
G04 #@! TO.N,Net-(D10-Pad2)*
X167000000Y-148000000D02*
X164600000Y-148000000D01*
G04 #@! TO.N,Net-(Q5-Pad1)*
X162400000Y-139600000D02*
X162400000Y-138600000D01*
X162400000Y-138600000D02*
X161400000Y-137600000D01*
X161400000Y-137600000D02*
X152400000Y-137600000D01*
X151600000Y-138400000D02*
X151600000Y-139600000D01*
X152400000Y-137600000D02*
X151600000Y-138400000D01*
D21*
X154450000Y-147835000D02*
X152235000Y-147835000D01*
X150600000Y-146200000D02*
X150600000Y-143800000D01*
X152235000Y-147835000D02*
X150600000Y-146200000D01*
D22*
X150600000Y-140600000D02*
X151600000Y-139600000D01*
X150600000Y-143800000D02*
X150600000Y-140600000D01*
G04 #@! TO.N,Net-(R16-Pad1)*
X169400000Y-145200000D02*
X167000000Y-145200000D01*
D21*
G04 #@! TO.N,Net-(M1-Pad25)*
X132440000Y-112670000D02*
X128530000Y-112670000D01*
X127600000Y-113600000D02*
X127600000Y-115400000D01*
X128530000Y-112670000D02*
X127600000Y-113600000D01*
G04 #@! TO.N,ZC*
X132440000Y-120290000D02*
X128290000Y-120290000D01*
X127600000Y-119600000D02*
X127600000Y-118200000D01*
X128290000Y-120290000D02*
X127600000Y-119600000D01*
D22*
X127600000Y-118200000D02*
X126000000Y-118200000D01*
X126000000Y-118200000D02*
X124600000Y-116800000D01*
X124600000Y-116800000D02*
X124600000Y-99400000D01*
X124600000Y-99400000D02*
X119800000Y-94600000D01*
D21*
X118150000Y-92950000D02*
X118150000Y-91835000D01*
X119800000Y-94600000D02*
X118150000Y-92950000D01*
D22*
G04 #@! TO.N,ACN*
X131300000Y-83000000D02*
X131200000Y-83100000D01*
X135000000Y-83000000D02*
X131300000Y-83000000D01*
X128750000Y-83100000D02*
X128700000Y-83050000D01*
X131200000Y-83100000D02*
X128750000Y-83100000D01*
D23*
X168702420Y-92702420D02*
X167600000Y-91600000D01*
X175000000Y-92702420D02*
X168702420Y-92702420D01*
G04 #@! TO.N,ACL*
X149600000Y-79200000D02*
X144600000Y-79200000D01*
X144600000Y-79200000D02*
X117400000Y-79200000D01*
D22*
X117400000Y-79200000D02*
X112000000Y-79200000D01*
X111150000Y-80050000D02*
X111150000Y-83050000D01*
X112000000Y-79200000D02*
X111150000Y-80050000D01*
D23*
X175000000Y-136402300D02*
X176597700Y-136402300D01*
X176597700Y-136402300D02*
X178200000Y-134800000D01*
X178200000Y-134800000D02*
X178200000Y-122200000D01*
X176802300Y-120802300D02*
X175000000Y-120802300D01*
X178200000Y-122200000D02*
X176802300Y-120802300D01*
X167600000Y-96600000D02*
X167600000Y-99002300D01*
D22*
X171197700Y-117000000D02*
X175000000Y-120802300D01*
X169150000Y-117000000D02*
X171197700Y-117000000D01*
X169200000Y-132400000D02*
X170997700Y-132400000D01*
D23*
X175802300Y-105202300D02*
X175000000Y-105202300D01*
X178200000Y-107600000D02*
X175802300Y-105202300D01*
X178200000Y-119400000D02*
X178200000Y-107600000D01*
X175000000Y-120802300D02*
X176797700Y-120802300D01*
X176797700Y-120802300D02*
X178200000Y-119400000D01*
X175000000Y-105202300D02*
X172602300Y-105202300D01*
X167600000Y-100200000D02*
X167600000Y-99002300D01*
X172602300Y-105202300D02*
X167600000Y-100200000D01*
X167600000Y-96600000D02*
X155800000Y-96600000D01*
X149600000Y-90400000D02*
X149600000Y-79200000D01*
X155800000Y-96600000D02*
X149600000Y-90400000D01*
D22*
X169400000Y-148000000D02*
X172200000Y-148000000D01*
X172200000Y-133602300D02*
X171998850Y-133401150D01*
X170997700Y-132400000D02*
X171998850Y-133401150D01*
X172200000Y-148000000D02*
X172200000Y-133602300D01*
X171998850Y-133401150D02*
X175000000Y-136402300D01*
D20*
G04 #@! TO.N,SW9*
X139800000Y-143000000D02*
X130600000Y-143000000D01*
X130600000Y-143000000D02*
X121000000Y-133400000D01*
X121000000Y-133400000D02*
X121000000Y-113400000D01*
X117730000Y-110130000D02*
X109580000Y-110130000D01*
X121000000Y-113400000D02*
X117730000Y-110130000D01*
G04 #@! TO.N,SW8*
X139800000Y-140500000D02*
X132300000Y-140500000D01*
X132300000Y-140500000D02*
X122800000Y-131000000D01*
X122800000Y-131000000D02*
X122800000Y-110600000D01*
X119790000Y-107590000D02*
X109580000Y-107590000D01*
X122800000Y-110600000D02*
X119790000Y-107590000D01*
G04 #@! TD*
M02*
