M48
; DRILL file {KiCad (5.1.6)-1} date 03/10/21 15:07:44
; FORMAT={-:-/ absolute / metric / decimal}
; #@! TF.CreationDate,2021-03-10T15:07:44+06:00
; #@! TF.GenerationSoftware,Kicad,Pcbnew,(5.1.6)-1
FMAT,2
METRIC
T1C0.800
T2C0.950
T3C0.998
T4C1.000
T5C1.100
T6C1.199
T7C1.350
%
G90
G05
T1
X123.8Y-87.8
X131.2Y-87.8
X135.0Y-83.0
X143.0Y-119.8
X143.0Y-136.0
X144.8Y-114.8
X147.4Y-136.0
X147.8Y-119.8
X156.68Y-104.52
X156.68Y-119.52
X156.68Y-135.12
X159.4Y-134.4
X159.8Y-150.0
X160.0Y-118.8
X172.2Y-148.0
T2
X139.8Y-123.0
X139.8Y-125.5
X139.8Y-128.0
X139.8Y-130.5
X139.8Y-133.0
X139.8Y-135.5
X139.8Y-138.0
X139.8Y-140.5
X139.8Y-143.0
X139.8Y-145.5
T3
X109.58Y-99.97
X109.58Y-102.51
X109.58Y-105.05
X109.58Y-107.59
X109.58Y-110.13
X109.58Y-112.67
X109.58Y-115.21
X109.58Y-117.75
X109.58Y-120.29
X109.58Y-122.83
X109.58Y-125.37
X109.58Y-127.91
X109.58Y-130.45
X109.58Y-132.99
X109.58Y-135.53
X132.44Y-99.97
X132.44Y-102.51
X132.44Y-105.05
X132.44Y-107.59
X132.44Y-110.13
X132.44Y-112.67
X132.44Y-115.21
X132.44Y-117.75
X132.44Y-120.29
X132.44Y-122.83
X132.44Y-125.37
X132.44Y-127.91
X132.44Y-130.45
X132.44Y-132.99
X132.44Y-135.53
T4
X138.2Y-86.4
X138.2Y-101.8
X167.6Y-91.6
X167.6Y-96.6
T5
X162.4Y-139.6
X164.94Y-139.6
X167.48Y-139.6
X162.6Y-108.8
X165.14Y-108.8
X167.68Y-108.8
X162.4Y-124.0
X164.94Y-124.0
X167.48Y-124.0
X151.6Y-139.6
X154.14Y-139.6
X156.68Y-139.6
X151.6Y-108.8
X154.14Y-108.8
X156.68Y-108.8
X151.6Y-124.0
X154.14Y-124.0
X156.68Y-124.0
T6
X175.0Y-136.402
X175.0Y-139.902
X175.0Y-143.4
X175.0Y-120.802
X175.0Y-124.302
X175.0Y-127.8
X175.0Y-105.202
X175.0Y-108.702
X175.0Y-112.2
X175.0Y-89.202
X175.0Y-92.702
X175.0Y-96.2
T7
X144.6Y-79.2
X149.6Y-79.2
X159.6Y-79.2
X164.6Y-79.2
T0
M30
