G04 #@! TF.GenerationSoftware,KiCad,Pcbnew,(5.1.6)-1*
G04 #@! TF.CreationDate,2021-03-10T15:07:37+06:00*
G04 #@! TF.ProjectId,nodemcu01,6e6f6465-6d63-4753-9031-2e6b69636164,rev?*
G04 #@! TF.SameCoordinates,Original*
G04 #@! TF.FileFunction,Legend,Top*
G04 #@! TF.FilePolarity,Positive*
%FSLAX46Y46*%
G04 Gerber Fmt 4.6, Leading zero omitted, Abs format (unit mm)*
G04 Created by KiCad (PCBNEW (5.1.6)-1) date 2021-03-10 15:07:37*
%MOMM*%
%LPD*%
G01*
G04 APERTURE LIST*
%ADD10C,0.120000*%
%ADD11C,0.203200*%
%ADD12C,0.127000*%
%ADD13C,0.150000*%
%ADD14C,0.101600*%
G04 APERTURE END LIST*
D10*
G04 #@! TO.C,J5*
X142550000Y-120150000D02*
X141300000Y-120150000D01*
X142550000Y-121400000D02*
X142550000Y-120150000D01*
X137050000Y-147300000D02*
X137050000Y-134250000D01*
X140000000Y-147300000D02*
X137050000Y-147300000D01*
X140000000Y-148050000D02*
X140000000Y-147300000D01*
X137050000Y-121200000D02*
X137050000Y-134250000D01*
X140000000Y-121200000D02*
X137050000Y-121200000D01*
X140000000Y-120450000D02*
X140000000Y-121200000D01*
X142250000Y-148050000D02*
X142250000Y-146250000D01*
X141500000Y-148050000D02*
X142250000Y-148050000D01*
X141500000Y-146250000D02*
X141500000Y-148050000D01*
X142250000Y-146250000D02*
X141500000Y-146250000D01*
X142250000Y-122250000D02*
X142250000Y-120450000D01*
X141500000Y-122250000D02*
X142250000Y-122250000D01*
X141500000Y-120450000D02*
X141500000Y-122250000D01*
X142250000Y-120450000D02*
X141500000Y-120450000D01*
X142250000Y-144750000D02*
X142250000Y-123750000D01*
X141500000Y-144750000D02*
X142250000Y-144750000D01*
X141500000Y-123750000D02*
X141500000Y-144750000D01*
X142250000Y-123750000D02*
X141500000Y-123750000D01*
X142260000Y-148060000D02*
X142260000Y-120440000D01*
X136290000Y-148060000D02*
X142260000Y-148060000D01*
X136290000Y-120440000D02*
X136290000Y-148060000D01*
X142260000Y-120440000D02*
X136290000Y-120440000D01*
G04 #@! TO.C,U3*
X121400000Y-89790000D02*
X119015000Y-89790000D01*
X119015000Y-89790000D02*
X119015000Y-90030000D01*
X121400000Y-89790000D02*
X123785000Y-89790000D01*
X123785000Y-89790000D02*
X123785000Y-90030000D01*
X121400000Y-92610000D02*
X119015000Y-92610000D01*
X119015000Y-92610000D02*
X119015000Y-92370000D01*
X121400000Y-92610000D02*
X123785000Y-92610000D01*
X123785000Y-92610000D02*
X123785000Y-92370000D01*
X123785000Y-92370000D02*
X125450000Y-92370000D01*
G04 #@! TO.C,U2*
X151200000Y-148610000D02*
X153585000Y-148610000D01*
X153585000Y-148610000D02*
X153585000Y-148370000D01*
X151200000Y-148610000D02*
X148815000Y-148610000D01*
X148815000Y-148610000D02*
X148815000Y-148370000D01*
X151200000Y-145790000D02*
X153585000Y-145790000D01*
X153585000Y-145790000D02*
X153585000Y-146030000D01*
X151200000Y-145790000D02*
X148815000Y-145790000D01*
X148815000Y-145790000D02*
X148815000Y-146030000D01*
X148815000Y-146030000D02*
X147150000Y-146030000D01*
G04 #@! TO.C,U1*
X151000000Y-134210000D02*
X153385000Y-134210000D01*
X153385000Y-134210000D02*
X153385000Y-133970000D01*
X151000000Y-134210000D02*
X148615000Y-134210000D01*
X148615000Y-134210000D02*
X148615000Y-133970000D01*
X151000000Y-131390000D02*
X153385000Y-131390000D01*
X153385000Y-131390000D02*
X153385000Y-131630000D01*
X151000000Y-131390000D02*
X148615000Y-131390000D01*
X148615000Y-131390000D02*
X148615000Y-131630000D01*
X148615000Y-131630000D02*
X146950000Y-131630000D01*
G04 #@! TO.C,U5*
X150850000Y-117575000D02*
X153235000Y-117575000D01*
X153235000Y-117575000D02*
X153235000Y-117335000D01*
X150850000Y-117575000D02*
X148465000Y-117575000D01*
X148465000Y-117575000D02*
X148465000Y-117335000D01*
X150850000Y-114755000D02*
X153235000Y-114755000D01*
X153235000Y-114755000D02*
X153235000Y-114995000D01*
X150850000Y-114755000D02*
X148465000Y-114755000D01*
X148465000Y-114755000D02*
X148465000Y-114995000D01*
X148465000Y-114995000D02*
X146800000Y-114995000D01*
G04 #@! TO.C,R3*
X147090000Y-143721078D02*
X147090000Y-143203922D01*
X148510000Y-143721078D02*
X148510000Y-143203922D01*
G04 #@! TO.C,R2*
X147090000Y-129121078D02*
X147090000Y-128603922D01*
X148510000Y-129121078D02*
X148510000Y-128603922D01*
G04 #@! TO.C,R1*
X146890000Y-112921078D02*
X146890000Y-112403922D01*
X148310000Y-112921078D02*
X148310000Y-112403922D01*
G04 #@! TO.C,F1*
X151350000Y-79200000D02*
X157850000Y-79200000D01*
X151350000Y-82700000D02*
X151350000Y-75700000D01*
X142600000Y-75700000D02*
X151350000Y-75700000D01*
X142600000Y-82700000D02*
X151350000Y-82700000D01*
X165350000Y-76700000D02*
X166600000Y-76700000D01*
X165100000Y-81700000D02*
X166600000Y-81700000D01*
X153100000Y-76700000D02*
X165350000Y-76700000D01*
X153350000Y-81700000D02*
X165100000Y-81700000D01*
X142600000Y-76700000D02*
X153100000Y-76700000D01*
X142600000Y-81700000D02*
X153350000Y-81700000D01*
X142600000Y-81700000D02*
X142600000Y-76700000D01*
X141600000Y-82700000D02*
X142600000Y-82700000D01*
X141600000Y-82700000D02*
X141600000Y-75700000D01*
X141600000Y-75700000D02*
X142600000Y-75700000D01*
X166600000Y-81700000D02*
X166600000Y-76700000D01*
X157850000Y-82700000D02*
X167600000Y-82700000D01*
X167600000Y-82700000D02*
X167600000Y-75700000D01*
X157850000Y-75700000D02*
X167600000Y-75700000D01*
X157850000Y-82700000D02*
X157850000Y-75700000D01*
G04 #@! TO.C,R18*
X126690000Y-117402064D02*
X126690000Y-116197936D01*
X128510000Y-117402064D02*
X128510000Y-116197936D01*
G04 #@! TO.C,PS1*
X170390000Y-97600000D02*
X170390000Y-95590000D01*
X135800000Y-104200000D02*
X170000000Y-104200000D01*
X135800000Y-84000000D02*
X135800000Y-104200000D01*
X170000000Y-84000000D02*
X135800000Y-84000000D01*
X170000000Y-104200000D02*
X170000000Y-84000000D01*
G04 #@! TO.C,R17*
X168490000Y-145997936D02*
X168490000Y-147202064D01*
X170310000Y-145997936D02*
X170310000Y-147202064D01*
G04 #@! TO.C,R16*
X166090000Y-145997936D02*
X166090000Y-147202064D01*
X167910000Y-145997936D02*
X167910000Y-147202064D01*
G04 #@! TO.C,R15*
X160397936Y-143710000D02*
X161602064Y-143710000D01*
X160397936Y-141890000D02*
X161602064Y-141890000D01*
G04 #@! TO.C,R14*
X151397936Y-144710000D02*
X152602064Y-144710000D01*
X151397936Y-142890000D02*
X152602064Y-142890000D01*
G04 #@! TO.C,Q6*
X155991000Y-136330000D02*
X155991000Y-137840000D01*
X152290000Y-136330000D02*
X152290000Y-137840000D01*
X149020000Y-137840000D02*
X159260000Y-137840000D01*
X159260000Y-136330000D02*
X159260000Y-140971000D01*
X149020000Y-136330000D02*
X149020000Y-140971000D01*
X149020000Y-140971000D02*
X159260000Y-140971000D01*
X149020000Y-136330000D02*
X159260000Y-136330000D01*
G04 #@! TO.C,Q5*
X166791000Y-136330000D02*
X166791000Y-137840000D01*
X163090000Y-136330000D02*
X163090000Y-137840000D01*
X159820000Y-137840000D02*
X170060000Y-137840000D01*
X170060000Y-136330000D02*
X170060000Y-140971000D01*
X159820000Y-136330000D02*
X159820000Y-140971000D01*
X159820000Y-140971000D02*
X170060000Y-140971000D01*
X159820000Y-136330000D02*
X170060000Y-136330000D01*
D11*
G04 #@! TO.C,J4*
X177799080Y-134652240D02*
X177799080Y-145147520D01*
X177799080Y-145147520D02*
X171601480Y-145147520D01*
X178599180Y-145147520D02*
X177799080Y-145147520D01*
X178599180Y-134652240D02*
X178599180Y-145147520D01*
X177799080Y-134652240D02*
X178599180Y-134652240D01*
X171601480Y-134652240D02*
X177799080Y-134652240D01*
X171601480Y-145147520D02*
X171601480Y-134652240D01*
D10*
G04 #@! TO.C,D10*
X163465000Y-144315000D02*
X163465000Y-148200000D01*
X165735000Y-144315000D02*
X163465000Y-144315000D01*
X165735000Y-148200000D02*
X165735000Y-144315000D01*
G04 #@! TO.C,D9*
X156265000Y-144315000D02*
X156265000Y-148200000D01*
X158535000Y-144315000D02*
X156265000Y-144315000D01*
X158535000Y-148200000D02*
X158535000Y-144315000D01*
G04 #@! TO.C,C6*
X161290000Y-145997936D02*
X161290000Y-147202064D01*
X163110000Y-145997936D02*
X163110000Y-147202064D01*
G04 #@! TO.C,C5*
X158890000Y-145997936D02*
X158890000Y-147202064D01*
X160710000Y-145997936D02*
X160710000Y-147202064D01*
G04 #@! TO.C,R13*
X170110000Y-130397936D02*
X170110000Y-131602064D01*
X168290000Y-130397936D02*
X168290000Y-131602064D01*
G04 #@! TO.C,R12*
X167710000Y-130397936D02*
X167710000Y-131602064D01*
X165890000Y-130397936D02*
X165890000Y-131602064D01*
G04 #@! TO.C,R11*
X160397936Y-126290000D02*
X161602064Y-126290000D01*
X160397936Y-128110000D02*
X161602064Y-128110000D01*
G04 #@! TO.C,R10*
X151597936Y-127290000D02*
X152802064Y-127290000D01*
X151597936Y-129110000D02*
X152802064Y-129110000D01*
G04 #@! TO.C,Q4*
X149020000Y-120730000D02*
X159260000Y-120730000D01*
X149020000Y-125371000D02*
X159260000Y-125371000D01*
X149020000Y-120730000D02*
X149020000Y-125371000D01*
X159260000Y-120730000D02*
X159260000Y-125371000D01*
X149020000Y-122240000D02*
X159260000Y-122240000D01*
X152290000Y-120730000D02*
X152290000Y-122240000D01*
X155991000Y-120730000D02*
X155991000Y-122240000D01*
G04 #@! TO.C,Q3*
X159820000Y-120730000D02*
X170060000Y-120730000D01*
X159820000Y-125371000D02*
X170060000Y-125371000D01*
X159820000Y-120730000D02*
X159820000Y-125371000D01*
X170060000Y-120730000D02*
X170060000Y-125371000D01*
X159820000Y-122240000D02*
X170060000Y-122240000D01*
X163090000Y-120730000D02*
X163090000Y-122240000D01*
X166791000Y-120730000D02*
X166791000Y-122240000D01*
D11*
G04 #@! TO.C,J3*
X171601480Y-129547520D02*
X171601480Y-119052240D01*
X171601480Y-119052240D02*
X177799080Y-119052240D01*
X177799080Y-119052240D02*
X178599180Y-119052240D01*
X178599180Y-119052240D02*
X178599180Y-129547520D01*
X178599180Y-129547520D02*
X177799080Y-129547520D01*
X177799080Y-129547520D02*
X171601480Y-129547520D01*
X177799080Y-119052240D02*
X177799080Y-129547520D01*
D10*
G04 #@! TO.C,D8*
X165535000Y-132600000D02*
X165535000Y-128715000D01*
X165535000Y-128715000D02*
X163265000Y-128715000D01*
X163265000Y-128715000D02*
X163265000Y-132600000D01*
G04 #@! TO.C,D7*
X158335000Y-132600000D02*
X158335000Y-128715000D01*
X158335000Y-128715000D02*
X156065000Y-128715000D01*
X156065000Y-128715000D02*
X156065000Y-132600000D01*
G04 #@! TO.C,C4*
X162910000Y-130397936D02*
X162910000Y-131602064D01*
X161090000Y-130397936D02*
X161090000Y-131602064D01*
G04 #@! TO.C,C3*
X160510000Y-130397936D02*
X160510000Y-131602064D01*
X158690000Y-130397936D02*
X158690000Y-131602064D01*
G04 #@! TO.C,R9*
X113152064Y-83960000D02*
X111947936Y-83960000D01*
X113152064Y-82140000D02*
X111947936Y-82140000D01*
G04 #@! TO.C,R8*
X118302064Y-83960000D02*
X117097936Y-83960000D01*
X118302064Y-82140000D02*
X117097936Y-82140000D01*
D11*
G04 #@! TO.C,J2*
X171601480Y-97947520D02*
X171601480Y-87452240D01*
X171601480Y-87452240D02*
X177799080Y-87452240D01*
X177799080Y-87452240D02*
X178599180Y-87452240D01*
X178599180Y-87452240D02*
X178599180Y-97947520D01*
X178599180Y-97947520D02*
X177799080Y-97947520D01*
X177799080Y-97947520D02*
X171601480Y-97947520D01*
X177799080Y-87452240D02*
X177799080Y-97947520D01*
D10*
G04 #@! TO.C,D6*
X132335000Y-86100000D02*
X132335000Y-82215000D01*
X132335000Y-82215000D02*
X130065000Y-82215000D01*
X130065000Y-82215000D02*
X130065000Y-86100000D01*
G04 #@! TO.C,D5*
X127565000Y-82850000D02*
X127565000Y-86735000D01*
X127565000Y-86735000D02*
X129835000Y-86735000D01*
X129835000Y-86735000D02*
X129835000Y-82850000D01*
G04 #@! TO.C,D4*
X125015000Y-82850000D02*
X125015000Y-86735000D01*
X125015000Y-86735000D02*
X127285000Y-86735000D01*
X127285000Y-86735000D02*
X127285000Y-82850000D01*
G04 #@! TO.C,D3*
X124835000Y-86050000D02*
X124835000Y-82165000D01*
X124835000Y-82165000D02*
X122565000Y-82165000D01*
X122565000Y-82165000D02*
X122565000Y-86050000D01*
G04 #@! TO.C,R7*
X151597936Y-113910000D02*
X152802064Y-113910000D01*
X151597936Y-112090000D02*
X152802064Y-112090000D01*
G04 #@! TO.C,Q2*
X155991000Y-105530000D02*
X155991000Y-107040000D01*
X152290000Y-105530000D02*
X152290000Y-107040000D01*
X149020000Y-107040000D02*
X159260000Y-107040000D01*
X159260000Y-105530000D02*
X159260000Y-110171000D01*
X149020000Y-105530000D02*
X149020000Y-110171000D01*
X149020000Y-110171000D02*
X159260000Y-110171000D01*
X149020000Y-105530000D02*
X159260000Y-105530000D01*
G04 #@! TO.C,Q1*
X166991000Y-105530000D02*
X166991000Y-107040000D01*
X163290000Y-105530000D02*
X163290000Y-107040000D01*
X160020000Y-107040000D02*
X170260000Y-107040000D01*
X170260000Y-105530000D02*
X170260000Y-110171000D01*
X160020000Y-105530000D02*
X160020000Y-110171000D01*
X160020000Y-110171000D02*
X170260000Y-110171000D01*
X160020000Y-105530000D02*
X170260000Y-105530000D01*
G04 #@! TO.C,D2*
X155915000Y-113315000D02*
X155915000Y-117200000D01*
X158185000Y-113315000D02*
X155915000Y-113315000D01*
X158185000Y-117200000D02*
X158185000Y-113315000D01*
G04 #@! TO.C,C2*
X162760000Y-114997936D02*
X162760000Y-116202064D01*
X160940000Y-114997936D02*
X160940000Y-116202064D01*
G04 #@! TO.C,C1*
X160410000Y-114997936D02*
X160410000Y-116202064D01*
X158590000Y-114997936D02*
X158590000Y-116202064D01*
G04 #@! TO.C,R6*
X160047936Y-111090000D02*
X161252064Y-111090000D01*
X160047936Y-112910000D02*
X161252064Y-112910000D01*
G04 #@! TO.C,R5*
X170060000Y-114997936D02*
X170060000Y-116202064D01*
X168240000Y-114997936D02*
X168240000Y-116202064D01*
G04 #@! TO.C,R4*
X167610000Y-114997936D02*
X167610000Y-116202064D01*
X165790000Y-114997936D02*
X165790000Y-116202064D01*
G04 #@! TO.C,D1*
X165385000Y-117200000D02*
X165385000Y-113315000D01*
X165385000Y-113315000D02*
X163115000Y-113315000D01*
X163115000Y-113315000D02*
X163115000Y-117200000D01*
D11*
G04 #@! TO.C,J1*
X177799080Y-103452240D02*
X177799080Y-113947520D01*
X177799080Y-113947520D02*
X171601480Y-113947520D01*
X178599180Y-113947520D02*
X177799080Y-113947520D01*
X178599180Y-103452240D02*
X178599180Y-113947520D01*
X177799080Y-103452240D02*
X178599180Y-103452240D01*
X171601480Y-103452240D02*
X177799080Y-103452240D01*
X171601480Y-113947520D02*
X171601480Y-103452240D01*
D12*
G04 #@! TO.C,M1*
X107992500Y-89175000D02*
X114660000Y-89175000D01*
X114660000Y-89175000D02*
X114660000Y-88222500D01*
X114660000Y-88222500D02*
X128630000Y-88222500D01*
X128630000Y-88222500D02*
X128630000Y-89175000D01*
X128630000Y-89175000D02*
X134027500Y-89175000D01*
X134027500Y-89175000D02*
X134027500Y-146642500D01*
X134027500Y-146642500D02*
X124820000Y-146642500D01*
X124820000Y-146642500D02*
X124820000Y-149182500D01*
X117517500Y-149182500D02*
X117517500Y-146642500D01*
X117517500Y-146642500D02*
X107992500Y-146642500D01*
X107992500Y-146642500D02*
X107992500Y-89175000D01*
X114660000Y-111400000D02*
X127360000Y-111400000D01*
X127360000Y-97430000D02*
X114660000Y-97430000D01*
X114660000Y-97430000D02*
X114660000Y-111400000D01*
X125137500Y-96160000D02*
X116565000Y-96160000D01*
X116565000Y-96160000D02*
X116565000Y-88857500D01*
X116565000Y-88857500D02*
X118470000Y-88857500D01*
X118470000Y-88857500D02*
X118470000Y-93302500D01*
X118470000Y-93302500D02*
X119105000Y-93302500D01*
X119105000Y-93302500D02*
X119105000Y-88857500D01*
X119105000Y-88857500D02*
X121010000Y-88857500D01*
X121010000Y-88857500D02*
X121010000Y-93302500D01*
X121010000Y-93302500D02*
X121645000Y-93302500D01*
X121645000Y-93302500D02*
X121645000Y-88857500D01*
X121645000Y-88857500D02*
X123550000Y-88857500D01*
X123550000Y-88857500D02*
X123550000Y-93302500D01*
X123550000Y-93302500D02*
X124185000Y-93302500D01*
X124185000Y-93302500D02*
X124185000Y-88857500D01*
X124185000Y-88857500D02*
X127995000Y-88857500D01*
X127995000Y-88857500D02*
X127995000Y-89492500D01*
X127995000Y-89492500D02*
X124820000Y-89492500D01*
X124820000Y-89492500D02*
X124820000Y-93937500D01*
X124820000Y-93937500D02*
X122915000Y-93937500D01*
X122915000Y-93937500D02*
X122915000Y-89492500D01*
X122915000Y-89492500D02*
X122280000Y-89492500D01*
X122280000Y-89492500D02*
X122280000Y-93937500D01*
X122280000Y-93937500D02*
X120375000Y-93937500D01*
X120375000Y-93937500D02*
X120375000Y-89492500D01*
X120375000Y-89492500D02*
X119740000Y-89492500D01*
X119740000Y-89492500D02*
X119740000Y-93937500D01*
X119740000Y-93937500D02*
X117835000Y-93937500D01*
X117835000Y-93937500D02*
X117835000Y-89492500D01*
X117835000Y-89492500D02*
X117200000Y-89492500D01*
X117200000Y-89492500D02*
X117200000Y-95525000D01*
X117200000Y-95525000D02*
X125137500Y-95525000D01*
X125137500Y-95525000D02*
X125137500Y-96160000D01*
X127995000Y-96160000D02*
X129265000Y-96160000D01*
X129265000Y-96160000D02*
X129265000Y-95525000D01*
X129265000Y-95525000D02*
X127995000Y-95525000D01*
X127995000Y-95525000D02*
X127995000Y-96160000D01*
X112755000Y-145372500D02*
X112755000Y-140927500D01*
X112755000Y-140927500D02*
X115295000Y-140927500D01*
X115295000Y-140927500D02*
X115295000Y-145372500D01*
X115295000Y-145372500D02*
X112755000Y-145372500D01*
X117517500Y-149182500D02*
X124820000Y-149182500D01*
X117517500Y-146642500D02*
X117517500Y-144102500D01*
X117517500Y-144102500D02*
X124820000Y-144102500D01*
X124820000Y-144102500D02*
X124820000Y-146642500D01*
X115612500Y-135847500D02*
X115612500Y-132355000D01*
X115612500Y-132355000D02*
X123550000Y-132355000D01*
X123550000Y-132355000D02*
X123550000Y-135847500D01*
X123550000Y-135847500D02*
X115612500Y-135847500D01*
X115930000Y-132355000D02*
X115930000Y-130767500D01*
X115930000Y-130767500D02*
X116565000Y-130767500D01*
X116565000Y-130767500D02*
X116565000Y-132355000D01*
X116882500Y-132355000D02*
X116882500Y-130767500D01*
X116882500Y-130767500D02*
X117517500Y-130767500D01*
X117517500Y-130767500D02*
X117517500Y-132355000D01*
X117835000Y-132355000D02*
X117835000Y-130767500D01*
X117835000Y-130767500D02*
X118470000Y-130767500D01*
X118470000Y-130767500D02*
X118470000Y-132355000D01*
X118787500Y-132355000D02*
X118787500Y-130767500D01*
X118787500Y-130767500D02*
X119422500Y-130767500D01*
X119422500Y-130767500D02*
X119422500Y-132355000D01*
X119740000Y-132355000D02*
X119740000Y-130767500D01*
X119740000Y-130767500D02*
X120375000Y-130767500D01*
X120375000Y-130767500D02*
X120375000Y-132355000D01*
X120692500Y-132355000D02*
X120692500Y-130767500D01*
X120692500Y-130767500D02*
X121327500Y-130767500D01*
X121327500Y-130767500D02*
X121327500Y-132355000D01*
X121645000Y-132355000D02*
X121645000Y-130767500D01*
X121645000Y-130767500D02*
X122280000Y-130767500D01*
X122280000Y-130767500D02*
X122280000Y-132355000D01*
X122597500Y-132355000D02*
X122597500Y-130767500D01*
X122597500Y-130767500D02*
X123232500Y-130767500D01*
X123232500Y-130767500D02*
X123232500Y-132355000D01*
X123232500Y-135847500D02*
X123232500Y-137435000D01*
X123232500Y-137435000D02*
X122597500Y-137435000D01*
X122597500Y-137435000D02*
X122597500Y-135847500D01*
X122280000Y-135847500D02*
X122280000Y-137435000D01*
X122280000Y-137435000D02*
X121645000Y-137435000D01*
X121645000Y-137435000D02*
X121645000Y-135847500D01*
X121327500Y-135847500D02*
X121327500Y-137435000D01*
X121327500Y-137435000D02*
X120692500Y-137435000D01*
X120692500Y-137435000D02*
X120692500Y-135847500D01*
X120375000Y-135847500D02*
X120375000Y-137435000D01*
X120375000Y-137435000D02*
X119740000Y-137435000D01*
X119740000Y-137435000D02*
X119740000Y-135847500D01*
X119422500Y-135847500D02*
X119422500Y-137435000D01*
X119422500Y-137435000D02*
X118787500Y-137435000D01*
X118787500Y-137435000D02*
X118787500Y-135847500D01*
X118470000Y-135847500D02*
X118470000Y-137435000D01*
X118470000Y-137435000D02*
X117835000Y-137435000D01*
X117835000Y-137435000D02*
X117835000Y-135847500D01*
X117517500Y-135847500D02*
X117517500Y-137435000D01*
X117517500Y-137435000D02*
X116882500Y-137435000D01*
X116882500Y-137435000D02*
X116882500Y-135847500D01*
X116565000Y-135847500D02*
X116565000Y-137435000D01*
X116565000Y-137435000D02*
X115930000Y-137435000D01*
X115930000Y-137435000D02*
X115930000Y-135847500D01*
X118152500Y-120290000D02*
X118152500Y-123782500D01*
X118152500Y-123782500D02*
X120375000Y-123782500D01*
X120375000Y-123782500D02*
X120375000Y-120290000D01*
X120375000Y-120290000D02*
X118152500Y-120290000D01*
X121645000Y-121877500D02*
X121645000Y-124417500D01*
X121645000Y-124417500D02*
X122915000Y-124417500D01*
X122915000Y-124417500D02*
X122915000Y-121877500D01*
X122915000Y-121877500D02*
X121645000Y-121877500D01*
X118470000Y-123465000D02*
X120057500Y-123465000D01*
X121962500Y-124100000D02*
X122597500Y-124100000D01*
X127360000Y-97430000D02*
X127360000Y-111400000D01*
X112755000Y-143467500D02*
G75*
G03*
X112755000Y-143467500I-1587500J0D01*
G01*
X112755000Y-92350000D02*
G75*
G03*
X112755000Y-92350000I-1587500J0D01*
G01*
X114733660Y-143150000D02*
G75*
G03*
X114733660Y-143150000I-708660J0D01*
G01*
G04 #@! TO.C,J5*
D13*
X142802380Y-134583333D02*
X143516666Y-134583333D01*
X143659523Y-134630952D01*
X143754761Y-134726190D01*
X143802380Y-134869047D01*
X143802380Y-134964285D01*
X142802380Y-133630952D02*
X142802380Y-134107142D01*
X143278571Y-134154761D01*
X143230952Y-134107142D01*
X143183333Y-134011904D01*
X143183333Y-133773809D01*
X143230952Y-133678571D01*
X143278571Y-133630952D01*
X143373809Y-133583333D01*
X143611904Y-133583333D01*
X143707142Y-133630952D01*
X143754761Y-133678571D01*
X143802380Y-133773809D01*
X143802380Y-134011904D01*
X143754761Y-134107142D01*
X143707142Y-134154761D01*
G04 #@! TO.C,U3*
X120638095Y-92902380D02*
X120638095Y-93711904D01*
X120685714Y-93807142D01*
X120733333Y-93854761D01*
X120828571Y-93902380D01*
X121019047Y-93902380D01*
X121114285Y-93854761D01*
X121161904Y-93807142D01*
X121209523Y-93711904D01*
X121209523Y-92902380D01*
X121590476Y-92902380D02*
X122209523Y-92902380D01*
X121876190Y-93283333D01*
X122019047Y-93283333D01*
X122114285Y-93330952D01*
X122161904Y-93378571D01*
X122209523Y-93473809D01*
X122209523Y-93711904D01*
X122161904Y-93807142D01*
X122114285Y-93854761D01*
X122019047Y-93902380D01*
X121733333Y-93902380D01*
X121638095Y-93854761D01*
X121590476Y-93807142D01*
G04 #@! TO.C,U2*
X150742857Y-146871428D02*
X150742857Y-147357142D01*
X150771428Y-147414285D01*
X150800000Y-147442857D01*
X150857142Y-147471428D01*
X150971428Y-147471428D01*
X151028571Y-147442857D01*
X151057142Y-147414285D01*
X151085714Y-147357142D01*
X151085714Y-146871428D01*
X151342857Y-146928571D02*
X151371428Y-146900000D01*
X151428571Y-146871428D01*
X151571428Y-146871428D01*
X151628571Y-146900000D01*
X151657142Y-146928571D01*
X151685714Y-146985714D01*
X151685714Y-147042857D01*
X151657142Y-147128571D01*
X151314285Y-147471428D01*
X151685714Y-147471428D01*
G04 #@! TO.C,U1*
X150238095Y-130002380D02*
X150238095Y-130811904D01*
X150285714Y-130907142D01*
X150333333Y-130954761D01*
X150428571Y-131002380D01*
X150619047Y-131002380D01*
X150714285Y-130954761D01*
X150761904Y-130907142D01*
X150809523Y-130811904D01*
X150809523Y-130002380D01*
X151809523Y-131002380D02*
X151238095Y-131002380D01*
X151523809Y-131002380D02*
X151523809Y-130002380D01*
X151428571Y-130145238D01*
X151333333Y-130240476D01*
X151238095Y-130288095D01*
G04 #@! TO.C,U5*
X149988095Y-117952380D02*
X149988095Y-118761904D01*
X150035714Y-118857142D01*
X150083333Y-118904761D01*
X150178571Y-118952380D01*
X150369047Y-118952380D01*
X150464285Y-118904761D01*
X150511904Y-118857142D01*
X150559523Y-118761904D01*
X150559523Y-117952380D01*
X151511904Y-117952380D02*
X151035714Y-117952380D01*
X150988095Y-118428571D01*
X151035714Y-118380952D01*
X151130952Y-118333333D01*
X151369047Y-118333333D01*
X151464285Y-118380952D01*
X151511904Y-118428571D01*
X151559523Y-118523809D01*
X151559523Y-118761904D01*
X151511904Y-118857142D01*
X151464285Y-118904761D01*
X151369047Y-118952380D01*
X151130952Y-118952380D01*
X151035714Y-118904761D01*
X150988095Y-118857142D01*
G04 #@! TO.C,R3*
X146602380Y-143629166D02*
X146126190Y-143962500D01*
X146602380Y-144200595D02*
X145602380Y-144200595D01*
X145602380Y-143819642D01*
X145650000Y-143724404D01*
X145697619Y-143676785D01*
X145792857Y-143629166D01*
X145935714Y-143629166D01*
X146030952Y-143676785D01*
X146078571Y-143724404D01*
X146126190Y-143819642D01*
X146126190Y-144200595D01*
X145602380Y-143295833D02*
X145602380Y-142676785D01*
X145983333Y-143010119D01*
X145983333Y-142867261D01*
X146030952Y-142772023D01*
X146078571Y-142724404D01*
X146173809Y-142676785D01*
X146411904Y-142676785D01*
X146507142Y-142724404D01*
X146554761Y-142772023D01*
X146602380Y-142867261D01*
X146602380Y-143152976D01*
X146554761Y-143248214D01*
X146507142Y-143295833D01*
G04 #@! TO.C,R2*
X146602380Y-129029166D02*
X146126190Y-129362500D01*
X146602380Y-129600595D02*
X145602380Y-129600595D01*
X145602380Y-129219642D01*
X145650000Y-129124404D01*
X145697619Y-129076785D01*
X145792857Y-129029166D01*
X145935714Y-129029166D01*
X146030952Y-129076785D01*
X146078571Y-129124404D01*
X146126190Y-129219642D01*
X146126190Y-129600595D01*
X145697619Y-128648214D02*
X145650000Y-128600595D01*
X145602380Y-128505357D01*
X145602380Y-128267261D01*
X145650000Y-128172023D01*
X145697619Y-128124404D01*
X145792857Y-128076785D01*
X145888095Y-128076785D01*
X146030952Y-128124404D01*
X146602380Y-128695833D01*
X146602380Y-128076785D01*
G04 #@! TO.C,R1*
X146402380Y-112829166D02*
X145926190Y-113162500D01*
X146402380Y-113400595D02*
X145402380Y-113400595D01*
X145402380Y-113019642D01*
X145450000Y-112924404D01*
X145497619Y-112876785D01*
X145592857Y-112829166D01*
X145735714Y-112829166D01*
X145830952Y-112876785D01*
X145878571Y-112924404D01*
X145926190Y-113019642D01*
X145926190Y-113400595D01*
X146402380Y-111876785D02*
X146402380Y-112448214D01*
X146402380Y-112162500D02*
X145402380Y-112162500D01*
X145545238Y-112257738D01*
X145640476Y-112352976D01*
X145688095Y-112448214D01*
G04 #@! TO.C,F1*
X154266666Y-80528571D02*
X153933333Y-80528571D01*
X153933333Y-81052380D02*
X153933333Y-80052380D01*
X154409523Y-80052380D01*
X155314285Y-81052380D02*
X154742857Y-81052380D01*
X155028571Y-81052380D02*
X155028571Y-80052380D01*
X154933333Y-80195238D01*
X154838095Y-80290476D01*
X154742857Y-80338095D01*
G04 #@! TO.C,R18*
X126232380Y-117442857D02*
X125756190Y-117776190D01*
X126232380Y-118014285D02*
X125232380Y-118014285D01*
X125232380Y-117633333D01*
X125280000Y-117538095D01*
X125327619Y-117490476D01*
X125422857Y-117442857D01*
X125565714Y-117442857D01*
X125660952Y-117490476D01*
X125708571Y-117538095D01*
X125756190Y-117633333D01*
X125756190Y-118014285D01*
X126232380Y-116490476D02*
X126232380Y-117061904D01*
X126232380Y-116776190D02*
X125232380Y-116776190D01*
X125375238Y-116871428D01*
X125470476Y-116966666D01*
X125518095Y-117061904D01*
X125660952Y-115919047D02*
X125613333Y-116014285D01*
X125565714Y-116061904D01*
X125470476Y-116109523D01*
X125422857Y-116109523D01*
X125327619Y-116061904D01*
X125280000Y-116014285D01*
X125232380Y-115919047D01*
X125232380Y-115728571D01*
X125280000Y-115633333D01*
X125327619Y-115585714D01*
X125422857Y-115538095D01*
X125470476Y-115538095D01*
X125565714Y-115585714D01*
X125613333Y-115633333D01*
X125660952Y-115728571D01*
X125660952Y-115919047D01*
X125708571Y-116014285D01*
X125756190Y-116061904D01*
X125851428Y-116109523D01*
X126041904Y-116109523D01*
X126137142Y-116061904D01*
X126184761Y-116014285D01*
X126232380Y-115919047D01*
X126232380Y-115728571D01*
X126184761Y-115633333D01*
X126137142Y-115585714D01*
X126041904Y-115538095D01*
X125851428Y-115538095D01*
X125756190Y-115585714D01*
X125708571Y-115633333D01*
X125660952Y-115728571D01*
G04 #@! TO.C,PS1*
X165852380Y-101014285D02*
X164852380Y-101014285D01*
X164852380Y-100633333D01*
X164900000Y-100538095D01*
X164947619Y-100490476D01*
X165042857Y-100442857D01*
X165185714Y-100442857D01*
X165280952Y-100490476D01*
X165328571Y-100538095D01*
X165376190Y-100633333D01*
X165376190Y-101014285D01*
X165804761Y-100061904D02*
X165852380Y-99919047D01*
X165852380Y-99680952D01*
X165804761Y-99585714D01*
X165757142Y-99538095D01*
X165661904Y-99490476D01*
X165566666Y-99490476D01*
X165471428Y-99538095D01*
X165423809Y-99585714D01*
X165376190Y-99680952D01*
X165328571Y-99871428D01*
X165280952Y-99966666D01*
X165233333Y-100014285D01*
X165138095Y-100061904D01*
X165042857Y-100061904D01*
X164947619Y-100014285D01*
X164900000Y-99966666D01*
X164852380Y-99871428D01*
X164852380Y-99633333D01*
X164900000Y-99490476D01*
X165852380Y-98538095D02*
X165852380Y-99109523D01*
X165852380Y-98823809D02*
X164852380Y-98823809D01*
X164995238Y-98919047D01*
X165090476Y-99014285D01*
X165138095Y-99109523D01*
G04 #@! TO.C,R17*
X169214285Y-149671428D02*
X169014285Y-149385714D01*
X168871428Y-149671428D02*
X168871428Y-149071428D01*
X169100000Y-149071428D01*
X169157142Y-149100000D01*
X169185714Y-149128571D01*
X169214285Y-149185714D01*
X169214285Y-149271428D01*
X169185714Y-149328571D01*
X169157142Y-149357142D01*
X169100000Y-149385714D01*
X168871428Y-149385714D01*
X169785714Y-149671428D02*
X169442857Y-149671428D01*
X169614285Y-149671428D02*
X169614285Y-149071428D01*
X169557142Y-149157142D01*
X169500000Y-149214285D01*
X169442857Y-149242857D01*
X169985714Y-149071428D02*
X170385714Y-149071428D01*
X170128571Y-149671428D01*
G04 #@! TO.C,R16*
X166614285Y-149671428D02*
X166414285Y-149385714D01*
X166271428Y-149671428D02*
X166271428Y-149071428D01*
X166500000Y-149071428D01*
X166557142Y-149100000D01*
X166585714Y-149128571D01*
X166614285Y-149185714D01*
X166614285Y-149271428D01*
X166585714Y-149328571D01*
X166557142Y-149357142D01*
X166500000Y-149385714D01*
X166271428Y-149385714D01*
X167185714Y-149671428D02*
X166842857Y-149671428D01*
X167014285Y-149671428D02*
X167014285Y-149071428D01*
X166957142Y-149157142D01*
X166900000Y-149214285D01*
X166842857Y-149242857D01*
X167700000Y-149071428D02*
X167585714Y-149071428D01*
X167528571Y-149100000D01*
X167500000Y-149128571D01*
X167442857Y-149214285D01*
X167414285Y-149328571D01*
X167414285Y-149557142D01*
X167442857Y-149614285D01*
X167471428Y-149642857D01*
X167528571Y-149671428D01*
X167642857Y-149671428D01*
X167700000Y-149642857D01*
X167728571Y-149614285D01*
X167757142Y-149557142D01*
X167757142Y-149414285D01*
X167728571Y-149357142D01*
X167700000Y-149328571D01*
X167642857Y-149300000D01*
X167528571Y-149300000D01*
X167471428Y-149328571D01*
X167442857Y-149357142D01*
X167414285Y-149414285D01*
G04 #@! TO.C,R15*
X164071428Y-143185714D02*
X163785714Y-143385714D01*
X164071428Y-143528571D02*
X163471428Y-143528571D01*
X163471428Y-143300000D01*
X163500000Y-143242857D01*
X163528571Y-143214285D01*
X163585714Y-143185714D01*
X163671428Y-143185714D01*
X163728571Y-143214285D01*
X163757142Y-143242857D01*
X163785714Y-143300000D01*
X163785714Y-143528571D01*
X164071428Y-142614285D02*
X164071428Y-142957142D01*
X164071428Y-142785714D02*
X163471428Y-142785714D01*
X163557142Y-142842857D01*
X163614285Y-142900000D01*
X163642857Y-142957142D01*
X163471428Y-142071428D02*
X163471428Y-142357142D01*
X163757142Y-142385714D01*
X163728571Y-142357142D01*
X163700000Y-142300000D01*
X163700000Y-142157142D01*
X163728571Y-142100000D01*
X163757142Y-142071428D01*
X163814285Y-142042857D01*
X163957142Y-142042857D01*
X164014285Y-142071428D01*
X164042857Y-142100000D01*
X164071428Y-142157142D01*
X164071428Y-142300000D01*
X164042857Y-142357142D01*
X164014285Y-142385714D01*
G04 #@! TO.C,R14*
X151614285Y-142251428D02*
X151414285Y-141965714D01*
X151271428Y-142251428D02*
X151271428Y-141651428D01*
X151500000Y-141651428D01*
X151557142Y-141680000D01*
X151585714Y-141708571D01*
X151614285Y-141765714D01*
X151614285Y-141851428D01*
X151585714Y-141908571D01*
X151557142Y-141937142D01*
X151500000Y-141965714D01*
X151271428Y-141965714D01*
X152185714Y-142251428D02*
X151842857Y-142251428D01*
X152014285Y-142251428D02*
X152014285Y-141651428D01*
X151957142Y-141737142D01*
X151900000Y-141794285D01*
X151842857Y-141822857D01*
X152700000Y-141851428D02*
X152700000Y-142251428D01*
X152557142Y-141622857D02*
X152414285Y-142051428D01*
X152785714Y-142051428D01*
G04 #@! TO.C,Q6*
X154044761Y-135877619D02*
X153949523Y-135830000D01*
X153854285Y-135734761D01*
X153711428Y-135591904D01*
X153616190Y-135544285D01*
X153520952Y-135544285D01*
X153568571Y-135782380D02*
X153473333Y-135734761D01*
X153378095Y-135639523D01*
X153330476Y-135449047D01*
X153330476Y-135115714D01*
X153378095Y-134925238D01*
X153473333Y-134830000D01*
X153568571Y-134782380D01*
X153759047Y-134782380D01*
X153854285Y-134830000D01*
X153949523Y-134925238D01*
X153997142Y-135115714D01*
X153997142Y-135449047D01*
X153949523Y-135639523D01*
X153854285Y-135734761D01*
X153759047Y-135782380D01*
X153568571Y-135782380D01*
X154854285Y-134782380D02*
X154663809Y-134782380D01*
X154568571Y-134830000D01*
X154520952Y-134877619D01*
X154425714Y-135020476D01*
X154378095Y-135210952D01*
X154378095Y-135591904D01*
X154425714Y-135687142D01*
X154473333Y-135734761D01*
X154568571Y-135782380D01*
X154759047Y-135782380D01*
X154854285Y-135734761D01*
X154901904Y-135687142D01*
X154949523Y-135591904D01*
X154949523Y-135353809D01*
X154901904Y-135258571D01*
X154854285Y-135210952D01*
X154759047Y-135163333D01*
X154568571Y-135163333D01*
X154473333Y-135210952D01*
X154425714Y-135258571D01*
X154378095Y-135353809D01*
G04 #@! TO.C,Q5*
X164844761Y-135877619D02*
X164749523Y-135830000D01*
X164654285Y-135734761D01*
X164511428Y-135591904D01*
X164416190Y-135544285D01*
X164320952Y-135544285D01*
X164368571Y-135782380D02*
X164273333Y-135734761D01*
X164178095Y-135639523D01*
X164130476Y-135449047D01*
X164130476Y-135115714D01*
X164178095Y-134925238D01*
X164273333Y-134830000D01*
X164368571Y-134782380D01*
X164559047Y-134782380D01*
X164654285Y-134830000D01*
X164749523Y-134925238D01*
X164797142Y-135115714D01*
X164797142Y-135449047D01*
X164749523Y-135639523D01*
X164654285Y-135734761D01*
X164559047Y-135782380D01*
X164368571Y-135782380D01*
X165701904Y-134782380D02*
X165225714Y-134782380D01*
X165178095Y-135258571D01*
X165225714Y-135210952D01*
X165320952Y-135163333D01*
X165559047Y-135163333D01*
X165654285Y-135210952D01*
X165701904Y-135258571D01*
X165749523Y-135353809D01*
X165749523Y-135591904D01*
X165701904Y-135687142D01*
X165654285Y-135734761D01*
X165559047Y-135782380D01*
X165320952Y-135782380D01*
X165225714Y-135734761D01*
X165178095Y-135687142D01*
G04 #@! TO.C,J4*
D12*
X170678371Y-143603200D02*
X171113800Y-143603200D01*
X171200885Y-143632228D01*
X171258942Y-143690285D01*
X171287971Y-143777371D01*
X171287971Y-143835428D01*
X170881571Y-143051657D02*
X171287971Y-143051657D01*
X170649342Y-143196800D02*
X171084771Y-143341942D01*
X171084771Y-142964571D01*
X177467714Y-143106057D02*
X177496742Y-143135085D01*
X177525771Y-143222171D01*
X177525771Y-143280228D01*
X177496742Y-143367314D01*
X177438685Y-143425371D01*
X177380628Y-143454400D01*
X177264514Y-143483428D01*
X177177428Y-143483428D01*
X177061314Y-143454400D01*
X177003257Y-143425371D01*
X176945200Y-143367314D01*
X176916171Y-143280228D01*
X176916171Y-143222171D01*
X176945200Y-143135085D01*
X176974228Y-143106057D01*
X176916171Y-142728685D02*
X176916171Y-142612571D01*
X176945200Y-142554514D01*
X177003257Y-142496457D01*
X177119371Y-142467428D01*
X177322571Y-142467428D01*
X177438685Y-142496457D01*
X177496742Y-142554514D01*
X177525771Y-142612571D01*
X177525771Y-142728685D01*
X177496742Y-142786742D01*
X177438685Y-142844800D01*
X177322571Y-142873828D01*
X177119371Y-142873828D01*
X177003257Y-142844800D01*
X176945200Y-142786742D01*
X176916171Y-142728685D01*
X177525771Y-142206171D02*
X176916171Y-142206171D01*
X177525771Y-141857828D01*
X176916171Y-141857828D01*
X177525771Y-141567542D02*
X176916171Y-141567542D01*
X177525771Y-141219200D01*
X176916171Y-141219200D01*
X177583828Y-141074057D02*
X177583828Y-140609600D01*
X176916171Y-140348342D02*
X176916171Y-140290285D01*
X176945200Y-140232228D01*
X176974228Y-140203200D01*
X177032285Y-140174171D01*
X177148400Y-140145142D01*
X177293542Y-140145142D01*
X177409657Y-140174171D01*
X177467714Y-140203200D01*
X177496742Y-140232228D01*
X177525771Y-140290285D01*
X177525771Y-140348342D01*
X177496742Y-140406400D01*
X177467714Y-140435428D01*
X177409657Y-140464457D01*
X177293542Y-140493485D01*
X177148400Y-140493485D01*
X177032285Y-140464457D01*
X176974228Y-140435428D01*
X176945200Y-140406400D01*
X176916171Y-140348342D01*
X176916171Y-139941942D02*
X176916171Y-139564571D01*
X177148400Y-139767771D01*
X177148400Y-139680685D01*
X177177428Y-139622628D01*
X177206457Y-139593600D01*
X177264514Y-139564571D01*
X177409657Y-139564571D01*
X177467714Y-139593600D01*
X177496742Y-139622628D01*
X177525771Y-139680685D01*
X177525771Y-139854857D01*
X177496742Y-139912914D01*
X177467714Y-139941942D01*
X177496742Y-139332342D02*
X177525771Y-139245257D01*
X177525771Y-139100114D01*
X177496742Y-139042057D01*
X177467714Y-139013028D01*
X177409657Y-138984000D01*
X177351600Y-138984000D01*
X177293542Y-139013028D01*
X177264514Y-139042057D01*
X177235485Y-139100114D01*
X177206457Y-139216228D01*
X177177428Y-139274285D01*
X177148400Y-139303314D01*
X177090342Y-139332342D01*
X177032285Y-139332342D01*
X176974228Y-139303314D01*
X176945200Y-139274285D01*
X176916171Y-139216228D01*
X176916171Y-139071085D01*
X176945200Y-138984000D01*
X177467714Y-138374400D02*
X177496742Y-138403428D01*
X177525771Y-138490514D01*
X177525771Y-138548571D01*
X177496742Y-138635657D01*
X177438685Y-138693714D01*
X177380628Y-138722742D01*
X177264514Y-138751771D01*
X177177428Y-138751771D01*
X177061314Y-138722742D01*
X177003257Y-138693714D01*
X176945200Y-138635657D01*
X176916171Y-138548571D01*
X176916171Y-138490514D01*
X176945200Y-138403428D01*
X176974228Y-138374400D01*
X177525771Y-137764800D02*
X177235485Y-137968000D01*
X177525771Y-138113142D02*
X176916171Y-138113142D01*
X176916171Y-137880914D01*
X176945200Y-137822857D01*
X176974228Y-137793828D01*
X177032285Y-137764800D01*
X177119371Y-137764800D01*
X177177428Y-137793828D01*
X177206457Y-137822857D01*
X177235485Y-137880914D01*
X177235485Y-138113142D01*
X177206457Y-137503542D02*
X177206457Y-137300342D01*
X177525771Y-137213257D02*
X177525771Y-137503542D01*
X176916171Y-137503542D01*
X176916171Y-137213257D01*
X176916171Y-137010057D02*
X177525771Y-136864914D01*
X177090342Y-136748800D01*
X177525771Y-136632685D01*
X176916171Y-136487542D01*
G04 #@! TO.C,D10*
D13*
X163871428Y-149671428D02*
X163871428Y-149071428D01*
X164014285Y-149071428D01*
X164100000Y-149100000D01*
X164157142Y-149157142D01*
X164185714Y-149214285D01*
X164214285Y-149328571D01*
X164214285Y-149414285D01*
X164185714Y-149528571D01*
X164157142Y-149585714D01*
X164100000Y-149642857D01*
X164014285Y-149671428D01*
X163871428Y-149671428D01*
X164785714Y-149671428D02*
X164442857Y-149671428D01*
X164614285Y-149671428D02*
X164614285Y-149071428D01*
X164557142Y-149157142D01*
X164500000Y-149214285D01*
X164442857Y-149242857D01*
X165157142Y-149071428D02*
X165214285Y-149071428D01*
X165271428Y-149100000D01*
X165300000Y-149128571D01*
X165328571Y-149185714D01*
X165357142Y-149300000D01*
X165357142Y-149442857D01*
X165328571Y-149557142D01*
X165300000Y-149614285D01*
X165271428Y-149642857D01*
X165214285Y-149671428D01*
X165157142Y-149671428D01*
X165100000Y-149642857D01*
X165071428Y-149614285D01*
X165042857Y-149557142D01*
X165014285Y-149442857D01*
X165014285Y-149300000D01*
X165042857Y-149185714D01*
X165071428Y-149128571D01*
X165100000Y-149100000D01*
X165157142Y-149071428D01*
G04 #@! TO.C,D9*
X157871428Y-147042857D02*
X157271428Y-147042857D01*
X157271428Y-146900000D01*
X157300000Y-146814285D01*
X157357142Y-146757142D01*
X157414285Y-146728571D01*
X157528571Y-146700000D01*
X157614285Y-146700000D01*
X157728571Y-146728571D01*
X157785714Y-146757142D01*
X157842857Y-146814285D01*
X157871428Y-146900000D01*
X157871428Y-147042857D01*
X157871428Y-146414285D02*
X157871428Y-146300000D01*
X157842857Y-146242857D01*
X157814285Y-146214285D01*
X157728571Y-146157142D01*
X157614285Y-146128571D01*
X157385714Y-146128571D01*
X157328571Y-146157142D01*
X157300000Y-146185714D01*
X157271428Y-146242857D01*
X157271428Y-146357142D01*
X157300000Y-146414285D01*
X157328571Y-146442857D01*
X157385714Y-146471428D01*
X157528571Y-146471428D01*
X157585714Y-146442857D01*
X157614285Y-146414285D01*
X157642857Y-146357142D01*
X157642857Y-146242857D01*
X157614285Y-146185714D01*
X157585714Y-146157142D01*
X157528571Y-146128571D01*
G04 #@! TO.C,C6*
X162614285Y-146500000D02*
X162642857Y-146528571D01*
X162671428Y-146614285D01*
X162671428Y-146671428D01*
X162642857Y-146757142D01*
X162585714Y-146814285D01*
X162528571Y-146842857D01*
X162414285Y-146871428D01*
X162328571Y-146871428D01*
X162214285Y-146842857D01*
X162157142Y-146814285D01*
X162100000Y-146757142D01*
X162071428Y-146671428D01*
X162071428Y-146614285D01*
X162100000Y-146528571D01*
X162128571Y-146500000D01*
X162071428Y-145985714D02*
X162071428Y-146100000D01*
X162100000Y-146157142D01*
X162128571Y-146185714D01*
X162214285Y-146242857D01*
X162328571Y-146271428D01*
X162557142Y-146271428D01*
X162614285Y-146242857D01*
X162642857Y-146214285D01*
X162671428Y-146157142D01*
X162671428Y-146042857D01*
X162642857Y-145985714D01*
X162614285Y-145957142D01*
X162557142Y-145928571D01*
X162414285Y-145928571D01*
X162357142Y-145957142D01*
X162328571Y-145985714D01*
X162300000Y-146042857D01*
X162300000Y-146157142D01*
X162328571Y-146214285D01*
X162357142Y-146242857D01*
X162414285Y-146271428D01*
G04 #@! TO.C,C5*
X160014285Y-146700000D02*
X160042857Y-146728571D01*
X160071428Y-146814285D01*
X160071428Y-146871428D01*
X160042857Y-146957142D01*
X159985714Y-147014285D01*
X159928571Y-147042857D01*
X159814285Y-147071428D01*
X159728571Y-147071428D01*
X159614285Y-147042857D01*
X159557142Y-147014285D01*
X159500000Y-146957142D01*
X159471428Y-146871428D01*
X159471428Y-146814285D01*
X159500000Y-146728571D01*
X159528571Y-146700000D01*
X159471428Y-146157142D02*
X159471428Y-146442857D01*
X159757142Y-146471428D01*
X159728571Y-146442857D01*
X159700000Y-146385714D01*
X159700000Y-146242857D01*
X159728571Y-146185714D01*
X159757142Y-146157142D01*
X159814285Y-146128571D01*
X159957142Y-146128571D01*
X160014285Y-146157142D01*
X160042857Y-146185714D01*
X160071428Y-146242857D01*
X160071428Y-146385714D01*
X160042857Y-146442857D01*
X160014285Y-146471428D01*
G04 #@! TO.C,R13*
X168814285Y-134271428D02*
X168614285Y-133985714D01*
X168471428Y-134271428D02*
X168471428Y-133671428D01*
X168700000Y-133671428D01*
X168757142Y-133700000D01*
X168785714Y-133728571D01*
X168814285Y-133785714D01*
X168814285Y-133871428D01*
X168785714Y-133928571D01*
X168757142Y-133957142D01*
X168700000Y-133985714D01*
X168471428Y-133985714D01*
X169385714Y-134271428D02*
X169042857Y-134271428D01*
X169214285Y-134271428D02*
X169214285Y-133671428D01*
X169157142Y-133757142D01*
X169100000Y-133814285D01*
X169042857Y-133842857D01*
X169585714Y-133671428D02*
X169957142Y-133671428D01*
X169757142Y-133900000D01*
X169842857Y-133900000D01*
X169900000Y-133928571D01*
X169928571Y-133957142D01*
X169957142Y-134014285D01*
X169957142Y-134157142D01*
X169928571Y-134214285D01*
X169900000Y-134242857D01*
X169842857Y-134271428D01*
X169671428Y-134271428D01*
X169614285Y-134242857D01*
X169585714Y-134214285D01*
G04 #@! TO.C,R12*
X166414285Y-134271428D02*
X166214285Y-133985714D01*
X166071428Y-134271428D02*
X166071428Y-133671428D01*
X166300000Y-133671428D01*
X166357142Y-133700000D01*
X166385714Y-133728571D01*
X166414285Y-133785714D01*
X166414285Y-133871428D01*
X166385714Y-133928571D01*
X166357142Y-133957142D01*
X166300000Y-133985714D01*
X166071428Y-133985714D01*
X166985714Y-134271428D02*
X166642857Y-134271428D01*
X166814285Y-134271428D02*
X166814285Y-133671428D01*
X166757142Y-133757142D01*
X166700000Y-133814285D01*
X166642857Y-133842857D01*
X167214285Y-133728571D02*
X167242857Y-133700000D01*
X167300000Y-133671428D01*
X167442857Y-133671428D01*
X167500000Y-133700000D01*
X167528571Y-133728571D01*
X167557142Y-133785714D01*
X167557142Y-133842857D01*
X167528571Y-133928571D01*
X167185714Y-134271428D01*
X167557142Y-134271428D01*
G04 #@! TO.C,R11*
X160357142Y-125832380D02*
X160023809Y-125356190D01*
X159785714Y-125832380D02*
X159785714Y-124832380D01*
X160166666Y-124832380D01*
X160261904Y-124880000D01*
X160309523Y-124927619D01*
X160357142Y-125022857D01*
X160357142Y-125165714D01*
X160309523Y-125260952D01*
X160261904Y-125308571D01*
X160166666Y-125356190D01*
X159785714Y-125356190D01*
X161309523Y-125832380D02*
X160738095Y-125832380D01*
X161023809Y-125832380D02*
X161023809Y-124832380D01*
X160928571Y-124975238D01*
X160833333Y-125070476D01*
X160738095Y-125118095D01*
X162261904Y-125832380D02*
X161690476Y-125832380D01*
X161976190Y-125832380D02*
X161976190Y-124832380D01*
X161880952Y-124975238D01*
X161785714Y-125070476D01*
X161690476Y-125118095D01*
G04 #@! TO.C,R10*
X151557142Y-126832380D02*
X151223809Y-126356190D01*
X150985714Y-126832380D02*
X150985714Y-125832380D01*
X151366666Y-125832380D01*
X151461904Y-125880000D01*
X151509523Y-125927619D01*
X151557142Y-126022857D01*
X151557142Y-126165714D01*
X151509523Y-126260952D01*
X151461904Y-126308571D01*
X151366666Y-126356190D01*
X150985714Y-126356190D01*
X152509523Y-126832380D02*
X151938095Y-126832380D01*
X152223809Y-126832380D02*
X152223809Y-125832380D01*
X152128571Y-125975238D01*
X152033333Y-126070476D01*
X151938095Y-126118095D01*
X153128571Y-125832380D02*
X153223809Y-125832380D01*
X153319047Y-125880000D01*
X153366666Y-125927619D01*
X153414285Y-126022857D01*
X153461904Y-126213333D01*
X153461904Y-126451428D01*
X153414285Y-126641904D01*
X153366666Y-126737142D01*
X153319047Y-126784761D01*
X153223809Y-126832380D01*
X153128571Y-126832380D01*
X153033333Y-126784761D01*
X152985714Y-126737142D01*
X152938095Y-126641904D01*
X152890476Y-126451428D01*
X152890476Y-126213333D01*
X152938095Y-126022857D01*
X152985714Y-125927619D01*
X153033333Y-125880000D01*
X153128571Y-125832380D01*
G04 #@! TO.C,Q4*
X154044761Y-120277619D02*
X153949523Y-120230000D01*
X153854285Y-120134761D01*
X153711428Y-119991904D01*
X153616190Y-119944285D01*
X153520952Y-119944285D01*
X153568571Y-120182380D02*
X153473333Y-120134761D01*
X153378095Y-120039523D01*
X153330476Y-119849047D01*
X153330476Y-119515714D01*
X153378095Y-119325238D01*
X153473333Y-119230000D01*
X153568571Y-119182380D01*
X153759047Y-119182380D01*
X153854285Y-119230000D01*
X153949523Y-119325238D01*
X153997142Y-119515714D01*
X153997142Y-119849047D01*
X153949523Y-120039523D01*
X153854285Y-120134761D01*
X153759047Y-120182380D01*
X153568571Y-120182380D01*
X154854285Y-119515714D02*
X154854285Y-120182380D01*
X154616190Y-119134761D02*
X154378095Y-119849047D01*
X154997142Y-119849047D01*
G04 #@! TO.C,Q3*
X164844761Y-120277619D02*
X164749523Y-120230000D01*
X164654285Y-120134761D01*
X164511428Y-119991904D01*
X164416190Y-119944285D01*
X164320952Y-119944285D01*
X164368571Y-120182380D02*
X164273333Y-120134761D01*
X164178095Y-120039523D01*
X164130476Y-119849047D01*
X164130476Y-119515714D01*
X164178095Y-119325238D01*
X164273333Y-119230000D01*
X164368571Y-119182380D01*
X164559047Y-119182380D01*
X164654285Y-119230000D01*
X164749523Y-119325238D01*
X164797142Y-119515714D01*
X164797142Y-119849047D01*
X164749523Y-120039523D01*
X164654285Y-120134761D01*
X164559047Y-120182380D01*
X164368571Y-120182380D01*
X165130476Y-119182380D02*
X165749523Y-119182380D01*
X165416190Y-119563333D01*
X165559047Y-119563333D01*
X165654285Y-119610952D01*
X165701904Y-119658571D01*
X165749523Y-119753809D01*
X165749523Y-119991904D01*
X165701904Y-120087142D01*
X165654285Y-120134761D01*
X165559047Y-120182380D01*
X165273333Y-120182380D01*
X165178095Y-120134761D01*
X165130476Y-120087142D01*
G04 #@! TO.C,J3*
D12*
X170678371Y-128003200D02*
X171113800Y-128003200D01*
X171200885Y-128032228D01*
X171258942Y-128090285D01*
X171287971Y-128177371D01*
X171287971Y-128235428D01*
X170678371Y-127770971D02*
X170678371Y-127393600D01*
X170910600Y-127596800D01*
X170910600Y-127509714D01*
X170939628Y-127451657D01*
X170968657Y-127422628D01*
X171026714Y-127393600D01*
X171171857Y-127393600D01*
X171229914Y-127422628D01*
X171258942Y-127451657D01*
X171287971Y-127509714D01*
X171287971Y-127683885D01*
X171258942Y-127741942D01*
X171229914Y-127770971D01*
X177967714Y-127606057D02*
X177996742Y-127635085D01*
X178025771Y-127722171D01*
X178025771Y-127780228D01*
X177996742Y-127867314D01*
X177938685Y-127925371D01*
X177880628Y-127954400D01*
X177764514Y-127983428D01*
X177677428Y-127983428D01*
X177561314Y-127954400D01*
X177503257Y-127925371D01*
X177445200Y-127867314D01*
X177416171Y-127780228D01*
X177416171Y-127722171D01*
X177445200Y-127635085D01*
X177474228Y-127606057D01*
X177416171Y-127228685D02*
X177416171Y-127112571D01*
X177445200Y-127054514D01*
X177503257Y-126996457D01*
X177619371Y-126967428D01*
X177822571Y-126967428D01*
X177938685Y-126996457D01*
X177996742Y-127054514D01*
X178025771Y-127112571D01*
X178025771Y-127228685D01*
X177996742Y-127286742D01*
X177938685Y-127344800D01*
X177822571Y-127373828D01*
X177619371Y-127373828D01*
X177503257Y-127344800D01*
X177445200Y-127286742D01*
X177416171Y-127228685D01*
X178025771Y-126706171D02*
X177416171Y-126706171D01*
X178025771Y-126357828D01*
X177416171Y-126357828D01*
X178025771Y-126067542D02*
X177416171Y-126067542D01*
X178025771Y-125719200D01*
X177416171Y-125719200D01*
X178083828Y-125574057D02*
X178083828Y-125109600D01*
X177416171Y-124848342D02*
X177416171Y-124790285D01*
X177445200Y-124732228D01*
X177474228Y-124703200D01*
X177532285Y-124674171D01*
X177648400Y-124645142D01*
X177793542Y-124645142D01*
X177909657Y-124674171D01*
X177967714Y-124703200D01*
X177996742Y-124732228D01*
X178025771Y-124790285D01*
X178025771Y-124848342D01*
X177996742Y-124906400D01*
X177967714Y-124935428D01*
X177909657Y-124964457D01*
X177793542Y-124993485D01*
X177648400Y-124993485D01*
X177532285Y-124964457D01*
X177474228Y-124935428D01*
X177445200Y-124906400D01*
X177416171Y-124848342D01*
X177416171Y-124441942D02*
X177416171Y-124064571D01*
X177648400Y-124267771D01*
X177648400Y-124180685D01*
X177677428Y-124122628D01*
X177706457Y-124093600D01*
X177764514Y-124064571D01*
X177909657Y-124064571D01*
X177967714Y-124093600D01*
X177996742Y-124122628D01*
X178025771Y-124180685D01*
X178025771Y-124354857D01*
X177996742Y-124412914D01*
X177967714Y-124441942D01*
X177996742Y-123832342D02*
X178025771Y-123745257D01*
X178025771Y-123600114D01*
X177996742Y-123542057D01*
X177967714Y-123513028D01*
X177909657Y-123484000D01*
X177851600Y-123484000D01*
X177793542Y-123513028D01*
X177764514Y-123542057D01*
X177735485Y-123600114D01*
X177706457Y-123716228D01*
X177677428Y-123774285D01*
X177648400Y-123803314D01*
X177590342Y-123832342D01*
X177532285Y-123832342D01*
X177474228Y-123803314D01*
X177445200Y-123774285D01*
X177416171Y-123716228D01*
X177416171Y-123571085D01*
X177445200Y-123484000D01*
X177967714Y-122874400D02*
X177996742Y-122903428D01*
X178025771Y-122990514D01*
X178025771Y-123048571D01*
X177996742Y-123135657D01*
X177938685Y-123193714D01*
X177880628Y-123222742D01*
X177764514Y-123251771D01*
X177677428Y-123251771D01*
X177561314Y-123222742D01*
X177503257Y-123193714D01*
X177445200Y-123135657D01*
X177416171Y-123048571D01*
X177416171Y-122990514D01*
X177445200Y-122903428D01*
X177474228Y-122874400D01*
X178025771Y-122264800D02*
X177735485Y-122468000D01*
X178025771Y-122613142D02*
X177416171Y-122613142D01*
X177416171Y-122380914D01*
X177445200Y-122322857D01*
X177474228Y-122293828D01*
X177532285Y-122264800D01*
X177619371Y-122264800D01*
X177677428Y-122293828D01*
X177706457Y-122322857D01*
X177735485Y-122380914D01*
X177735485Y-122613142D01*
X177706457Y-122003542D02*
X177706457Y-121800342D01*
X178025771Y-121713257D02*
X178025771Y-122003542D01*
X177416171Y-122003542D01*
X177416171Y-121713257D01*
X177416171Y-121510057D02*
X178025771Y-121364914D01*
X177590342Y-121248800D01*
X178025771Y-121132685D01*
X177416171Y-120987542D01*
G04 #@! TO.C,D8*
D13*
X163957142Y-134271428D02*
X163957142Y-133671428D01*
X164100000Y-133671428D01*
X164185714Y-133700000D01*
X164242857Y-133757142D01*
X164271428Y-133814285D01*
X164300000Y-133928571D01*
X164300000Y-134014285D01*
X164271428Y-134128571D01*
X164242857Y-134185714D01*
X164185714Y-134242857D01*
X164100000Y-134271428D01*
X163957142Y-134271428D01*
X164642857Y-133928571D02*
X164585714Y-133900000D01*
X164557142Y-133871428D01*
X164528571Y-133814285D01*
X164528571Y-133785714D01*
X164557142Y-133728571D01*
X164585714Y-133700000D01*
X164642857Y-133671428D01*
X164757142Y-133671428D01*
X164814285Y-133700000D01*
X164842857Y-133728571D01*
X164871428Y-133785714D01*
X164871428Y-133814285D01*
X164842857Y-133871428D01*
X164814285Y-133900000D01*
X164757142Y-133928571D01*
X164642857Y-133928571D01*
X164585714Y-133957142D01*
X164557142Y-133985714D01*
X164528571Y-134042857D01*
X164528571Y-134157142D01*
X164557142Y-134214285D01*
X164585714Y-134242857D01*
X164642857Y-134271428D01*
X164757142Y-134271428D01*
X164814285Y-134242857D01*
X164842857Y-134214285D01*
X164871428Y-134157142D01*
X164871428Y-134042857D01*
X164842857Y-133985714D01*
X164814285Y-133957142D01*
X164757142Y-133928571D01*
G04 #@! TO.C,D7*
X157471428Y-131442857D02*
X156871428Y-131442857D01*
X156871428Y-131300000D01*
X156900000Y-131214285D01*
X156957142Y-131157142D01*
X157014285Y-131128571D01*
X157128571Y-131100000D01*
X157214285Y-131100000D01*
X157328571Y-131128571D01*
X157385714Y-131157142D01*
X157442857Y-131214285D01*
X157471428Y-131300000D01*
X157471428Y-131442857D01*
X156871428Y-130900000D02*
X156871428Y-130500000D01*
X157471428Y-130757142D01*
G04 #@! TO.C,C4*
X161900000Y-134214285D02*
X161871428Y-134242857D01*
X161785714Y-134271428D01*
X161728571Y-134271428D01*
X161642857Y-134242857D01*
X161585714Y-134185714D01*
X161557142Y-134128571D01*
X161528571Y-134014285D01*
X161528571Y-133928571D01*
X161557142Y-133814285D01*
X161585714Y-133757142D01*
X161642857Y-133700000D01*
X161728571Y-133671428D01*
X161785714Y-133671428D01*
X161871428Y-133700000D01*
X161900000Y-133728571D01*
X162414285Y-133871428D02*
X162414285Y-134271428D01*
X162271428Y-133642857D02*
X162128571Y-134071428D01*
X162500000Y-134071428D01*
G04 #@! TO.C,C3*
X160214285Y-131100000D02*
X160242857Y-131128571D01*
X160271428Y-131214285D01*
X160271428Y-131271428D01*
X160242857Y-131357142D01*
X160185714Y-131414285D01*
X160128571Y-131442857D01*
X160014285Y-131471428D01*
X159928571Y-131471428D01*
X159814285Y-131442857D01*
X159757142Y-131414285D01*
X159700000Y-131357142D01*
X159671428Y-131271428D01*
X159671428Y-131214285D01*
X159700000Y-131128571D01*
X159728571Y-131100000D01*
X159671428Y-130900000D02*
X159671428Y-130528571D01*
X159900000Y-130728571D01*
X159900000Y-130642857D01*
X159928571Y-130585714D01*
X159957142Y-130557142D01*
X160014285Y-130528571D01*
X160157142Y-130528571D01*
X160214285Y-130557142D01*
X160242857Y-130585714D01*
X160271428Y-130642857D01*
X160271428Y-130814285D01*
X160242857Y-130871428D01*
X160214285Y-130900000D01*
G04 #@! TO.C,R9*
X112433333Y-85352380D02*
X112100000Y-84876190D01*
X111861904Y-85352380D02*
X111861904Y-84352380D01*
X112242857Y-84352380D01*
X112338095Y-84400000D01*
X112385714Y-84447619D01*
X112433333Y-84542857D01*
X112433333Y-84685714D01*
X112385714Y-84780952D01*
X112338095Y-84828571D01*
X112242857Y-84876190D01*
X111861904Y-84876190D01*
X112909523Y-85352380D02*
X113100000Y-85352380D01*
X113195238Y-85304761D01*
X113242857Y-85257142D01*
X113338095Y-85114285D01*
X113385714Y-84923809D01*
X113385714Y-84542857D01*
X113338095Y-84447619D01*
X113290476Y-84400000D01*
X113195238Y-84352380D01*
X113004761Y-84352380D01*
X112909523Y-84400000D01*
X112861904Y-84447619D01*
X112814285Y-84542857D01*
X112814285Y-84780952D01*
X112861904Y-84876190D01*
X112909523Y-84923809D01*
X113004761Y-84971428D01*
X113195238Y-84971428D01*
X113290476Y-84923809D01*
X113338095Y-84876190D01*
X113385714Y-84780952D01*
G04 #@! TO.C,R8*
X117433333Y-85252380D02*
X117100000Y-84776190D01*
X116861904Y-85252380D02*
X116861904Y-84252380D01*
X117242857Y-84252380D01*
X117338095Y-84300000D01*
X117385714Y-84347619D01*
X117433333Y-84442857D01*
X117433333Y-84585714D01*
X117385714Y-84680952D01*
X117338095Y-84728571D01*
X117242857Y-84776190D01*
X116861904Y-84776190D01*
X118004761Y-84680952D02*
X117909523Y-84633333D01*
X117861904Y-84585714D01*
X117814285Y-84490476D01*
X117814285Y-84442857D01*
X117861904Y-84347619D01*
X117909523Y-84300000D01*
X118004761Y-84252380D01*
X118195238Y-84252380D01*
X118290476Y-84300000D01*
X118338095Y-84347619D01*
X118385714Y-84442857D01*
X118385714Y-84490476D01*
X118338095Y-84585714D01*
X118290476Y-84633333D01*
X118195238Y-84680952D01*
X118004761Y-84680952D01*
X117909523Y-84728571D01*
X117861904Y-84776190D01*
X117814285Y-84871428D01*
X117814285Y-85061904D01*
X117861904Y-85157142D01*
X117909523Y-85204761D01*
X118004761Y-85252380D01*
X118195238Y-85252380D01*
X118290476Y-85204761D01*
X118338095Y-85157142D01*
X118385714Y-85061904D01*
X118385714Y-84871428D01*
X118338095Y-84776190D01*
X118290476Y-84728571D01*
X118195238Y-84680952D01*
G04 #@! TO.C,J2*
D12*
X172466171Y-94803200D02*
X172901600Y-94803200D01*
X172988685Y-94832228D01*
X173046742Y-94890285D01*
X173075771Y-94977371D01*
X173075771Y-95035428D01*
X172524228Y-94541942D02*
X172495200Y-94512914D01*
X172466171Y-94454857D01*
X172466171Y-94309714D01*
X172495200Y-94251657D01*
X172524228Y-94222628D01*
X172582285Y-94193600D01*
X172640342Y-94193600D01*
X172727428Y-94222628D01*
X173075771Y-94570971D01*
X173075771Y-94193600D01*
X177467714Y-96106057D02*
X177496742Y-96135085D01*
X177525771Y-96222171D01*
X177525771Y-96280228D01*
X177496742Y-96367314D01*
X177438685Y-96425371D01*
X177380628Y-96454400D01*
X177264514Y-96483428D01*
X177177428Y-96483428D01*
X177061314Y-96454400D01*
X177003257Y-96425371D01*
X176945200Y-96367314D01*
X176916171Y-96280228D01*
X176916171Y-96222171D01*
X176945200Y-96135085D01*
X176974228Y-96106057D01*
X176916171Y-95728685D02*
X176916171Y-95612571D01*
X176945200Y-95554514D01*
X177003257Y-95496457D01*
X177119371Y-95467428D01*
X177322571Y-95467428D01*
X177438685Y-95496457D01*
X177496742Y-95554514D01*
X177525771Y-95612571D01*
X177525771Y-95728685D01*
X177496742Y-95786742D01*
X177438685Y-95844800D01*
X177322571Y-95873828D01*
X177119371Y-95873828D01*
X177003257Y-95844800D01*
X176945200Y-95786742D01*
X176916171Y-95728685D01*
X177525771Y-95206171D02*
X176916171Y-95206171D01*
X177525771Y-94857828D01*
X176916171Y-94857828D01*
X177525771Y-94567542D02*
X176916171Y-94567542D01*
X177525771Y-94219200D01*
X176916171Y-94219200D01*
X177583828Y-94074057D02*
X177583828Y-93609600D01*
X176916171Y-93348342D02*
X176916171Y-93290285D01*
X176945200Y-93232228D01*
X176974228Y-93203200D01*
X177032285Y-93174171D01*
X177148400Y-93145142D01*
X177293542Y-93145142D01*
X177409657Y-93174171D01*
X177467714Y-93203200D01*
X177496742Y-93232228D01*
X177525771Y-93290285D01*
X177525771Y-93348342D01*
X177496742Y-93406400D01*
X177467714Y-93435428D01*
X177409657Y-93464457D01*
X177293542Y-93493485D01*
X177148400Y-93493485D01*
X177032285Y-93464457D01*
X176974228Y-93435428D01*
X176945200Y-93406400D01*
X176916171Y-93348342D01*
X176916171Y-92941942D02*
X176916171Y-92564571D01*
X177148400Y-92767771D01*
X177148400Y-92680685D01*
X177177428Y-92622628D01*
X177206457Y-92593600D01*
X177264514Y-92564571D01*
X177409657Y-92564571D01*
X177467714Y-92593600D01*
X177496742Y-92622628D01*
X177525771Y-92680685D01*
X177525771Y-92854857D01*
X177496742Y-92912914D01*
X177467714Y-92941942D01*
X177496742Y-92332342D02*
X177525771Y-92245257D01*
X177525771Y-92100114D01*
X177496742Y-92042057D01*
X177467714Y-92013028D01*
X177409657Y-91984000D01*
X177351600Y-91984000D01*
X177293542Y-92013028D01*
X177264514Y-92042057D01*
X177235485Y-92100114D01*
X177206457Y-92216228D01*
X177177428Y-92274285D01*
X177148400Y-92303314D01*
X177090342Y-92332342D01*
X177032285Y-92332342D01*
X176974228Y-92303314D01*
X176945200Y-92274285D01*
X176916171Y-92216228D01*
X176916171Y-92071085D01*
X176945200Y-91984000D01*
X177467714Y-91374400D02*
X177496742Y-91403428D01*
X177525771Y-91490514D01*
X177525771Y-91548571D01*
X177496742Y-91635657D01*
X177438685Y-91693714D01*
X177380628Y-91722742D01*
X177264514Y-91751771D01*
X177177428Y-91751771D01*
X177061314Y-91722742D01*
X177003257Y-91693714D01*
X176945200Y-91635657D01*
X176916171Y-91548571D01*
X176916171Y-91490514D01*
X176945200Y-91403428D01*
X176974228Y-91374400D01*
X177525771Y-90764800D02*
X177235485Y-90968000D01*
X177525771Y-91113142D02*
X176916171Y-91113142D01*
X176916171Y-90880914D01*
X176945200Y-90822857D01*
X176974228Y-90793828D01*
X177032285Y-90764800D01*
X177119371Y-90764800D01*
X177177428Y-90793828D01*
X177206457Y-90822857D01*
X177235485Y-90880914D01*
X177235485Y-91113142D01*
X177206457Y-90503542D02*
X177206457Y-90300342D01*
X177525771Y-90213257D02*
X177525771Y-90503542D01*
X176916171Y-90503542D01*
X176916171Y-90213257D01*
X176916171Y-90010057D02*
X177525771Y-89864914D01*
X177090342Y-89748800D01*
X177525771Y-89632685D01*
X176916171Y-89487542D01*
G04 #@! TO.C,D6*
D13*
X130461904Y-81852380D02*
X130461904Y-80852380D01*
X130700000Y-80852380D01*
X130842857Y-80900000D01*
X130938095Y-80995238D01*
X130985714Y-81090476D01*
X131033333Y-81280952D01*
X131033333Y-81423809D01*
X130985714Y-81614285D01*
X130938095Y-81709523D01*
X130842857Y-81804761D01*
X130700000Y-81852380D01*
X130461904Y-81852380D01*
X131890476Y-80852380D02*
X131700000Y-80852380D01*
X131604761Y-80900000D01*
X131557142Y-80947619D01*
X131461904Y-81090476D01*
X131414285Y-81280952D01*
X131414285Y-81661904D01*
X131461904Y-81757142D01*
X131509523Y-81804761D01*
X131604761Y-81852380D01*
X131795238Y-81852380D01*
X131890476Y-81804761D01*
X131938095Y-81757142D01*
X131985714Y-81661904D01*
X131985714Y-81423809D01*
X131938095Y-81328571D01*
X131890476Y-81280952D01*
X131795238Y-81233333D01*
X131604761Y-81233333D01*
X131509523Y-81280952D01*
X131461904Y-81328571D01*
X131414285Y-81423809D01*
G04 #@! TO.C,D5*
X128061904Y-81852380D02*
X128061904Y-80852380D01*
X128300000Y-80852380D01*
X128442857Y-80900000D01*
X128538095Y-80995238D01*
X128585714Y-81090476D01*
X128633333Y-81280952D01*
X128633333Y-81423809D01*
X128585714Y-81614285D01*
X128538095Y-81709523D01*
X128442857Y-81804761D01*
X128300000Y-81852380D01*
X128061904Y-81852380D01*
X129538095Y-80852380D02*
X129061904Y-80852380D01*
X129014285Y-81328571D01*
X129061904Y-81280952D01*
X129157142Y-81233333D01*
X129395238Y-81233333D01*
X129490476Y-81280952D01*
X129538095Y-81328571D01*
X129585714Y-81423809D01*
X129585714Y-81661904D01*
X129538095Y-81757142D01*
X129490476Y-81804761D01*
X129395238Y-81852380D01*
X129157142Y-81852380D01*
X129061904Y-81804761D01*
X129014285Y-81757142D01*
G04 #@! TO.C,D4*
X125261904Y-81852380D02*
X125261904Y-80852380D01*
X125500000Y-80852380D01*
X125642857Y-80900000D01*
X125738095Y-80995238D01*
X125785714Y-81090476D01*
X125833333Y-81280952D01*
X125833333Y-81423809D01*
X125785714Y-81614285D01*
X125738095Y-81709523D01*
X125642857Y-81804761D01*
X125500000Y-81852380D01*
X125261904Y-81852380D01*
X126690476Y-81185714D02*
X126690476Y-81852380D01*
X126452380Y-80804761D02*
X126214285Y-81519047D01*
X126833333Y-81519047D01*
G04 #@! TO.C,D3*
X122861904Y-81852380D02*
X122861904Y-80852380D01*
X123100000Y-80852380D01*
X123242857Y-80900000D01*
X123338095Y-80995238D01*
X123385714Y-81090476D01*
X123433333Y-81280952D01*
X123433333Y-81423809D01*
X123385714Y-81614285D01*
X123338095Y-81709523D01*
X123242857Y-81804761D01*
X123100000Y-81852380D01*
X122861904Y-81852380D01*
X123766666Y-80852380D02*
X124385714Y-80852380D01*
X124052380Y-81233333D01*
X124195238Y-81233333D01*
X124290476Y-81280952D01*
X124338095Y-81328571D01*
X124385714Y-81423809D01*
X124385714Y-81661904D01*
X124338095Y-81757142D01*
X124290476Y-81804761D01*
X124195238Y-81852380D01*
X123909523Y-81852380D01*
X123814285Y-81804761D01*
X123766666Y-81757142D01*
G04 #@! TO.C,R7*
X152033333Y-111632380D02*
X151700000Y-111156190D01*
X151461904Y-111632380D02*
X151461904Y-110632380D01*
X151842857Y-110632380D01*
X151938095Y-110680000D01*
X151985714Y-110727619D01*
X152033333Y-110822857D01*
X152033333Y-110965714D01*
X151985714Y-111060952D01*
X151938095Y-111108571D01*
X151842857Y-111156190D01*
X151461904Y-111156190D01*
X152366666Y-110632380D02*
X153033333Y-110632380D01*
X152604761Y-111632380D01*
G04 #@! TO.C,Q2*
X154044761Y-105077619D02*
X153949523Y-105030000D01*
X153854285Y-104934761D01*
X153711428Y-104791904D01*
X153616190Y-104744285D01*
X153520952Y-104744285D01*
X153568571Y-104982380D02*
X153473333Y-104934761D01*
X153378095Y-104839523D01*
X153330476Y-104649047D01*
X153330476Y-104315714D01*
X153378095Y-104125238D01*
X153473333Y-104030000D01*
X153568571Y-103982380D01*
X153759047Y-103982380D01*
X153854285Y-104030000D01*
X153949523Y-104125238D01*
X153997142Y-104315714D01*
X153997142Y-104649047D01*
X153949523Y-104839523D01*
X153854285Y-104934761D01*
X153759047Y-104982380D01*
X153568571Y-104982380D01*
X154378095Y-104077619D02*
X154425714Y-104030000D01*
X154520952Y-103982380D01*
X154759047Y-103982380D01*
X154854285Y-104030000D01*
X154901904Y-104077619D01*
X154949523Y-104172857D01*
X154949523Y-104268095D01*
X154901904Y-104410952D01*
X154330476Y-104982380D01*
X154949523Y-104982380D01*
G04 #@! TO.C,Q1*
X165044761Y-105077619D02*
X164949523Y-105030000D01*
X164854285Y-104934761D01*
X164711428Y-104791904D01*
X164616190Y-104744285D01*
X164520952Y-104744285D01*
X164568571Y-104982380D02*
X164473333Y-104934761D01*
X164378095Y-104839523D01*
X164330476Y-104649047D01*
X164330476Y-104315714D01*
X164378095Y-104125238D01*
X164473333Y-104030000D01*
X164568571Y-103982380D01*
X164759047Y-103982380D01*
X164854285Y-104030000D01*
X164949523Y-104125238D01*
X164997142Y-104315714D01*
X164997142Y-104649047D01*
X164949523Y-104839523D01*
X164854285Y-104934761D01*
X164759047Y-104982380D01*
X164568571Y-104982380D01*
X165949523Y-104982380D02*
X165378095Y-104982380D01*
X165663809Y-104982380D02*
X165663809Y-103982380D01*
X165568571Y-104125238D01*
X165473333Y-104220476D01*
X165378095Y-104268095D01*
G04 #@! TO.C,D2*
X156261904Y-113052380D02*
X156261904Y-112052380D01*
X156500000Y-112052380D01*
X156642857Y-112100000D01*
X156738095Y-112195238D01*
X156785714Y-112290476D01*
X156833333Y-112480952D01*
X156833333Y-112623809D01*
X156785714Y-112814285D01*
X156738095Y-112909523D01*
X156642857Y-113004761D01*
X156500000Y-113052380D01*
X156261904Y-113052380D01*
X157214285Y-112147619D02*
X157261904Y-112100000D01*
X157357142Y-112052380D01*
X157595238Y-112052380D01*
X157690476Y-112100000D01*
X157738095Y-112147619D01*
X157785714Y-112242857D01*
X157785714Y-112338095D01*
X157738095Y-112480952D01*
X157166666Y-113052380D01*
X157785714Y-113052380D01*
G04 #@! TO.C,C2*
X162214285Y-115700000D02*
X162242857Y-115728571D01*
X162271428Y-115814285D01*
X162271428Y-115871428D01*
X162242857Y-115957142D01*
X162185714Y-116014285D01*
X162128571Y-116042857D01*
X162014285Y-116071428D01*
X161928571Y-116071428D01*
X161814285Y-116042857D01*
X161757142Y-116014285D01*
X161700000Y-115957142D01*
X161671428Y-115871428D01*
X161671428Y-115814285D01*
X161700000Y-115728571D01*
X161728571Y-115700000D01*
X161728571Y-115471428D02*
X161700000Y-115442857D01*
X161671428Y-115385714D01*
X161671428Y-115242857D01*
X161700000Y-115185714D01*
X161728571Y-115157142D01*
X161785714Y-115128571D01*
X161842857Y-115128571D01*
X161928571Y-115157142D01*
X162271428Y-115500000D01*
X162271428Y-115128571D01*
G04 #@! TO.C,C1*
X159814285Y-115500000D02*
X159842857Y-115528571D01*
X159871428Y-115614285D01*
X159871428Y-115671428D01*
X159842857Y-115757142D01*
X159785714Y-115814285D01*
X159728571Y-115842857D01*
X159614285Y-115871428D01*
X159528571Y-115871428D01*
X159414285Y-115842857D01*
X159357142Y-115814285D01*
X159300000Y-115757142D01*
X159271428Y-115671428D01*
X159271428Y-115614285D01*
X159300000Y-115528571D01*
X159328571Y-115500000D01*
X159871428Y-114928571D02*
X159871428Y-115271428D01*
X159871428Y-115100000D02*
X159271428Y-115100000D01*
X159357142Y-115157142D01*
X159414285Y-115214285D01*
X159442857Y-115271428D01*
G04 #@! TO.C,R5*
X168866666Y-118861904D02*
X168600000Y-118480952D01*
X168409523Y-118861904D02*
X168409523Y-118061904D01*
X168714285Y-118061904D01*
X168790476Y-118100000D01*
X168828571Y-118138095D01*
X168866666Y-118214285D01*
X168866666Y-118328571D01*
X168828571Y-118404761D01*
X168790476Y-118442857D01*
X168714285Y-118480952D01*
X168409523Y-118480952D01*
X169590476Y-118061904D02*
X169209523Y-118061904D01*
X169171428Y-118442857D01*
X169209523Y-118404761D01*
X169285714Y-118366666D01*
X169476190Y-118366666D01*
X169552380Y-118404761D01*
X169590476Y-118442857D01*
X169628571Y-118519047D01*
X169628571Y-118709523D01*
X169590476Y-118785714D01*
X169552380Y-118823809D01*
X169476190Y-118861904D01*
X169285714Y-118861904D01*
X169209523Y-118823809D01*
X169171428Y-118785714D01*
G04 #@! TO.C,R4*
X166466666Y-118861904D02*
X166200000Y-118480952D01*
X166009523Y-118861904D02*
X166009523Y-118061904D01*
X166314285Y-118061904D01*
X166390476Y-118100000D01*
X166428571Y-118138095D01*
X166466666Y-118214285D01*
X166466666Y-118328571D01*
X166428571Y-118404761D01*
X166390476Y-118442857D01*
X166314285Y-118480952D01*
X166009523Y-118480952D01*
X167152380Y-118328571D02*
X167152380Y-118861904D01*
X166961904Y-118023809D02*
X166771428Y-118595238D01*
X167266666Y-118595238D01*
G04 #@! TO.C,D1*
X164871428Y-116042857D02*
X164271428Y-116042857D01*
X164271428Y-115900000D01*
X164300000Y-115814285D01*
X164357142Y-115757142D01*
X164414285Y-115728571D01*
X164528571Y-115700000D01*
X164614285Y-115700000D01*
X164728571Y-115728571D01*
X164785714Y-115757142D01*
X164842857Y-115814285D01*
X164871428Y-115900000D01*
X164871428Y-116042857D01*
X164871428Y-115128571D02*
X164871428Y-115471428D01*
X164871428Y-115300000D02*
X164271428Y-115300000D01*
X164357142Y-115357142D01*
X164414285Y-115414285D01*
X164442857Y-115471428D01*
G04 #@! TO.C,J1*
D12*
X172266171Y-114753200D02*
X172701600Y-114753200D01*
X172788685Y-114782228D01*
X172846742Y-114840285D01*
X172875771Y-114927371D01*
X172875771Y-114985428D01*
X172875771Y-114143600D02*
X172875771Y-114491942D01*
X172875771Y-114317771D02*
X172266171Y-114317771D01*
X172353257Y-114375828D01*
X172411314Y-114433885D01*
X172440342Y-114491942D01*
X177467714Y-112106057D02*
X177496742Y-112135085D01*
X177525771Y-112222171D01*
X177525771Y-112280228D01*
X177496742Y-112367314D01*
X177438685Y-112425371D01*
X177380628Y-112454400D01*
X177264514Y-112483428D01*
X177177428Y-112483428D01*
X177061314Y-112454400D01*
X177003257Y-112425371D01*
X176945200Y-112367314D01*
X176916171Y-112280228D01*
X176916171Y-112222171D01*
X176945200Y-112135085D01*
X176974228Y-112106057D01*
X176916171Y-111728685D02*
X176916171Y-111612571D01*
X176945200Y-111554514D01*
X177003257Y-111496457D01*
X177119371Y-111467428D01*
X177322571Y-111467428D01*
X177438685Y-111496457D01*
X177496742Y-111554514D01*
X177525771Y-111612571D01*
X177525771Y-111728685D01*
X177496742Y-111786742D01*
X177438685Y-111844800D01*
X177322571Y-111873828D01*
X177119371Y-111873828D01*
X177003257Y-111844800D01*
X176945200Y-111786742D01*
X176916171Y-111728685D01*
X177525771Y-111206171D02*
X176916171Y-111206171D01*
X177525771Y-110857828D01*
X176916171Y-110857828D01*
X177525771Y-110567542D02*
X176916171Y-110567542D01*
X177525771Y-110219200D01*
X176916171Y-110219200D01*
X177583828Y-110074057D02*
X177583828Y-109609600D01*
X176916171Y-109348342D02*
X176916171Y-109290285D01*
X176945200Y-109232228D01*
X176974228Y-109203200D01*
X177032285Y-109174171D01*
X177148400Y-109145142D01*
X177293542Y-109145142D01*
X177409657Y-109174171D01*
X177467714Y-109203200D01*
X177496742Y-109232228D01*
X177525771Y-109290285D01*
X177525771Y-109348342D01*
X177496742Y-109406400D01*
X177467714Y-109435428D01*
X177409657Y-109464457D01*
X177293542Y-109493485D01*
X177148400Y-109493485D01*
X177032285Y-109464457D01*
X176974228Y-109435428D01*
X176945200Y-109406400D01*
X176916171Y-109348342D01*
X176916171Y-108941942D02*
X176916171Y-108564571D01*
X177148400Y-108767771D01*
X177148400Y-108680685D01*
X177177428Y-108622628D01*
X177206457Y-108593600D01*
X177264514Y-108564571D01*
X177409657Y-108564571D01*
X177467714Y-108593600D01*
X177496742Y-108622628D01*
X177525771Y-108680685D01*
X177525771Y-108854857D01*
X177496742Y-108912914D01*
X177467714Y-108941942D01*
X177496742Y-108332342D02*
X177525771Y-108245257D01*
X177525771Y-108100114D01*
X177496742Y-108042057D01*
X177467714Y-108013028D01*
X177409657Y-107984000D01*
X177351600Y-107984000D01*
X177293542Y-108013028D01*
X177264514Y-108042057D01*
X177235485Y-108100114D01*
X177206457Y-108216228D01*
X177177428Y-108274285D01*
X177148400Y-108303314D01*
X177090342Y-108332342D01*
X177032285Y-108332342D01*
X176974228Y-108303314D01*
X176945200Y-108274285D01*
X176916171Y-108216228D01*
X176916171Y-108071085D01*
X176945200Y-107984000D01*
X177467714Y-107374400D02*
X177496742Y-107403428D01*
X177525771Y-107490514D01*
X177525771Y-107548571D01*
X177496742Y-107635657D01*
X177438685Y-107693714D01*
X177380628Y-107722742D01*
X177264514Y-107751771D01*
X177177428Y-107751771D01*
X177061314Y-107722742D01*
X177003257Y-107693714D01*
X176945200Y-107635657D01*
X176916171Y-107548571D01*
X176916171Y-107490514D01*
X176945200Y-107403428D01*
X176974228Y-107374400D01*
X177525771Y-106764800D02*
X177235485Y-106968000D01*
X177525771Y-107113142D02*
X176916171Y-107113142D01*
X176916171Y-106880914D01*
X176945200Y-106822857D01*
X176974228Y-106793828D01*
X177032285Y-106764800D01*
X177119371Y-106764800D01*
X177177428Y-106793828D01*
X177206457Y-106822857D01*
X177235485Y-106880914D01*
X177235485Y-107113142D01*
X177206457Y-106503542D02*
X177206457Y-106300342D01*
X177525771Y-106213257D02*
X177525771Y-106503542D01*
X176916171Y-106503542D01*
X176916171Y-106213257D01*
X176916171Y-106010057D02*
X177525771Y-105864914D01*
X177090342Y-105748800D01*
X177525771Y-105632685D01*
X176916171Y-105487542D01*
G04 #@! TO.C,M1*
D13*
X122521904Y-118324523D02*
X122521904Y-117054523D01*
X122945238Y-117961666D01*
X123368571Y-117054523D01*
X123368571Y-118324523D01*
X124638571Y-118324523D02*
X123912857Y-118324523D01*
X124275714Y-118324523D02*
X124275714Y-117054523D01*
X124154761Y-117235952D01*
X124033809Y-117356904D01*
X123912857Y-117417380D01*
X117374523Y-125463571D02*
X116104523Y-125463571D01*
X117374523Y-124737857D01*
X116104523Y-124737857D01*
X116104523Y-123891190D02*
X116104523Y-123649285D01*
X116165000Y-123528333D01*
X116285952Y-123407380D01*
X116527857Y-123346904D01*
X116951190Y-123346904D01*
X117193095Y-123407380D01*
X117314047Y-123528333D01*
X117374523Y-123649285D01*
X117374523Y-123891190D01*
X117314047Y-124012142D01*
X117193095Y-124133095D01*
X116951190Y-124193571D01*
X116527857Y-124193571D01*
X116285952Y-124133095D01*
X116165000Y-124012142D01*
X116104523Y-123891190D01*
X117374523Y-122802619D02*
X116104523Y-122802619D01*
X116104523Y-122500238D01*
X116165000Y-122318809D01*
X116285952Y-122197857D01*
X116406904Y-122137380D01*
X116648809Y-122076904D01*
X116830238Y-122076904D01*
X117072142Y-122137380D01*
X117193095Y-122197857D01*
X117314047Y-122318809D01*
X117374523Y-122500238D01*
X117374523Y-122802619D01*
X116709285Y-121532619D02*
X116709285Y-121109285D01*
X117374523Y-120927857D02*
X117374523Y-121532619D01*
X116104523Y-121532619D01*
X116104523Y-120927857D01*
X117374523Y-120383571D02*
X116104523Y-120383571D01*
X117011666Y-119960238D01*
X116104523Y-119536904D01*
X117374523Y-119536904D01*
X117253571Y-118206428D02*
X117314047Y-118266904D01*
X117374523Y-118448333D01*
X117374523Y-118569285D01*
X117314047Y-118750714D01*
X117193095Y-118871666D01*
X117072142Y-118932142D01*
X116830238Y-118992619D01*
X116648809Y-118992619D01*
X116406904Y-118932142D01*
X116285952Y-118871666D01*
X116165000Y-118750714D01*
X116104523Y-118569285D01*
X116104523Y-118448333D01*
X116165000Y-118266904D01*
X116225476Y-118206428D01*
X116104523Y-117662142D02*
X117132619Y-117662142D01*
X117253571Y-117601666D01*
X117314047Y-117541190D01*
X117374523Y-117420238D01*
X117374523Y-117178333D01*
X117314047Y-117057380D01*
X117253571Y-116996904D01*
X117132619Y-116936428D01*
X116104523Y-116936428D01*
D14*
X121297261Y-98322023D02*
X121720595Y-99592023D01*
X122143928Y-98322023D01*
X123051071Y-99531547D02*
X122930119Y-99592023D01*
X122688214Y-99592023D01*
X122567261Y-99531547D01*
X122506785Y-99410595D01*
X122506785Y-98926785D01*
X122567261Y-98805833D01*
X122688214Y-98745357D01*
X122930119Y-98745357D01*
X123051071Y-98805833D01*
X123111547Y-98926785D01*
X123111547Y-99047738D01*
X122506785Y-99168690D01*
X123655833Y-99592023D02*
X123655833Y-98745357D01*
X123655833Y-98987261D02*
X123716309Y-98866309D01*
X123776785Y-98805833D01*
X123897738Y-98745357D01*
X124018690Y-98745357D01*
X126619166Y-98322023D02*
X126740119Y-98322023D01*
X126861071Y-98382500D01*
X126921547Y-98442976D01*
X126982023Y-98563928D01*
X127042500Y-98805833D01*
X127042500Y-99108214D01*
X126982023Y-99350119D01*
X126921547Y-99471071D01*
X126861071Y-99531547D01*
X126740119Y-99592023D01*
X126619166Y-99592023D01*
X126498214Y-99531547D01*
X126437738Y-99471071D01*
X126377261Y-99350119D01*
X126316785Y-99108214D01*
X126316785Y-98805833D01*
X126377261Y-98563928D01*
X126437738Y-98442976D01*
X126498214Y-98382500D01*
X126619166Y-98322023D01*
X127586785Y-99471071D02*
X127647261Y-99531547D01*
X127586785Y-99592023D01*
X127526309Y-99531547D01*
X127586785Y-99471071D01*
X127586785Y-99592023D01*
X128856785Y-99592023D02*
X128131071Y-99592023D01*
X128493928Y-99592023D02*
X128493928Y-98322023D01*
X128372976Y-98503452D01*
X128252023Y-98624404D01*
X128131071Y-98684880D01*
X129174285Y-145614404D02*
X129174285Y-146037738D01*
X129839523Y-146037738D02*
X128569523Y-146037738D01*
X128569523Y-145432976D01*
X129839523Y-144344404D02*
X129839523Y-144949166D01*
X128569523Y-144949166D01*
X129476666Y-143981547D02*
X129476666Y-143376785D01*
X129839523Y-144102500D02*
X128569523Y-143679166D01*
X129839523Y-143255833D01*
X129779047Y-142892976D02*
X129839523Y-142711547D01*
X129839523Y-142409166D01*
X129779047Y-142288214D01*
X129718571Y-142227738D01*
X129597619Y-142167261D01*
X129476666Y-142167261D01*
X129355714Y-142227738D01*
X129295238Y-142288214D01*
X129234761Y-142409166D01*
X129174285Y-142651071D01*
X129113809Y-142772023D01*
X129053333Y-142832500D01*
X128932380Y-142892976D01*
X128811428Y-142892976D01*
X128690476Y-142832500D01*
X128630000Y-142772023D01*
X128569523Y-142651071D01*
X128569523Y-142348690D01*
X128630000Y-142167261D01*
X129839523Y-141622976D02*
X128569523Y-141622976D01*
X129174285Y-141622976D02*
X129174285Y-140897261D01*
X129839523Y-140897261D02*
X128569523Y-140897261D01*
X117139523Y-144162976D02*
X116534761Y-144586309D01*
X117139523Y-144888690D02*
X115869523Y-144888690D01*
X115869523Y-144404880D01*
X115930000Y-144283928D01*
X115990476Y-144223452D01*
X116111428Y-144162976D01*
X116292857Y-144162976D01*
X116413809Y-144223452D01*
X116474285Y-144283928D01*
X116534761Y-144404880D01*
X116534761Y-144888690D01*
X117079047Y-143679166D02*
X117139523Y-143497738D01*
X117139523Y-143195357D01*
X117079047Y-143074404D01*
X117018571Y-143013928D01*
X116897619Y-142953452D01*
X116776666Y-142953452D01*
X116655714Y-143013928D01*
X116595238Y-143074404D01*
X116534761Y-143195357D01*
X116474285Y-143437261D01*
X116413809Y-143558214D01*
X116353333Y-143618690D01*
X116232380Y-143679166D01*
X116111428Y-143679166D01*
X115990476Y-143618690D01*
X115930000Y-143558214D01*
X115869523Y-143437261D01*
X115869523Y-143134880D01*
X115930000Y-142953452D01*
X115869523Y-142590595D02*
X115869523Y-141864880D01*
X117139523Y-142227738D02*
X115869523Y-142227738D01*
X128645119Y-100544523D02*
X128645119Y-99274523D01*
X128947500Y-99274523D01*
X129128928Y-99335000D01*
X129249880Y-99455952D01*
X129310357Y-99576904D01*
X129370833Y-99818809D01*
X129370833Y-100000238D01*
X129310357Y-100242142D01*
X129249880Y-100363095D01*
X129128928Y-100484047D01*
X128947500Y-100544523D01*
X128645119Y-100544523D01*
X130157023Y-99274523D02*
X130277976Y-99274523D01*
X130398928Y-99335000D01*
X130459404Y-99395476D01*
X130519880Y-99516428D01*
X130580357Y-99758333D01*
X130580357Y-100060714D01*
X130519880Y-100302619D01*
X130459404Y-100423571D01*
X130398928Y-100484047D01*
X130277976Y-100544523D01*
X130157023Y-100544523D01*
X130036071Y-100484047D01*
X129975595Y-100423571D01*
X129915119Y-100302619D01*
X129854642Y-100060714D01*
X129854642Y-99758333D01*
X129915119Y-99516428D01*
X129975595Y-99395476D01*
X130036071Y-99335000D01*
X130157023Y-99274523D01*
X128645119Y-103084523D02*
X128645119Y-101814523D01*
X128947500Y-101814523D01*
X129128928Y-101875000D01*
X129249880Y-101995952D01*
X129310357Y-102116904D01*
X129370833Y-102358809D01*
X129370833Y-102540238D01*
X129310357Y-102782142D01*
X129249880Y-102903095D01*
X129128928Y-103024047D01*
X128947500Y-103084523D01*
X128645119Y-103084523D01*
X130580357Y-103084523D02*
X129854642Y-103084523D01*
X130217500Y-103084523D02*
X130217500Y-101814523D01*
X130096547Y-101995952D01*
X129975595Y-102116904D01*
X129854642Y-102177380D01*
X128645119Y-105624523D02*
X128645119Y-104354523D01*
X128947500Y-104354523D01*
X129128928Y-104415000D01*
X129249880Y-104535952D01*
X129310357Y-104656904D01*
X129370833Y-104898809D01*
X129370833Y-105080238D01*
X129310357Y-105322142D01*
X129249880Y-105443095D01*
X129128928Y-105564047D01*
X128947500Y-105624523D01*
X128645119Y-105624523D01*
X129854642Y-104475476D02*
X129915119Y-104415000D01*
X130036071Y-104354523D01*
X130338452Y-104354523D01*
X130459404Y-104415000D01*
X130519880Y-104475476D01*
X130580357Y-104596428D01*
X130580357Y-104717380D01*
X130519880Y-104898809D01*
X129794166Y-105624523D01*
X130580357Y-105624523D01*
X128645119Y-108164523D02*
X128645119Y-106894523D01*
X128947500Y-106894523D01*
X129128928Y-106955000D01*
X129249880Y-107075952D01*
X129310357Y-107196904D01*
X129370833Y-107438809D01*
X129370833Y-107620238D01*
X129310357Y-107862142D01*
X129249880Y-107983095D01*
X129128928Y-108104047D01*
X128947500Y-108164523D01*
X128645119Y-108164523D01*
X129794166Y-106894523D02*
X130580357Y-106894523D01*
X130157023Y-107378333D01*
X130338452Y-107378333D01*
X130459404Y-107438809D01*
X130519880Y-107499285D01*
X130580357Y-107620238D01*
X130580357Y-107922619D01*
X130519880Y-108043571D01*
X130459404Y-108104047D01*
X130338452Y-108164523D01*
X129975595Y-108164523D01*
X129854642Y-108104047D01*
X129794166Y-108043571D01*
X128645119Y-110704523D02*
X128645119Y-109434523D01*
X128947500Y-109434523D01*
X129128928Y-109495000D01*
X129249880Y-109615952D01*
X129310357Y-109736904D01*
X129370833Y-109978809D01*
X129370833Y-110160238D01*
X129310357Y-110402142D01*
X129249880Y-110523095D01*
X129128928Y-110644047D01*
X128947500Y-110704523D01*
X128645119Y-110704523D01*
X130459404Y-109857857D02*
X130459404Y-110704523D01*
X130157023Y-109374047D02*
X129854642Y-110281190D01*
X130640833Y-110281190D01*
X128614880Y-111974523D02*
X129401071Y-111974523D01*
X128977738Y-112458333D01*
X129159166Y-112458333D01*
X129280119Y-112518809D01*
X129340595Y-112579285D01*
X129401071Y-112700238D01*
X129401071Y-113002619D01*
X129340595Y-113123571D01*
X129280119Y-113184047D01*
X129159166Y-113244523D01*
X128796309Y-113244523D01*
X128675357Y-113184047D01*
X128614880Y-113123571D01*
X129763928Y-111974523D02*
X130187261Y-113244523D01*
X130610595Y-111974523D01*
X128962619Y-114575000D02*
X128841666Y-114514523D01*
X128660238Y-114514523D01*
X128478809Y-114575000D01*
X128357857Y-114695952D01*
X128297380Y-114816904D01*
X128236904Y-115058809D01*
X128236904Y-115240238D01*
X128297380Y-115482142D01*
X128357857Y-115603095D01*
X128478809Y-115724047D01*
X128660238Y-115784523D01*
X128781190Y-115784523D01*
X128962619Y-115724047D01*
X129023095Y-115663571D01*
X129023095Y-115240238D01*
X128781190Y-115240238D01*
X128327619Y-118324523D02*
X128327619Y-117054523D01*
X128630000Y-117054523D01*
X128811428Y-117115000D01*
X128932380Y-117235952D01*
X128992857Y-117356904D01*
X129053333Y-117598809D01*
X129053333Y-117780238D01*
X128992857Y-118022142D01*
X128932380Y-118143095D01*
X128811428Y-118264047D01*
X128630000Y-118324523D01*
X128327619Y-118324523D01*
X130202380Y-117054523D02*
X129597619Y-117054523D01*
X129537142Y-117659285D01*
X129597619Y-117598809D01*
X129718571Y-117538333D01*
X130020952Y-117538333D01*
X130141904Y-117598809D01*
X130202380Y-117659285D01*
X130262857Y-117780238D01*
X130262857Y-118082619D01*
X130202380Y-118203571D01*
X130141904Y-118264047D01*
X130020952Y-118324523D01*
X129718571Y-118324523D01*
X129597619Y-118264047D01*
X129537142Y-118203571D01*
X128327619Y-120864523D02*
X128327619Y-119594523D01*
X128630000Y-119594523D01*
X128811428Y-119655000D01*
X128932380Y-119775952D01*
X128992857Y-119896904D01*
X129053333Y-120138809D01*
X129053333Y-120320238D01*
X128992857Y-120562142D01*
X128932380Y-120683095D01*
X128811428Y-120804047D01*
X128630000Y-120864523D01*
X128327619Y-120864523D01*
X130141904Y-119594523D02*
X129900000Y-119594523D01*
X129779047Y-119655000D01*
X129718571Y-119715476D01*
X129597619Y-119896904D01*
X129537142Y-120138809D01*
X129537142Y-120622619D01*
X129597619Y-120743571D01*
X129658095Y-120804047D01*
X129779047Y-120864523D01*
X130020952Y-120864523D01*
X130141904Y-120804047D01*
X130202380Y-120743571D01*
X130262857Y-120622619D01*
X130262857Y-120320238D01*
X130202380Y-120199285D01*
X130141904Y-120138809D01*
X130020952Y-120078333D01*
X129779047Y-120078333D01*
X129658095Y-120138809D01*
X129597619Y-120199285D01*
X129537142Y-120320238D01*
X128327619Y-123404523D02*
X128327619Y-122134523D01*
X128630000Y-122134523D01*
X128811428Y-122195000D01*
X128932380Y-122315952D01*
X128992857Y-122436904D01*
X129053333Y-122678809D01*
X129053333Y-122860238D01*
X128992857Y-123102142D01*
X128932380Y-123223095D01*
X128811428Y-123344047D01*
X128630000Y-123404523D01*
X128327619Y-123404523D01*
X129476666Y-122134523D02*
X130323333Y-122134523D01*
X129779047Y-123404523D01*
X128327619Y-125944523D02*
X128327619Y-124674523D01*
X128630000Y-124674523D01*
X128811428Y-124735000D01*
X128932380Y-124855952D01*
X128992857Y-124976904D01*
X129053333Y-125218809D01*
X129053333Y-125400238D01*
X128992857Y-125642142D01*
X128932380Y-125763095D01*
X128811428Y-125884047D01*
X128630000Y-125944523D01*
X128327619Y-125944523D01*
X129779047Y-125218809D02*
X129658095Y-125158333D01*
X129597619Y-125097857D01*
X129537142Y-124976904D01*
X129537142Y-124916428D01*
X129597619Y-124795476D01*
X129658095Y-124735000D01*
X129779047Y-124674523D01*
X130020952Y-124674523D01*
X130141904Y-124735000D01*
X130202380Y-124795476D01*
X130262857Y-124916428D01*
X130262857Y-124976904D01*
X130202380Y-125097857D01*
X130141904Y-125158333D01*
X130020952Y-125218809D01*
X129779047Y-125218809D01*
X129658095Y-125279285D01*
X129597619Y-125339761D01*
X129537142Y-125460714D01*
X129537142Y-125702619D01*
X129597619Y-125823571D01*
X129658095Y-125884047D01*
X129779047Y-125944523D01*
X130020952Y-125944523D01*
X130141904Y-125884047D01*
X130202380Y-125823571D01*
X130262857Y-125702619D01*
X130262857Y-125460714D01*
X130202380Y-125339761D01*
X130141904Y-125279285D01*
X130020952Y-125218809D01*
X129053333Y-128484523D02*
X128630000Y-127879761D01*
X128327619Y-128484523D02*
X128327619Y-127214523D01*
X128811428Y-127214523D01*
X128932380Y-127275000D01*
X128992857Y-127335476D01*
X129053333Y-127456428D01*
X129053333Y-127637857D01*
X128992857Y-127758809D01*
X128932380Y-127819285D01*
X128811428Y-127879761D01*
X128327619Y-127879761D01*
X129476666Y-127214523D02*
X130323333Y-128484523D01*
X130323333Y-127214523D02*
X129476666Y-128484523D01*
X128297380Y-129754523D02*
X129023095Y-129754523D01*
X128660238Y-131024523D02*
X128660238Y-129754523D01*
X129325476Y-129754523D02*
X130172142Y-131024523D01*
X130172142Y-129754523D02*
X129325476Y-131024523D01*
X128962619Y-132355000D02*
X128841666Y-132294523D01*
X128660238Y-132294523D01*
X128478809Y-132355000D01*
X128357857Y-132475952D01*
X128297380Y-132596904D01*
X128236904Y-132838809D01*
X128236904Y-133020238D01*
X128297380Y-133262142D01*
X128357857Y-133383095D01*
X128478809Y-133504047D01*
X128660238Y-133564523D01*
X128781190Y-133564523D01*
X128962619Y-133504047D01*
X129023095Y-133443571D01*
X129023095Y-133020238D01*
X128781190Y-133020238D01*
X128297380Y-134834523D02*
X129083571Y-134834523D01*
X128660238Y-135318333D01*
X128841666Y-135318333D01*
X128962619Y-135378809D01*
X129023095Y-135439285D01*
X129083571Y-135560238D01*
X129083571Y-135862619D01*
X129023095Y-135983571D01*
X128962619Y-136044047D01*
X128841666Y-136104523D01*
X128478809Y-136104523D01*
X128357857Y-136044047D01*
X128297380Y-135983571D01*
X129446428Y-134834523D02*
X129869761Y-136104523D01*
X130293095Y-134834523D01*
X112316547Y-134834523D02*
X112739880Y-136104523D01*
X113163214Y-134834523D01*
X113586547Y-136104523D02*
X113586547Y-134834523D01*
X114191309Y-136104523D02*
X114191309Y-134834523D01*
X114917023Y-136104523D01*
X114917023Y-134834523D01*
X112770119Y-132355000D02*
X112649166Y-132294523D01*
X112467738Y-132294523D01*
X112286309Y-132355000D01*
X112165357Y-132475952D01*
X112104880Y-132596904D01*
X112044404Y-132838809D01*
X112044404Y-133020238D01*
X112104880Y-133262142D01*
X112165357Y-133383095D01*
X112286309Y-133504047D01*
X112467738Y-133564523D01*
X112588690Y-133564523D01*
X112770119Y-133504047D01*
X112830595Y-133443571D01*
X112830595Y-133020238D01*
X112588690Y-133020238D01*
X113012023Y-131024523D02*
X112588690Y-130419761D01*
X112286309Y-131024523D02*
X112286309Y-129754523D01*
X112770119Y-129754523D01*
X112891071Y-129815000D01*
X112951547Y-129875476D01*
X113012023Y-129996428D01*
X113012023Y-130177857D01*
X112951547Y-130298809D01*
X112891071Y-130359285D01*
X112770119Y-130419761D01*
X112286309Y-130419761D01*
X113495833Y-130964047D02*
X113677261Y-131024523D01*
X113979642Y-131024523D01*
X114100595Y-130964047D01*
X114161071Y-130903571D01*
X114221547Y-130782619D01*
X114221547Y-130661666D01*
X114161071Y-130540714D01*
X114100595Y-130480238D01*
X113979642Y-130419761D01*
X113737738Y-130359285D01*
X113616785Y-130298809D01*
X113556309Y-130238333D01*
X113495833Y-130117380D01*
X113495833Y-129996428D01*
X113556309Y-129875476D01*
X113616785Y-129815000D01*
X113737738Y-129754523D01*
X114040119Y-129754523D01*
X114221547Y-129815000D01*
X114584404Y-129754523D02*
X115310119Y-129754523D01*
X114947261Y-131024523D02*
X114947261Y-129754523D01*
X112135119Y-127819285D02*
X112558452Y-127819285D01*
X112739880Y-128484523D02*
X112135119Y-128484523D01*
X112135119Y-127214523D01*
X112739880Y-127214523D01*
X113284166Y-128484523D02*
X113284166Y-127214523D01*
X114009880Y-128484523D01*
X114009880Y-127214523D01*
X112104880Y-124674523D02*
X112891071Y-124674523D01*
X112467738Y-125158333D01*
X112649166Y-125158333D01*
X112770119Y-125218809D01*
X112830595Y-125279285D01*
X112891071Y-125400238D01*
X112891071Y-125702619D01*
X112830595Y-125823571D01*
X112770119Y-125884047D01*
X112649166Y-125944523D01*
X112286309Y-125944523D01*
X112165357Y-125884047D01*
X112104880Y-125823571D01*
X113253928Y-124674523D02*
X113677261Y-125944523D01*
X114100595Y-124674523D01*
X112770119Y-122195000D02*
X112649166Y-122134523D01*
X112467738Y-122134523D01*
X112286309Y-122195000D01*
X112165357Y-122315952D01*
X112104880Y-122436904D01*
X112044404Y-122678809D01*
X112044404Y-122860238D01*
X112104880Y-123102142D01*
X112165357Y-123223095D01*
X112286309Y-123344047D01*
X112467738Y-123404523D01*
X112588690Y-123404523D01*
X112770119Y-123344047D01*
X112830595Y-123283571D01*
X112830595Y-122860238D01*
X112588690Y-122860238D01*
X112074642Y-120804047D02*
X112256071Y-120864523D01*
X112558452Y-120864523D01*
X112679404Y-120804047D01*
X112739880Y-120743571D01*
X112800357Y-120622619D01*
X112800357Y-120501666D01*
X112739880Y-120380714D01*
X112679404Y-120320238D01*
X112558452Y-120259761D01*
X112316547Y-120199285D01*
X112195595Y-120138809D01*
X112135119Y-120078333D01*
X112074642Y-119957380D01*
X112074642Y-119836428D01*
X112135119Y-119715476D01*
X112195595Y-119655000D01*
X112316547Y-119594523D01*
X112618928Y-119594523D01*
X112800357Y-119655000D01*
X113344642Y-120864523D02*
X113344642Y-119594523D01*
X114070357Y-120864523D02*
X113526071Y-120138809D01*
X114070357Y-119594523D02*
X113344642Y-120320238D01*
X112104880Y-118264047D02*
X112286309Y-118324523D01*
X112588690Y-118324523D01*
X112709642Y-118264047D01*
X112770119Y-118203571D01*
X112830595Y-118082619D01*
X112830595Y-117961666D01*
X112770119Y-117840714D01*
X112709642Y-117780238D01*
X112588690Y-117719761D01*
X112346785Y-117659285D01*
X112225833Y-117598809D01*
X112165357Y-117538333D01*
X112104880Y-117417380D01*
X112104880Y-117296428D01*
X112165357Y-117175476D01*
X112225833Y-117115000D01*
X112346785Y-117054523D01*
X112649166Y-117054523D01*
X112830595Y-117115000D01*
X113616785Y-117054523D02*
X113737738Y-117054523D01*
X113858690Y-117115000D01*
X113919166Y-117175476D01*
X113979642Y-117296428D01*
X114040119Y-117538333D01*
X114040119Y-117840714D01*
X113979642Y-118082619D01*
X113919166Y-118203571D01*
X113858690Y-118264047D01*
X113737738Y-118324523D01*
X113616785Y-118324523D01*
X113495833Y-118264047D01*
X113435357Y-118203571D01*
X113374880Y-118082619D01*
X113314404Y-117840714D01*
X113314404Y-117538333D01*
X113374880Y-117296428D01*
X113435357Y-117175476D01*
X113495833Y-117115000D01*
X113616785Y-117054523D01*
X112074642Y-115724047D02*
X112256071Y-115784523D01*
X112558452Y-115784523D01*
X112679404Y-115724047D01*
X112739880Y-115663571D01*
X112800357Y-115542619D01*
X112800357Y-115421666D01*
X112739880Y-115300714D01*
X112679404Y-115240238D01*
X112558452Y-115179761D01*
X112316547Y-115119285D01*
X112195595Y-115058809D01*
X112135119Y-114998333D01*
X112074642Y-114877380D01*
X112074642Y-114756428D01*
X112135119Y-114635476D01*
X112195595Y-114575000D01*
X112316547Y-114514523D01*
X112618928Y-114514523D01*
X112800357Y-114575000D01*
X114070357Y-115663571D02*
X114009880Y-115724047D01*
X113828452Y-115784523D01*
X113707500Y-115784523D01*
X113526071Y-115724047D01*
X113405119Y-115603095D01*
X113344642Y-115482142D01*
X113284166Y-115240238D01*
X113284166Y-115058809D01*
X113344642Y-114816904D01*
X113405119Y-114695952D01*
X113526071Y-114575000D01*
X113707500Y-114514523D01*
X113828452Y-114514523D01*
X114009880Y-114575000D01*
X114070357Y-114635476D01*
X112104880Y-113184047D02*
X112286309Y-113244523D01*
X112588690Y-113244523D01*
X112709642Y-113184047D01*
X112770119Y-113123571D01*
X112830595Y-113002619D01*
X112830595Y-112881666D01*
X112770119Y-112760714D01*
X112709642Y-112700238D01*
X112588690Y-112639761D01*
X112346785Y-112579285D01*
X112225833Y-112518809D01*
X112165357Y-112458333D01*
X112104880Y-112337380D01*
X112104880Y-112216428D01*
X112165357Y-112095476D01*
X112225833Y-112035000D01*
X112346785Y-111974523D01*
X112649166Y-111974523D01*
X112830595Y-112035000D01*
X114040119Y-113244523D02*
X113314404Y-113244523D01*
X113677261Y-113244523D02*
X113677261Y-111974523D01*
X113556309Y-112155952D01*
X113435357Y-112276904D01*
X113314404Y-112337380D01*
X112104880Y-110644047D02*
X112286309Y-110704523D01*
X112588690Y-110704523D01*
X112709642Y-110644047D01*
X112770119Y-110583571D01*
X112830595Y-110462619D01*
X112830595Y-110341666D01*
X112770119Y-110220714D01*
X112709642Y-110160238D01*
X112588690Y-110099761D01*
X112346785Y-110039285D01*
X112225833Y-109978809D01*
X112165357Y-109918333D01*
X112104880Y-109797380D01*
X112104880Y-109676428D01*
X112165357Y-109555476D01*
X112225833Y-109495000D01*
X112346785Y-109434523D01*
X112649166Y-109434523D01*
X112830595Y-109495000D01*
X113314404Y-109555476D02*
X113374880Y-109495000D01*
X113495833Y-109434523D01*
X113798214Y-109434523D01*
X113919166Y-109495000D01*
X113979642Y-109555476D01*
X114040119Y-109676428D01*
X114040119Y-109797380D01*
X113979642Y-109978809D01*
X113253928Y-110704523D01*
X114040119Y-110704523D01*
X112104880Y-108104047D02*
X112286309Y-108164523D01*
X112588690Y-108164523D01*
X112709642Y-108104047D01*
X112770119Y-108043571D01*
X112830595Y-107922619D01*
X112830595Y-107801666D01*
X112770119Y-107680714D01*
X112709642Y-107620238D01*
X112588690Y-107559761D01*
X112346785Y-107499285D01*
X112225833Y-107438809D01*
X112165357Y-107378333D01*
X112104880Y-107257380D01*
X112104880Y-107136428D01*
X112165357Y-107015476D01*
X112225833Y-106955000D01*
X112346785Y-106894523D01*
X112649166Y-106894523D01*
X112830595Y-106955000D01*
X113253928Y-106894523D02*
X114040119Y-106894523D01*
X113616785Y-107378333D01*
X113798214Y-107378333D01*
X113919166Y-107438809D01*
X113979642Y-107499285D01*
X114040119Y-107620238D01*
X114040119Y-107922619D01*
X113979642Y-108043571D01*
X113919166Y-108104047D01*
X113798214Y-108164523D01*
X113435357Y-108164523D01*
X113314404Y-108104047D01*
X113253928Y-108043571D01*
X112104880Y-104354523D02*
X112528214Y-105624523D01*
X112951547Y-104354523D01*
X113193452Y-104354523D02*
X113616785Y-105624523D01*
X114040119Y-104354523D01*
X112770119Y-101875000D02*
X112649166Y-101814523D01*
X112467738Y-101814523D01*
X112286309Y-101875000D01*
X112165357Y-101995952D01*
X112104880Y-102116904D01*
X112044404Y-102358809D01*
X112044404Y-102540238D01*
X112104880Y-102782142D01*
X112165357Y-102903095D01*
X112286309Y-103024047D01*
X112467738Y-103084523D01*
X112588690Y-103084523D01*
X112770119Y-103024047D01*
X112830595Y-102963571D01*
X112830595Y-102540238D01*
X112588690Y-102540238D01*
X112165357Y-100181666D02*
X112770119Y-100181666D01*
X112044404Y-100544523D02*
X112467738Y-99274523D01*
X112891071Y-100544523D01*
X113556309Y-99274523D02*
X113677261Y-99274523D01*
X113798214Y-99335000D01*
X113858690Y-99395476D01*
X113919166Y-99516428D01*
X113979642Y-99758333D01*
X113979642Y-100060714D01*
X113919166Y-100302619D01*
X113858690Y-100423571D01*
X113798214Y-100484047D01*
X113677261Y-100544523D01*
X113556309Y-100544523D01*
X113435357Y-100484047D01*
X113374880Y-100423571D01*
X113314404Y-100302619D01*
X113253928Y-100060714D01*
X113253928Y-99758333D01*
X113314404Y-99516428D01*
X113374880Y-99395476D01*
X113435357Y-99335000D01*
X113556309Y-99274523D01*
G04 #@! TD*
M02*
