%TF.GenerationSoftware,KiCad,Pcbnew,(5.1.6)-1*%
%TF.CreationDate,2021-01-11T17:56:58+06:00*%
%TF.ProjectId,nodemcu01,6e6f6465-6d63-4753-9031-2e6b69636164,rev?*%
%TF.SameCoordinates,Original*%
%TF.FileFunction,Paste,Top*%
%TF.FilePolarity,Positive*%
%FSLAX46Y46*%
G04 Gerber Fmt 4.6, Leading zero omitted, Abs format (unit mm)*
G04 Created by KiCad (PCBNEW (5.1.6)-1) date 2021-01-11 17:56:58*
%MOMM*%
%LPD*%
G01*
G04 APERTURE LIST*
%ADD10O,3.352800X1.676400*%
G04 APERTURE END LIST*
%TO.C,U3*%
G36*
G01*
X118950000Y-91697500D02*
X118950000Y-91972500D01*
G75*
G02*
X118812500Y-92110000I-137500J0D01*
G01*
X117487500Y-92110000D01*
G75*
G02*
X117350000Y-91972500I0J137500D01*
G01*
X117350000Y-91697500D01*
G75*
G02*
X117487500Y-91560000I137500J0D01*
G01*
X118812500Y-91560000D01*
G75*
G02*
X118950000Y-91697500I0J-137500D01*
G01*
G37*
G36*
G01*
X118950000Y-90427500D02*
X118950000Y-90702500D01*
G75*
G02*
X118812500Y-90840000I-137500J0D01*
G01*
X117487500Y-90840000D01*
G75*
G02*
X117350000Y-90702500I0J137500D01*
G01*
X117350000Y-90427500D01*
G75*
G02*
X117487500Y-90290000I137500J0D01*
G01*
X118812500Y-90290000D01*
G75*
G02*
X118950000Y-90427500I0J-137500D01*
G01*
G37*
G36*
G01*
X125450000Y-90427500D02*
X125450000Y-90702500D01*
G75*
G02*
X125312500Y-90840000I-137500J0D01*
G01*
X123987500Y-90840000D01*
G75*
G02*
X123850000Y-90702500I0J137500D01*
G01*
X123850000Y-90427500D01*
G75*
G02*
X123987500Y-90290000I137500J0D01*
G01*
X125312500Y-90290000D01*
G75*
G02*
X125450000Y-90427500I0J-137500D01*
G01*
G37*
G36*
G01*
X125450000Y-91697500D02*
X125450000Y-91972500D01*
G75*
G02*
X125312500Y-92110000I-137500J0D01*
G01*
X123987500Y-92110000D01*
G75*
G02*
X123850000Y-91972500I0J137500D01*
G01*
X123850000Y-91697500D01*
G75*
G02*
X123987500Y-91560000I137500J0D01*
G01*
X125312500Y-91560000D01*
G75*
G02*
X125450000Y-91697500I0J-137500D01*
G01*
G37*
%TD*%
%TO.C,U2*%
G36*
G01*
X153650000Y-146702500D02*
X153650000Y-146427500D01*
G75*
G02*
X153787500Y-146290000I137500J0D01*
G01*
X155112500Y-146290000D01*
G75*
G02*
X155250000Y-146427500I0J-137500D01*
G01*
X155250000Y-146702500D01*
G75*
G02*
X155112500Y-146840000I-137500J0D01*
G01*
X153787500Y-146840000D01*
G75*
G02*
X153650000Y-146702500I0J137500D01*
G01*
G37*
G36*
G01*
X153650000Y-147972500D02*
X153650000Y-147697500D01*
G75*
G02*
X153787500Y-147560000I137500J0D01*
G01*
X155112500Y-147560000D01*
G75*
G02*
X155250000Y-147697500I0J-137500D01*
G01*
X155250000Y-147972500D01*
G75*
G02*
X155112500Y-148110000I-137500J0D01*
G01*
X153787500Y-148110000D01*
G75*
G02*
X153650000Y-147972500I0J137500D01*
G01*
G37*
G36*
G01*
X147150000Y-147972500D02*
X147150000Y-147697500D01*
G75*
G02*
X147287500Y-147560000I137500J0D01*
G01*
X148612500Y-147560000D01*
G75*
G02*
X148750000Y-147697500I0J-137500D01*
G01*
X148750000Y-147972500D01*
G75*
G02*
X148612500Y-148110000I-137500J0D01*
G01*
X147287500Y-148110000D01*
G75*
G02*
X147150000Y-147972500I0J137500D01*
G01*
G37*
G36*
G01*
X147150000Y-146702500D02*
X147150000Y-146427500D01*
G75*
G02*
X147287500Y-146290000I137500J0D01*
G01*
X148612500Y-146290000D01*
G75*
G02*
X148750000Y-146427500I0J-137500D01*
G01*
X148750000Y-146702500D01*
G75*
G02*
X148612500Y-146840000I-137500J0D01*
G01*
X147287500Y-146840000D01*
G75*
G02*
X147150000Y-146702500I0J137500D01*
G01*
G37*
%TD*%
%TO.C,U1*%
G36*
G01*
X153450000Y-132302500D02*
X153450000Y-132027500D01*
G75*
G02*
X153587500Y-131890000I137500J0D01*
G01*
X154912500Y-131890000D01*
G75*
G02*
X155050000Y-132027500I0J-137500D01*
G01*
X155050000Y-132302500D01*
G75*
G02*
X154912500Y-132440000I-137500J0D01*
G01*
X153587500Y-132440000D01*
G75*
G02*
X153450000Y-132302500I0J137500D01*
G01*
G37*
G36*
G01*
X153450000Y-133572500D02*
X153450000Y-133297500D01*
G75*
G02*
X153587500Y-133160000I137500J0D01*
G01*
X154912500Y-133160000D01*
G75*
G02*
X155050000Y-133297500I0J-137500D01*
G01*
X155050000Y-133572500D01*
G75*
G02*
X154912500Y-133710000I-137500J0D01*
G01*
X153587500Y-133710000D01*
G75*
G02*
X153450000Y-133572500I0J137500D01*
G01*
G37*
G36*
G01*
X146950000Y-133572500D02*
X146950000Y-133297500D01*
G75*
G02*
X147087500Y-133160000I137500J0D01*
G01*
X148412500Y-133160000D01*
G75*
G02*
X148550000Y-133297500I0J-137500D01*
G01*
X148550000Y-133572500D01*
G75*
G02*
X148412500Y-133710000I-137500J0D01*
G01*
X147087500Y-133710000D01*
G75*
G02*
X146950000Y-133572500I0J137500D01*
G01*
G37*
G36*
G01*
X146950000Y-132302500D02*
X146950000Y-132027500D01*
G75*
G02*
X147087500Y-131890000I137500J0D01*
G01*
X148412500Y-131890000D01*
G75*
G02*
X148550000Y-132027500I0J-137500D01*
G01*
X148550000Y-132302500D01*
G75*
G02*
X148412500Y-132440000I-137500J0D01*
G01*
X147087500Y-132440000D01*
G75*
G02*
X146950000Y-132302500I0J137500D01*
G01*
G37*
%TD*%
%TO.C,U5*%
G36*
G01*
X153300000Y-115667500D02*
X153300000Y-115392500D01*
G75*
G02*
X153437500Y-115255000I137500J0D01*
G01*
X154762500Y-115255000D01*
G75*
G02*
X154900000Y-115392500I0J-137500D01*
G01*
X154900000Y-115667500D01*
G75*
G02*
X154762500Y-115805000I-137500J0D01*
G01*
X153437500Y-115805000D01*
G75*
G02*
X153300000Y-115667500I0J137500D01*
G01*
G37*
G36*
G01*
X153300000Y-116937500D02*
X153300000Y-116662500D01*
G75*
G02*
X153437500Y-116525000I137500J0D01*
G01*
X154762500Y-116525000D01*
G75*
G02*
X154900000Y-116662500I0J-137500D01*
G01*
X154900000Y-116937500D01*
G75*
G02*
X154762500Y-117075000I-137500J0D01*
G01*
X153437500Y-117075000D01*
G75*
G02*
X153300000Y-116937500I0J137500D01*
G01*
G37*
G36*
G01*
X146800000Y-116937500D02*
X146800000Y-116662500D01*
G75*
G02*
X146937500Y-116525000I137500J0D01*
G01*
X148262500Y-116525000D01*
G75*
G02*
X148400000Y-116662500I0J-137500D01*
G01*
X148400000Y-116937500D01*
G75*
G02*
X148262500Y-117075000I-137500J0D01*
G01*
X146937500Y-117075000D01*
G75*
G02*
X146800000Y-116937500I0J137500D01*
G01*
G37*
G36*
G01*
X146800000Y-115667500D02*
X146800000Y-115392500D01*
G75*
G02*
X146937500Y-115255000I137500J0D01*
G01*
X148262500Y-115255000D01*
G75*
G02*
X148400000Y-115392500I0J-137500D01*
G01*
X148400000Y-115667500D01*
G75*
G02*
X148262500Y-115805000I-137500J0D01*
G01*
X146937500Y-115805000D01*
G75*
G02*
X146800000Y-115667500I0J137500D01*
G01*
G37*
%TD*%
%TO.C,R3*%
G36*
G01*
X148256250Y-143012500D02*
X147343750Y-143012500D01*
G75*
G02*
X147100000Y-142768750I0J243750D01*
G01*
X147100000Y-142281250D01*
G75*
G02*
X147343750Y-142037500I243750J0D01*
G01*
X148256250Y-142037500D01*
G75*
G02*
X148500000Y-142281250I0J-243750D01*
G01*
X148500000Y-142768750D01*
G75*
G02*
X148256250Y-143012500I-243750J0D01*
G01*
G37*
G36*
G01*
X148256250Y-144887500D02*
X147343750Y-144887500D01*
G75*
G02*
X147100000Y-144643750I0J243750D01*
G01*
X147100000Y-144156250D01*
G75*
G02*
X147343750Y-143912500I243750J0D01*
G01*
X148256250Y-143912500D01*
G75*
G02*
X148500000Y-144156250I0J-243750D01*
G01*
X148500000Y-144643750D01*
G75*
G02*
X148256250Y-144887500I-243750J0D01*
G01*
G37*
%TD*%
%TO.C,R2*%
G36*
G01*
X148256250Y-128412500D02*
X147343750Y-128412500D01*
G75*
G02*
X147100000Y-128168750I0J243750D01*
G01*
X147100000Y-127681250D01*
G75*
G02*
X147343750Y-127437500I243750J0D01*
G01*
X148256250Y-127437500D01*
G75*
G02*
X148500000Y-127681250I0J-243750D01*
G01*
X148500000Y-128168750D01*
G75*
G02*
X148256250Y-128412500I-243750J0D01*
G01*
G37*
G36*
G01*
X148256250Y-130287500D02*
X147343750Y-130287500D01*
G75*
G02*
X147100000Y-130043750I0J243750D01*
G01*
X147100000Y-129556250D01*
G75*
G02*
X147343750Y-129312500I243750J0D01*
G01*
X148256250Y-129312500D01*
G75*
G02*
X148500000Y-129556250I0J-243750D01*
G01*
X148500000Y-130043750D01*
G75*
G02*
X148256250Y-130287500I-243750J0D01*
G01*
G37*
%TD*%
%TO.C,R1*%
G36*
G01*
X148056250Y-112212500D02*
X147143750Y-112212500D01*
G75*
G02*
X146900000Y-111968750I0J243750D01*
G01*
X146900000Y-111481250D01*
G75*
G02*
X147143750Y-111237500I243750J0D01*
G01*
X148056250Y-111237500D01*
G75*
G02*
X148300000Y-111481250I0J-243750D01*
G01*
X148300000Y-111968750D01*
G75*
G02*
X148056250Y-112212500I-243750J0D01*
G01*
G37*
G36*
G01*
X148056250Y-114087500D02*
X147143750Y-114087500D01*
G75*
G02*
X146900000Y-113843750I0J243750D01*
G01*
X146900000Y-113356250D01*
G75*
G02*
X147143750Y-113112500I243750J0D01*
G01*
X148056250Y-113112500D01*
G75*
G02*
X148300000Y-113356250I0J-243750D01*
G01*
X148300000Y-113843750D01*
G75*
G02*
X148056250Y-114087500I-243750J0D01*
G01*
G37*
%TD*%
%TO.C,R18*%
G36*
G01*
X128225000Y-116025000D02*
X126975000Y-116025000D01*
G75*
G02*
X126725000Y-115775000I0J250000D01*
G01*
X126725000Y-115025000D01*
G75*
G02*
X126975000Y-114775000I250000J0D01*
G01*
X128225000Y-114775000D01*
G75*
G02*
X128475000Y-115025000I0J-250000D01*
G01*
X128475000Y-115775000D01*
G75*
G02*
X128225000Y-116025000I-250000J0D01*
G01*
G37*
G36*
G01*
X128225000Y-118825000D02*
X126975000Y-118825000D01*
G75*
G02*
X126725000Y-118575000I0J250000D01*
G01*
X126725000Y-117825000D01*
G75*
G02*
X126975000Y-117575000I250000J0D01*
G01*
X128225000Y-117575000D01*
G75*
G02*
X128475000Y-117825000I0J-250000D01*
G01*
X128475000Y-118575000D01*
G75*
G02*
X128225000Y-118825000I-250000J0D01*
G01*
G37*
%TD*%
%TO.C,R17*%
G36*
G01*
X168775000Y-147375000D02*
X170025000Y-147375000D01*
G75*
G02*
X170275000Y-147625000I0J-250000D01*
G01*
X170275000Y-148375000D01*
G75*
G02*
X170025000Y-148625000I-250000J0D01*
G01*
X168775000Y-148625000D01*
G75*
G02*
X168525000Y-148375000I0J250000D01*
G01*
X168525000Y-147625000D01*
G75*
G02*
X168775000Y-147375000I250000J0D01*
G01*
G37*
G36*
G01*
X168775000Y-144575000D02*
X170025000Y-144575000D01*
G75*
G02*
X170275000Y-144825000I0J-250000D01*
G01*
X170275000Y-145575000D01*
G75*
G02*
X170025000Y-145825000I-250000J0D01*
G01*
X168775000Y-145825000D01*
G75*
G02*
X168525000Y-145575000I0J250000D01*
G01*
X168525000Y-144825000D01*
G75*
G02*
X168775000Y-144575000I250000J0D01*
G01*
G37*
%TD*%
%TO.C,R16*%
G36*
G01*
X166375000Y-147375000D02*
X167625000Y-147375000D01*
G75*
G02*
X167875000Y-147625000I0J-250000D01*
G01*
X167875000Y-148375000D01*
G75*
G02*
X167625000Y-148625000I-250000J0D01*
G01*
X166375000Y-148625000D01*
G75*
G02*
X166125000Y-148375000I0J250000D01*
G01*
X166125000Y-147625000D01*
G75*
G02*
X166375000Y-147375000I250000J0D01*
G01*
G37*
G36*
G01*
X166375000Y-144575000D02*
X167625000Y-144575000D01*
G75*
G02*
X167875000Y-144825000I0J-250000D01*
G01*
X167875000Y-145575000D01*
G75*
G02*
X167625000Y-145825000I-250000J0D01*
G01*
X166375000Y-145825000D01*
G75*
G02*
X166125000Y-145575000I0J250000D01*
G01*
X166125000Y-144825000D01*
G75*
G02*
X166375000Y-144575000I250000J0D01*
G01*
G37*
%TD*%
%TO.C,R15*%
G36*
G01*
X161775000Y-143425000D02*
X161775000Y-142175000D01*
G75*
G02*
X162025000Y-141925000I250000J0D01*
G01*
X162775000Y-141925000D01*
G75*
G02*
X163025000Y-142175000I0J-250000D01*
G01*
X163025000Y-143425000D01*
G75*
G02*
X162775000Y-143675000I-250000J0D01*
G01*
X162025000Y-143675000D01*
G75*
G02*
X161775000Y-143425000I0J250000D01*
G01*
G37*
G36*
G01*
X158975000Y-143425000D02*
X158975000Y-142175000D01*
G75*
G02*
X159225000Y-141925000I250000J0D01*
G01*
X159975000Y-141925000D01*
G75*
G02*
X160225000Y-142175000I0J-250000D01*
G01*
X160225000Y-143425000D01*
G75*
G02*
X159975000Y-143675000I-250000J0D01*
G01*
X159225000Y-143675000D01*
G75*
G02*
X158975000Y-143425000I0J250000D01*
G01*
G37*
%TD*%
%TO.C,R14*%
G36*
G01*
X152775000Y-144425000D02*
X152775000Y-143175000D01*
G75*
G02*
X153025000Y-142925000I250000J0D01*
G01*
X153775000Y-142925000D01*
G75*
G02*
X154025000Y-143175000I0J-250000D01*
G01*
X154025000Y-144425000D01*
G75*
G02*
X153775000Y-144675000I-250000J0D01*
G01*
X153025000Y-144675000D01*
G75*
G02*
X152775000Y-144425000I0J250000D01*
G01*
G37*
G36*
G01*
X149975000Y-144425000D02*
X149975000Y-143175000D01*
G75*
G02*
X150225000Y-142925000I250000J0D01*
G01*
X150975000Y-142925000D01*
G75*
G02*
X151225000Y-143175000I0J-250000D01*
G01*
X151225000Y-144425000D01*
G75*
G02*
X150975000Y-144675000I-250000J0D01*
G01*
X150225000Y-144675000D01*
G75*
G02*
X149975000Y-144425000I0J250000D01*
G01*
G37*
%TD*%
%TO.C,D10*%
G36*
G01*
X163975000Y-147375000D02*
X165225000Y-147375000D01*
G75*
G02*
X165475000Y-147625000I0J-250000D01*
G01*
X165475000Y-148375000D01*
G75*
G02*
X165225000Y-148625000I-250000J0D01*
G01*
X163975000Y-148625000D01*
G75*
G02*
X163725000Y-148375000I0J250000D01*
G01*
X163725000Y-147625000D01*
G75*
G02*
X163975000Y-147375000I250000J0D01*
G01*
G37*
G36*
G01*
X163975000Y-144575000D02*
X165225000Y-144575000D01*
G75*
G02*
X165475000Y-144825000I0J-250000D01*
G01*
X165475000Y-145575000D01*
G75*
G02*
X165225000Y-145825000I-250000J0D01*
G01*
X163975000Y-145825000D01*
G75*
G02*
X163725000Y-145575000I0J250000D01*
G01*
X163725000Y-144825000D01*
G75*
G02*
X163975000Y-144575000I250000J0D01*
G01*
G37*
%TD*%
%TO.C,D9*%
G36*
G01*
X156775000Y-147375000D02*
X158025000Y-147375000D01*
G75*
G02*
X158275000Y-147625000I0J-250000D01*
G01*
X158275000Y-148375000D01*
G75*
G02*
X158025000Y-148625000I-250000J0D01*
G01*
X156775000Y-148625000D01*
G75*
G02*
X156525000Y-148375000I0J250000D01*
G01*
X156525000Y-147625000D01*
G75*
G02*
X156775000Y-147375000I250000J0D01*
G01*
G37*
G36*
G01*
X156775000Y-144575000D02*
X158025000Y-144575000D01*
G75*
G02*
X158275000Y-144825000I0J-250000D01*
G01*
X158275000Y-145575000D01*
G75*
G02*
X158025000Y-145825000I-250000J0D01*
G01*
X156775000Y-145825000D01*
G75*
G02*
X156525000Y-145575000I0J250000D01*
G01*
X156525000Y-144825000D01*
G75*
G02*
X156775000Y-144575000I250000J0D01*
G01*
G37*
%TD*%
%TO.C,C6*%
G36*
G01*
X161575000Y-147375000D02*
X162825000Y-147375000D01*
G75*
G02*
X163075000Y-147625000I0J-250000D01*
G01*
X163075000Y-148375000D01*
G75*
G02*
X162825000Y-148625000I-250000J0D01*
G01*
X161575000Y-148625000D01*
G75*
G02*
X161325000Y-148375000I0J250000D01*
G01*
X161325000Y-147625000D01*
G75*
G02*
X161575000Y-147375000I250000J0D01*
G01*
G37*
G36*
G01*
X161575000Y-144575000D02*
X162825000Y-144575000D01*
G75*
G02*
X163075000Y-144825000I0J-250000D01*
G01*
X163075000Y-145575000D01*
G75*
G02*
X162825000Y-145825000I-250000J0D01*
G01*
X161575000Y-145825000D01*
G75*
G02*
X161325000Y-145575000I0J250000D01*
G01*
X161325000Y-144825000D01*
G75*
G02*
X161575000Y-144575000I250000J0D01*
G01*
G37*
%TD*%
%TO.C,C5*%
G36*
G01*
X159175000Y-147375000D02*
X160425000Y-147375000D01*
G75*
G02*
X160675000Y-147625000I0J-250000D01*
G01*
X160675000Y-148375000D01*
G75*
G02*
X160425000Y-148625000I-250000J0D01*
G01*
X159175000Y-148625000D01*
G75*
G02*
X158925000Y-148375000I0J250000D01*
G01*
X158925000Y-147625000D01*
G75*
G02*
X159175000Y-147375000I250000J0D01*
G01*
G37*
G36*
G01*
X159175000Y-144575000D02*
X160425000Y-144575000D01*
G75*
G02*
X160675000Y-144825000I0J-250000D01*
G01*
X160675000Y-145575000D01*
G75*
G02*
X160425000Y-145825000I-250000J0D01*
G01*
X159175000Y-145825000D01*
G75*
G02*
X158925000Y-145575000I0J250000D01*
G01*
X158925000Y-144825000D01*
G75*
G02*
X159175000Y-144575000I250000J0D01*
G01*
G37*
%TD*%
%TO.C,R13*%
G36*
G01*
X168575000Y-131775000D02*
X169825000Y-131775000D01*
G75*
G02*
X170075000Y-132025000I0J-250000D01*
G01*
X170075000Y-132775000D01*
G75*
G02*
X169825000Y-133025000I-250000J0D01*
G01*
X168575000Y-133025000D01*
G75*
G02*
X168325000Y-132775000I0J250000D01*
G01*
X168325000Y-132025000D01*
G75*
G02*
X168575000Y-131775000I250000J0D01*
G01*
G37*
G36*
G01*
X168575000Y-128975000D02*
X169825000Y-128975000D01*
G75*
G02*
X170075000Y-129225000I0J-250000D01*
G01*
X170075000Y-129975000D01*
G75*
G02*
X169825000Y-130225000I-250000J0D01*
G01*
X168575000Y-130225000D01*
G75*
G02*
X168325000Y-129975000I0J250000D01*
G01*
X168325000Y-129225000D01*
G75*
G02*
X168575000Y-128975000I250000J0D01*
G01*
G37*
%TD*%
%TO.C,R12*%
G36*
G01*
X166175000Y-131775000D02*
X167425000Y-131775000D01*
G75*
G02*
X167675000Y-132025000I0J-250000D01*
G01*
X167675000Y-132775000D01*
G75*
G02*
X167425000Y-133025000I-250000J0D01*
G01*
X166175000Y-133025000D01*
G75*
G02*
X165925000Y-132775000I0J250000D01*
G01*
X165925000Y-132025000D01*
G75*
G02*
X166175000Y-131775000I250000J0D01*
G01*
G37*
G36*
G01*
X166175000Y-128975000D02*
X167425000Y-128975000D01*
G75*
G02*
X167675000Y-129225000I0J-250000D01*
G01*
X167675000Y-129975000D01*
G75*
G02*
X167425000Y-130225000I-250000J0D01*
G01*
X166175000Y-130225000D01*
G75*
G02*
X165925000Y-129975000I0J250000D01*
G01*
X165925000Y-129225000D01*
G75*
G02*
X166175000Y-128975000I250000J0D01*
G01*
G37*
%TD*%
%TO.C,R11*%
G36*
G01*
X161775000Y-127825000D02*
X161775000Y-126575000D01*
G75*
G02*
X162025000Y-126325000I250000J0D01*
G01*
X162775000Y-126325000D01*
G75*
G02*
X163025000Y-126575000I0J-250000D01*
G01*
X163025000Y-127825000D01*
G75*
G02*
X162775000Y-128075000I-250000J0D01*
G01*
X162025000Y-128075000D01*
G75*
G02*
X161775000Y-127825000I0J250000D01*
G01*
G37*
G36*
G01*
X158975000Y-127825000D02*
X158975000Y-126575000D01*
G75*
G02*
X159225000Y-126325000I250000J0D01*
G01*
X159975000Y-126325000D01*
G75*
G02*
X160225000Y-126575000I0J-250000D01*
G01*
X160225000Y-127825000D01*
G75*
G02*
X159975000Y-128075000I-250000J0D01*
G01*
X159225000Y-128075000D01*
G75*
G02*
X158975000Y-127825000I0J250000D01*
G01*
G37*
%TD*%
%TO.C,R10*%
G36*
G01*
X152975000Y-128825000D02*
X152975000Y-127575000D01*
G75*
G02*
X153225000Y-127325000I250000J0D01*
G01*
X153975000Y-127325000D01*
G75*
G02*
X154225000Y-127575000I0J-250000D01*
G01*
X154225000Y-128825000D01*
G75*
G02*
X153975000Y-129075000I-250000J0D01*
G01*
X153225000Y-129075000D01*
G75*
G02*
X152975000Y-128825000I0J250000D01*
G01*
G37*
G36*
G01*
X150175000Y-128825000D02*
X150175000Y-127575000D01*
G75*
G02*
X150425000Y-127325000I250000J0D01*
G01*
X151175000Y-127325000D01*
G75*
G02*
X151425000Y-127575000I0J-250000D01*
G01*
X151425000Y-128825000D01*
G75*
G02*
X151175000Y-129075000I-250000J0D01*
G01*
X150425000Y-129075000D01*
G75*
G02*
X150175000Y-128825000I0J250000D01*
G01*
G37*
%TD*%
%TO.C,D8*%
G36*
G01*
X163775000Y-131775000D02*
X165025000Y-131775000D01*
G75*
G02*
X165275000Y-132025000I0J-250000D01*
G01*
X165275000Y-132775000D01*
G75*
G02*
X165025000Y-133025000I-250000J0D01*
G01*
X163775000Y-133025000D01*
G75*
G02*
X163525000Y-132775000I0J250000D01*
G01*
X163525000Y-132025000D01*
G75*
G02*
X163775000Y-131775000I250000J0D01*
G01*
G37*
G36*
G01*
X163775000Y-128975000D02*
X165025000Y-128975000D01*
G75*
G02*
X165275000Y-129225000I0J-250000D01*
G01*
X165275000Y-129975000D01*
G75*
G02*
X165025000Y-130225000I-250000J0D01*
G01*
X163775000Y-130225000D01*
G75*
G02*
X163525000Y-129975000I0J250000D01*
G01*
X163525000Y-129225000D01*
G75*
G02*
X163775000Y-128975000I250000J0D01*
G01*
G37*
%TD*%
%TO.C,D7*%
G36*
G01*
X156575000Y-131775000D02*
X157825000Y-131775000D01*
G75*
G02*
X158075000Y-132025000I0J-250000D01*
G01*
X158075000Y-132775000D01*
G75*
G02*
X157825000Y-133025000I-250000J0D01*
G01*
X156575000Y-133025000D01*
G75*
G02*
X156325000Y-132775000I0J250000D01*
G01*
X156325000Y-132025000D01*
G75*
G02*
X156575000Y-131775000I250000J0D01*
G01*
G37*
G36*
G01*
X156575000Y-128975000D02*
X157825000Y-128975000D01*
G75*
G02*
X158075000Y-129225000I0J-250000D01*
G01*
X158075000Y-129975000D01*
G75*
G02*
X157825000Y-130225000I-250000J0D01*
G01*
X156575000Y-130225000D01*
G75*
G02*
X156325000Y-129975000I0J250000D01*
G01*
X156325000Y-129225000D01*
G75*
G02*
X156575000Y-128975000I250000J0D01*
G01*
G37*
%TD*%
%TO.C,C4*%
G36*
G01*
X161375000Y-131775000D02*
X162625000Y-131775000D01*
G75*
G02*
X162875000Y-132025000I0J-250000D01*
G01*
X162875000Y-132775000D01*
G75*
G02*
X162625000Y-133025000I-250000J0D01*
G01*
X161375000Y-133025000D01*
G75*
G02*
X161125000Y-132775000I0J250000D01*
G01*
X161125000Y-132025000D01*
G75*
G02*
X161375000Y-131775000I250000J0D01*
G01*
G37*
G36*
G01*
X161375000Y-128975000D02*
X162625000Y-128975000D01*
G75*
G02*
X162875000Y-129225000I0J-250000D01*
G01*
X162875000Y-129975000D01*
G75*
G02*
X162625000Y-130225000I-250000J0D01*
G01*
X161375000Y-130225000D01*
G75*
G02*
X161125000Y-129975000I0J250000D01*
G01*
X161125000Y-129225000D01*
G75*
G02*
X161375000Y-128975000I250000J0D01*
G01*
G37*
%TD*%
%TO.C,C3*%
G36*
G01*
X158975000Y-131775000D02*
X160225000Y-131775000D01*
G75*
G02*
X160475000Y-132025000I0J-250000D01*
G01*
X160475000Y-132775000D01*
G75*
G02*
X160225000Y-133025000I-250000J0D01*
G01*
X158975000Y-133025000D01*
G75*
G02*
X158725000Y-132775000I0J250000D01*
G01*
X158725000Y-132025000D01*
G75*
G02*
X158975000Y-131775000I250000J0D01*
G01*
G37*
G36*
G01*
X158975000Y-128975000D02*
X160225000Y-128975000D01*
G75*
G02*
X160475000Y-129225000I0J-250000D01*
G01*
X160475000Y-129975000D01*
G75*
G02*
X160225000Y-130225000I-250000J0D01*
G01*
X158975000Y-130225000D01*
G75*
G02*
X158725000Y-129975000I0J250000D01*
G01*
X158725000Y-129225000D01*
G75*
G02*
X158975000Y-128975000I250000J0D01*
G01*
G37*
%TD*%
%TO.C,R9*%
G36*
G01*
X111775000Y-82425000D02*
X111775000Y-83675000D01*
G75*
G02*
X111525000Y-83925000I-250000J0D01*
G01*
X110775000Y-83925000D01*
G75*
G02*
X110525000Y-83675000I0J250000D01*
G01*
X110525000Y-82425000D01*
G75*
G02*
X110775000Y-82175000I250000J0D01*
G01*
X111525000Y-82175000D01*
G75*
G02*
X111775000Y-82425000I0J-250000D01*
G01*
G37*
G36*
G01*
X114575000Y-82425000D02*
X114575000Y-83675000D01*
G75*
G02*
X114325000Y-83925000I-250000J0D01*
G01*
X113575000Y-83925000D01*
G75*
G02*
X113325000Y-83675000I0J250000D01*
G01*
X113325000Y-82425000D01*
G75*
G02*
X113575000Y-82175000I250000J0D01*
G01*
X114325000Y-82175000D01*
G75*
G02*
X114575000Y-82425000I0J-250000D01*
G01*
G37*
%TD*%
%TO.C,R8*%
G36*
G01*
X116925000Y-82425000D02*
X116925000Y-83675000D01*
G75*
G02*
X116675000Y-83925000I-250000J0D01*
G01*
X115925000Y-83925000D01*
G75*
G02*
X115675000Y-83675000I0J250000D01*
G01*
X115675000Y-82425000D01*
G75*
G02*
X115925000Y-82175000I250000J0D01*
G01*
X116675000Y-82175000D01*
G75*
G02*
X116925000Y-82425000I0J-250000D01*
G01*
G37*
G36*
G01*
X119725000Y-82425000D02*
X119725000Y-83675000D01*
G75*
G02*
X119475000Y-83925000I-250000J0D01*
G01*
X118725000Y-83925000D01*
G75*
G02*
X118475000Y-83675000I0J250000D01*
G01*
X118475000Y-82425000D01*
G75*
G02*
X118725000Y-82175000I250000J0D01*
G01*
X119475000Y-82175000D01*
G75*
G02*
X119725000Y-82425000I0J-250000D01*
G01*
G37*
%TD*%
%TO.C,D6*%
G36*
G01*
X130575000Y-85275000D02*
X131825000Y-85275000D01*
G75*
G02*
X132075000Y-85525000I0J-250000D01*
G01*
X132075000Y-86275000D01*
G75*
G02*
X131825000Y-86525000I-250000J0D01*
G01*
X130575000Y-86525000D01*
G75*
G02*
X130325000Y-86275000I0J250000D01*
G01*
X130325000Y-85525000D01*
G75*
G02*
X130575000Y-85275000I250000J0D01*
G01*
G37*
G36*
G01*
X130575000Y-82475000D02*
X131825000Y-82475000D01*
G75*
G02*
X132075000Y-82725000I0J-250000D01*
G01*
X132075000Y-83475000D01*
G75*
G02*
X131825000Y-83725000I-250000J0D01*
G01*
X130575000Y-83725000D01*
G75*
G02*
X130325000Y-83475000I0J250000D01*
G01*
X130325000Y-82725000D01*
G75*
G02*
X130575000Y-82475000I250000J0D01*
G01*
G37*
%TD*%
%TO.C,D5*%
G36*
G01*
X129325000Y-83675000D02*
X128075000Y-83675000D01*
G75*
G02*
X127825000Y-83425000I0J250000D01*
G01*
X127825000Y-82675000D01*
G75*
G02*
X128075000Y-82425000I250000J0D01*
G01*
X129325000Y-82425000D01*
G75*
G02*
X129575000Y-82675000I0J-250000D01*
G01*
X129575000Y-83425000D01*
G75*
G02*
X129325000Y-83675000I-250000J0D01*
G01*
G37*
G36*
G01*
X129325000Y-86475000D02*
X128075000Y-86475000D01*
G75*
G02*
X127825000Y-86225000I0J250000D01*
G01*
X127825000Y-85475000D01*
G75*
G02*
X128075000Y-85225000I250000J0D01*
G01*
X129325000Y-85225000D01*
G75*
G02*
X129575000Y-85475000I0J-250000D01*
G01*
X129575000Y-86225000D01*
G75*
G02*
X129325000Y-86475000I-250000J0D01*
G01*
G37*
%TD*%
%TO.C,D4*%
G36*
G01*
X126775000Y-83675000D02*
X125525000Y-83675000D01*
G75*
G02*
X125275000Y-83425000I0J250000D01*
G01*
X125275000Y-82675000D01*
G75*
G02*
X125525000Y-82425000I250000J0D01*
G01*
X126775000Y-82425000D01*
G75*
G02*
X127025000Y-82675000I0J-250000D01*
G01*
X127025000Y-83425000D01*
G75*
G02*
X126775000Y-83675000I-250000J0D01*
G01*
G37*
G36*
G01*
X126775000Y-86475000D02*
X125525000Y-86475000D01*
G75*
G02*
X125275000Y-86225000I0J250000D01*
G01*
X125275000Y-85475000D01*
G75*
G02*
X125525000Y-85225000I250000J0D01*
G01*
X126775000Y-85225000D01*
G75*
G02*
X127025000Y-85475000I0J-250000D01*
G01*
X127025000Y-86225000D01*
G75*
G02*
X126775000Y-86475000I-250000J0D01*
G01*
G37*
%TD*%
%TO.C,D3*%
G36*
G01*
X123075000Y-85225000D02*
X124325000Y-85225000D01*
G75*
G02*
X124575000Y-85475000I0J-250000D01*
G01*
X124575000Y-86225000D01*
G75*
G02*
X124325000Y-86475000I-250000J0D01*
G01*
X123075000Y-86475000D01*
G75*
G02*
X122825000Y-86225000I0J250000D01*
G01*
X122825000Y-85475000D01*
G75*
G02*
X123075000Y-85225000I250000J0D01*
G01*
G37*
G36*
G01*
X123075000Y-82425000D02*
X124325000Y-82425000D01*
G75*
G02*
X124575000Y-82675000I0J-250000D01*
G01*
X124575000Y-83425000D01*
G75*
G02*
X124325000Y-83675000I-250000J0D01*
G01*
X123075000Y-83675000D01*
G75*
G02*
X122825000Y-83425000I0J250000D01*
G01*
X122825000Y-82675000D01*
G75*
G02*
X123075000Y-82425000I250000J0D01*
G01*
G37*
%TD*%
%TO.C,R7*%
G36*
G01*
X152975000Y-113625000D02*
X152975000Y-112375000D01*
G75*
G02*
X153225000Y-112125000I250000J0D01*
G01*
X153975000Y-112125000D01*
G75*
G02*
X154225000Y-112375000I0J-250000D01*
G01*
X154225000Y-113625000D01*
G75*
G02*
X153975000Y-113875000I-250000J0D01*
G01*
X153225000Y-113875000D01*
G75*
G02*
X152975000Y-113625000I0J250000D01*
G01*
G37*
G36*
G01*
X150175000Y-113625000D02*
X150175000Y-112375000D01*
G75*
G02*
X150425000Y-112125000I250000J0D01*
G01*
X151175000Y-112125000D01*
G75*
G02*
X151425000Y-112375000I0J-250000D01*
G01*
X151425000Y-113625000D01*
G75*
G02*
X151175000Y-113875000I-250000J0D01*
G01*
X150425000Y-113875000D01*
G75*
G02*
X150175000Y-113625000I0J250000D01*
G01*
G37*
%TD*%
%TO.C,D2*%
G36*
G01*
X156425000Y-116375000D02*
X157675000Y-116375000D01*
G75*
G02*
X157925000Y-116625000I0J-250000D01*
G01*
X157925000Y-117375000D01*
G75*
G02*
X157675000Y-117625000I-250000J0D01*
G01*
X156425000Y-117625000D01*
G75*
G02*
X156175000Y-117375000I0J250000D01*
G01*
X156175000Y-116625000D01*
G75*
G02*
X156425000Y-116375000I250000J0D01*
G01*
G37*
G36*
G01*
X156425000Y-113575000D02*
X157675000Y-113575000D01*
G75*
G02*
X157925000Y-113825000I0J-250000D01*
G01*
X157925000Y-114575000D01*
G75*
G02*
X157675000Y-114825000I-250000J0D01*
G01*
X156425000Y-114825000D01*
G75*
G02*
X156175000Y-114575000I0J250000D01*
G01*
X156175000Y-113825000D01*
G75*
G02*
X156425000Y-113575000I250000J0D01*
G01*
G37*
%TD*%
%TO.C,C2*%
G36*
G01*
X161225000Y-116375000D02*
X162475000Y-116375000D01*
G75*
G02*
X162725000Y-116625000I0J-250000D01*
G01*
X162725000Y-117375000D01*
G75*
G02*
X162475000Y-117625000I-250000J0D01*
G01*
X161225000Y-117625000D01*
G75*
G02*
X160975000Y-117375000I0J250000D01*
G01*
X160975000Y-116625000D01*
G75*
G02*
X161225000Y-116375000I250000J0D01*
G01*
G37*
G36*
G01*
X161225000Y-113575000D02*
X162475000Y-113575000D01*
G75*
G02*
X162725000Y-113825000I0J-250000D01*
G01*
X162725000Y-114575000D01*
G75*
G02*
X162475000Y-114825000I-250000J0D01*
G01*
X161225000Y-114825000D01*
G75*
G02*
X160975000Y-114575000I0J250000D01*
G01*
X160975000Y-113825000D01*
G75*
G02*
X161225000Y-113575000I250000J0D01*
G01*
G37*
%TD*%
%TO.C,C1*%
G36*
G01*
X158875000Y-116375000D02*
X160125000Y-116375000D01*
G75*
G02*
X160375000Y-116625000I0J-250000D01*
G01*
X160375000Y-117375000D01*
G75*
G02*
X160125000Y-117625000I-250000J0D01*
G01*
X158875000Y-117625000D01*
G75*
G02*
X158625000Y-117375000I0J250000D01*
G01*
X158625000Y-116625000D01*
G75*
G02*
X158875000Y-116375000I250000J0D01*
G01*
G37*
G36*
G01*
X158875000Y-113575000D02*
X160125000Y-113575000D01*
G75*
G02*
X160375000Y-113825000I0J-250000D01*
G01*
X160375000Y-114575000D01*
G75*
G02*
X160125000Y-114825000I-250000J0D01*
G01*
X158875000Y-114825000D01*
G75*
G02*
X158625000Y-114575000I0J250000D01*
G01*
X158625000Y-113825000D01*
G75*
G02*
X158875000Y-113575000I250000J0D01*
G01*
G37*
%TD*%
%TO.C,R6*%
G36*
G01*
X161425000Y-112625000D02*
X161425000Y-111375000D01*
G75*
G02*
X161675000Y-111125000I250000J0D01*
G01*
X162425000Y-111125000D01*
G75*
G02*
X162675000Y-111375000I0J-250000D01*
G01*
X162675000Y-112625000D01*
G75*
G02*
X162425000Y-112875000I-250000J0D01*
G01*
X161675000Y-112875000D01*
G75*
G02*
X161425000Y-112625000I0J250000D01*
G01*
G37*
G36*
G01*
X158625000Y-112625000D02*
X158625000Y-111375000D01*
G75*
G02*
X158875000Y-111125000I250000J0D01*
G01*
X159625000Y-111125000D01*
G75*
G02*
X159875000Y-111375000I0J-250000D01*
G01*
X159875000Y-112625000D01*
G75*
G02*
X159625000Y-112875000I-250000J0D01*
G01*
X158875000Y-112875000D01*
G75*
G02*
X158625000Y-112625000I0J250000D01*
G01*
G37*
%TD*%
%TO.C,R5*%
G36*
G01*
X168525000Y-116375000D02*
X169775000Y-116375000D01*
G75*
G02*
X170025000Y-116625000I0J-250000D01*
G01*
X170025000Y-117375000D01*
G75*
G02*
X169775000Y-117625000I-250000J0D01*
G01*
X168525000Y-117625000D01*
G75*
G02*
X168275000Y-117375000I0J250000D01*
G01*
X168275000Y-116625000D01*
G75*
G02*
X168525000Y-116375000I250000J0D01*
G01*
G37*
G36*
G01*
X168525000Y-113575000D02*
X169775000Y-113575000D01*
G75*
G02*
X170025000Y-113825000I0J-250000D01*
G01*
X170025000Y-114575000D01*
G75*
G02*
X169775000Y-114825000I-250000J0D01*
G01*
X168525000Y-114825000D01*
G75*
G02*
X168275000Y-114575000I0J250000D01*
G01*
X168275000Y-113825000D01*
G75*
G02*
X168525000Y-113575000I250000J0D01*
G01*
G37*
%TD*%
%TO.C,R4*%
G36*
G01*
X166075000Y-116375000D02*
X167325000Y-116375000D01*
G75*
G02*
X167575000Y-116625000I0J-250000D01*
G01*
X167575000Y-117375000D01*
G75*
G02*
X167325000Y-117625000I-250000J0D01*
G01*
X166075000Y-117625000D01*
G75*
G02*
X165825000Y-117375000I0J250000D01*
G01*
X165825000Y-116625000D01*
G75*
G02*
X166075000Y-116375000I250000J0D01*
G01*
G37*
G36*
G01*
X166075000Y-113575000D02*
X167325000Y-113575000D01*
G75*
G02*
X167575000Y-113825000I0J-250000D01*
G01*
X167575000Y-114575000D01*
G75*
G02*
X167325000Y-114825000I-250000J0D01*
G01*
X166075000Y-114825000D01*
G75*
G02*
X165825000Y-114575000I0J250000D01*
G01*
X165825000Y-113825000D01*
G75*
G02*
X166075000Y-113575000I250000J0D01*
G01*
G37*
%TD*%
%TO.C,D1*%
G36*
G01*
X163625000Y-116375000D02*
X164875000Y-116375000D01*
G75*
G02*
X165125000Y-116625000I0J-250000D01*
G01*
X165125000Y-117375000D01*
G75*
G02*
X164875000Y-117625000I-250000J0D01*
G01*
X163625000Y-117625000D01*
G75*
G02*
X163375000Y-117375000I0J250000D01*
G01*
X163375000Y-116625000D01*
G75*
G02*
X163625000Y-116375000I250000J0D01*
G01*
G37*
G36*
G01*
X163625000Y-113575000D02*
X164875000Y-113575000D01*
G75*
G02*
X165125000Y-113825000I0J-250000D01*
G01*
X165125000Y-114575000D01*
G75*
G02*
X164875000Y-114825000I-250000J0D01*
G01*
X163625000Y-114825000D01*
G75*
G02*
X163375000Y-114575000I0J250000D01*
G01*
X163375000Y-113825000D01*
G75*
G02*
X163625000Y-113575000I250000J0D01*
G01*
G37*
%TD*%
D10*
%TO.C,M1*%
X132440000Y-99970000D03*
X132440000Y-102510000D03*
X132440000Y-105050000D03*
X132440000Y-107590000D03*
X132440000Y-110130000D03*
X132440000Y-112670000D03*
X132440000Y-115210000D03*
X132440000Y-117750000D03*
X132440000Y-120290000D03*
X132440000Y-122830000D03*
X132440000Y-125370000D03*
X132440000Y-127910000D03*
X132440000Y-130450000D03*
X132440000Y-132990000D03*
X132440000Y-135530000D03*
X109580000Y-135530000D03*
X109580000Y-132990000D03*
X109580000Y-130450000D03*
X109580000Y-127910000D03*
X109580000Y-125370000D03*
X109580000Y-122830000D03*
X109580000Y-120290000D03*
X109580000Y-117750000D03*
X109580000Y-115210000D03*
X109580000Y-112670000D03*
X109580000Y-110130000D03*
X109580000Y-107590000D03*
X109580000Y-105050000D03*
X109580000Y-102510000D03*
X109580000Y-99970000D03*
%TD*%
M02*
