%TF.GenerationSoftware,KiCad,Pcbnew,(5.1.6)-1*%
%TF.CreationDate,2021-01-11T17:56:58+06:00*%
%TF.ProjectId,nodemcu01,6e6f6465-6d63-4753-9031-2e6b69636164,rev?*%
%TF.SameCoordinates,Original*%
%TF.FileFunction,Copper,L2,Bot*%
%TF.FilePolarity,Positive*%
%FSLAX46Y46*%
G04 Gerber Fmt 4.6, Leading zero omitted, Abs format (unit mm)*
G04 Created by KiCad (PCBNEW (5.1.6)-1) date 2021-01-11 17:56:58*
%MOMM*%
%LPD*%
G01*
G04 APERTURE LIST*
%TA.AperFunction,ComponentPad*%
%ADD10O,1.950000X1.700000*%
%TD*%
%TA.AperFunction,ComponentPad*%
%ADD11C,2.350000*%
%TD*%
%TA.AperFunction,ComponentPad*%
%ADD12C,2.300000*%
%TD*%
%TA.AperFunction,ComponentPad*%
%ADD13R,2.300000X2.000000*%
%TD*%
%TA.AperFunction,ComponentPad*%
%ADD14O,1.905000X2.000000*%
%TD*%
%TA.AperFunction,ComponentPad*%
%ADD15R,1.905000X2.000000*%
%TD*%
%TA.AperFunction,ComponentPad*%
%ADD16C,2.413000*%
%TD*%
%TA.AperFunction,ComponentPad*%
%ADD17R,2.413000X2.413000*%
%TD*%
%TA.AperFunction,ComponentPad*%
%ADD18O,3.352800X1.676400*%
%TD*%
%TA.AperFunction,ViaPad*%
%ADD19C,1.500000*%
%TD*%
%TA.AperFunction,Conductor*%
%ADD20C,0.400000*%
%TD*%
%TA.AperFunction,Conductor*%
%ADD21C,0.500000*%
%TD*%
%TA.AperFunction,Conductor*%
%ADD22C,0.800000*%
%TD*%
%TA.AperFunction,Conductor*%
%ADD23C,1.500000*%
%TD*%
%TA.AperFunction,Conductor*%
%ADD24C,0.250000*%
%TD*%
G04 APERTURE END LIST*
D10*
%TO.P,J5,10*%
%TO.N,GND*%
X139800000Y-145500000D03*
%TO.P,J5,9*%
%TO.N,SW9*%
X139800000Y-143000000D03*
%TO.P,J5,8*%
%TO.N,SW8*%
X139800000Y-140500000D03*
%TO.P,J5,7*%
%TO.N,SW7*%
X139800000Y-138000000D03*
%TO.P,J5,6*%
%TO.N,SW6*%
X139800000Y-135500000D03*
%TO.P,J5,5*%
%TO.N,SW5*%
X139800000Y-133000000D03*
%TO.P,J5,4*%
%TO.N,SW4*%
X139800000Y-130500000D03*
%TO.P,J5,3*%
%TO.N,SW3*%
X139800000Y-128000000D03*
%TO.P,J5,2*%
%TO.N,SW2*%
X139800000Y-125500000D03*
%TO.P,J5,1*%
%TO.N,SW1*%
%TA.AperFunction,ComponentPad*%
G36*
G01*
X139075000Y-122150000D02*
X140525000Y-122150000D01*
G75*
G02*
X140775000Y-122400000I0J-250000D01*
G01*
X140775000Y-123600000D01*
G75*
G02*
X140525000Y-123850000I-250000J0D01*
G01*
X139075000Y-123850000D01*
G75*
G02*
X138825000Y-123600000I0J250000D01*
G01*
X138825000Y-122400000D01*
G75*
G02*
X139075000Y-122150000I250000J0D01*
G01*
G37*
%TD.AperFunction*%
%TD*%
D11*
%TO.P,F1,1*%
%TO.N,Net-(F1-Pad1)*%
X164600000Y-79200000D03*
X159600000Y-79200000D03*
%TO.P,F1,2*%
%TO.N,ACL*%
X144600000Y-79200000D03*
X149600000Y-79200000D03*
%TD*%
D12*
%TO.P,PS1,4*%
%TO.N,VDD*%
X138200000Y-86400000D03*
%TO.P,PS1,2*%
%TO.N,ACN*%
X167600000Y-91600000D03*
D13*
%TO.P,PS1,1*%
%TO.N,ACL*%
X167600000Y-96600000D03*
D12*
%TO.P,PS1,3*%
%TO.N,GND*%
X138200000Y-101800000D03*
%TD*%
D14*
%TO.P,Q6,3*%
%TO.N,Net-(C5-Pad2)*%
X156680000Y-139600000D03*
%TO.P,Q6,2*%
%TO.N,ACN*%
X154140000Y-139600000D03*
D15*
%TO.P,Q6,1*%
%TO.N,Net-(Q5-Pad1)*%
X151600000Y-139600000D03*
%TD*%
D14*
%TO.P,Q5,3*%
%TO.N,Net-(C5-Pad2)*%
X167480000Y-139600000D03*
%TO.P,Q5,2*%
%TO.N,CH3*%
X164940000Y-139600000D03*
D15*
%TO.P,Q5,1*%
%TO.N,Net-(Q5-Pad1)*%
X162400000Y-139600000D03*
%TD*%
D16*
%TO.P,J4,3*%
%TO.N,ACL*%
X175000000Y-136402300D03*
%TO.P,J4,2*%
%TO.N,N/C*%
X175000000Y-139902420D03*
D17*
%TO.P,J4,1*%
%TO.N,CH3*%
X175000000Y-143400000D03*
%TD*%
D14*
%TO.P,Q4,3*%
%TO.N,Net-(C3-Pad2)*%
X156680000Y-124000000D03*
%TO.P,Q4,2*%
%TO.N,ACN*%
X154140000Y-124000000D03*
D15*
%TO.P,Q4,1*%
%TO.N,Net-(Q3-Pad1)*%
X151600000Y-124000000D03*
%TD*%
D14*
%TO.P,Q3,3*%
%TO.N,Net-(C3-Pad2)*%
X167480000Y-124000000D03*
%TO.P,Q3,2*%
%TO.N,CH2*%
X164940000Y-124000000D03*
D15*
%TO.P,Q3,1*%
%TO.N,Net-(Q3-Pad1)*%
X162400000Y-124000000D03*
%TD*%
D16*
%TO.P,J3,3*%
%TO.N,ACL*%
X175000000Y-120802300D03*
%TO.P,J3,2*%
%TO.N,N/C*%
X175000000Y-124302420D03*
D17*
%TO.P,J3,1*%
%TO.N,CH2*%
X175000000Y-127800000D03*
%TD*%
D16*
%TO.P,J2,3*%
%TO.N,Net-(F1-Pad1)*%
X175000000Y-89202300D03*
%TO.P,J2,2*%
%TO.N,ACN*%
X175000000Y-92702420D03*
D17*
%TO.P,J2,1*%
%TO.N,N/C*%
X175000000Y-96200000D03*
%TD*%
D14*
%TO.P,Q2,3*%
%TO.N,Net-(C1-Pad2)*%
X156680000Y-108800000D03*
%TO.P,Q2,2*%
%TO.N,ACN*%
X154140000Y-108800000D03*
D15*
%TO.P,Q2,1*%
%TO.N,Net-(Q1-Pad1)*%
X151600000Y-108800000D03*
%TD*%
D14*
%TO.P,Q1,3*%
%TO.N,Net-(C1-Pad2)*%
X167680000Y-108800000D03*
%TO.P,Q1,2*%
%TO.N,CH1*%
X165140000Y-108800000D03*
D15*
%TO.P,Q1,1*%
%TO.N,Net-(Q1-Pad1)*%
X162600000Y-108800000D03*
%TD*%
D16*
%TO.P,J1,3*%
%TO.N,ACL*%
X175000000Y-105202300D03*
%TO.P,J1,2*%
%TO.N,N/C*%
X175000000Y-108702420D03*
D17*
%TO.P,J1,1*%
%TO.N,CH1*%
X175000000Y-112200000D03*
%TD*%
D18*
%TO.P,M1,30*%
%TO.N,SW1*%
X132440000Y-99970000D03*
%TO.P,M1,29*%
%TO.N,Net-(M1-Pad29)*%
X132440000Y-102510000D03*
%TO.P,M1,28*%
%TO.N,Net-(M1-Pad28)*%
X132440000Y-105050000D03*
%TO.P,M1,27*%
%TO.N,Net-(M1-Pad27)*%
X132440000Y-107590000D03*
%TO.P,M1,26*%
%TO.N,SW2*%
X132440000Y-110130000D03*
%TO.P,M1,25*%
%TO.N,Net-(M1-Pad25)*%
X132440000Y-112670000D03*
%TO.P,M1,24*%
%TO.N,N/C*%
X132440000Y-115210000D03*
%TO.P,M1,23*%
%TO.N,SW3*%
X132440000Y-117750000D03*
%TO.P,M1,22*%
%TO.N,ZC*%
X132440000Y-120290000D03*
%TO.P,M1,21*%
%TO.N,SW4*%
X132440000Y-122830000D03*
%TO.P,M1,20*%
%TO.N,SW5*%
X132440000Y-125370000D03*
%TO.P,M1,19*%
%TO.N,SW6*%
X132440000Y-127910000D03*
%TO.P,M1,18*%
%TO.N,SW7*%
X132440000Y-130450000D03*
%TO.P,M1,17*%
%TO.N,N/C*%
X132440000Y-132990000D03*
%TO.P,M1,16*%
X132440000Y-135530000D03*
%TO.P,M1,15*%
%TO.N,VDD*%
X109580000Y-135530000D03*
%TO.P,M1,14*%
%TO.N,N/C*%
X109580000Y-132990000D03*
%TO.P,M1,13*%
X109580000Y-130450000D03*
%TO.P,M1,12*%
X109580000Y-127910000D03*
%TO.P,M1,11*%
X109580000Y-125370000D03*
%TO.P,M1,10*%
X109580000Y-122830000D03*
%TO.P,M1,9*%
X109580000Y-120290000D03*
%TO.P,M1,8*%
X109580000Y-117750000D03*
%TO.P,M1,7*%
X109580000Y-115210000D03*
%TO.P,M1,6*%
X109580000Y-112670000D03*
%TO.P,M1,5*%
%TO.N,SW9*%
X109580000Y-110130000D03*
%TO.P,M1,4*%
%TO.N,SW8*%
X109580000Y-107590000D03*
%TO.P,M1,3*%
%TO.N,N/C*%
X109580000Y-105050000D03*
%TO.P,M1,2*%
X109580000Y-102510000D03*
%TO.P,M1,1*%
X109580000Y-99970000D03*
%TD*%
D19*
%TO.N,Net-(M1-Pad28)*%
X147800000Y-119800000D03*
X143000000Y-119800000D03*
%TO.N,Net-(M1-Pad27)*%
X147400000Y-136000000D03*
X143000000Y-136000000D03*
%TO.N,GND*%
X144800000Y-114800000D03*
%TO.N,Net-(C1-Pad2)*%
X156680000Y-104520000D03*
X160000000Y-118800000D03*
%TO.N,Net-(D3-Pad2)*%
X131200000Y-87800000D03*
X123800000Y-87800000D03*
%TO.N,Net-(C3-Pad2)*%
X156680000Y-119520000D03*
X159400000Y-134400000D03*
%TO.N,Net-(C5-Pad2)*%
X156680000Y-135120000D03*
X159800000Y-150000000D03*
%TO.N,ACN*%
X135000000Y-83000000D03*
%TO.N,ACL*%
X172200000Y-148000000D03*
%TD*%
D20*
%TO.N,Net-(M1-Pad28)*%
X147800000Y-119800000D02*
X143000000Y-119800000D01*
%TO.N,Net-(M1-Pad27)*%
X147400000Y-136000000D02*
X143000000Y-136000000D01*
D21*
%TO.N,GND*%
X144800000Y-114800000D02*
X144800000Y-103600000D01*
X143000000Y-101800000D02*
X138200000Y-101800000D01*
X144800000Y-103600000D02*
X143000000Y-101800000D01*
D22*
%TO.N,Net-(C1-Pad2)*%
X156680000Y-108800000D02*
X156680000Y-104520000D01*
X160000000Y-112120000D02*
X156680000Y-108800000D01*
X160000000Y-118800000D02*
X160000000Y-112120000D01*
D21*
%TO.N,Net-(D3-Pad2)*%
X131200000Y-87800000D02*
X123800000Y-87800000D01*
D22*
%TO.N,Net-(C3-Pad2)*%
X156680000Y-124000000D02*
X156680000Y-120120000D01*
X156680000Y-120120000D02*
X156680000Y-119520000D01*
X159400000Y-126720000D02*
X156680000Y-124000000D01*
X159400000Y-134400000D02*
X159400000Y-126720000D01*
%TO.N,Net-(C5-Pad2)*%
X156680000Y-139600000D02*
X156680000Y-135720000D01*
X156680000Y-135720000D02*
X156680000Y-135120000D01*
X159800000Y-142720000D02*
X156680000Y-139600000D01*
X159800000Y-150000000D02*
X159800000Y-142720000D01*
%TO.N,ACN*%
X154140000Y-109000000D02*
X154340000Y-108800000D01*
X154140000Y-124000000D02*
X154140000Y-109000000D01*
X154140000Y-108800000D02*
X154140000Y-96060000D01*
X158600000Y-91600000D02*
X167600000Y-91600000D01*
X154140000Y-96060000D02*
X158600000Y-91600000D01*
X154140000Y-125260000D02*
X154140000Y-124000000D01*
X151600000Y-127800000D02*
X154140000Y-125260000D01*
X151600000Y-134600000D02*
X151600000Y-127800000D01*
X154140000Y-139600000D02*
X154140000Y-137140000D01*
X154140000Y-137140000D02*
X151600000Y-134600000D01*
X154140000Y-96060000D02*
X154140000Y-91340000D01*
X154140000Y-91340000D02*
X145800000Y-83000000D01*
X145800000Y-83000000D02*
X135000000Y-83000000D01*
D23*
%TO.N,CH1*%
X175000000Y-112200000D02*
X166200000Y-112200000D01*
X165140000Y-111140000D02*
X165140000Y-108800000D01*
X166200000Y-112200000D02*
X165140000Y-111140000D01*
%TO.N,CH2*%
X175000000Y-127800000D02*
X166400000Y-127800000D01*
X164940000Y-126340000D02*
X164940000Y-124000000D01*
X166400000Y-127800000D02*
X164940000Y-126340000D01*
%TO.N,CH3*%
X175000000Y-143400000D02*
X166000000Y-143400000D01*
X164940000Y-142340000D02*
X164940000Y-139600000D01*
X166000000Y-143400000D02*
X164940000Y-142340000D01*
%TO.N,VDD*%
X109580000Y-135530000D02*
X123470000Y-135530000D01*
X123470000Y-135530000D02*
X126400000Y-132600000D01*
X126400000Y-98200000D02*
X138200000Y-86400000D01*
X126400000Y-132600000D02*
X126400000Y-98200000D01*
D24*
%TO.N,SW7*%
X132440000Y-130450000D02*
X135050000Y-130450000D01*
X135050000Y-130450000D02*
X137200000Y-132600000D01*
X137200000Y-135400000D02*
X139800000Y-138000000D01*
X137200000Y-132600000D02*
X137200000Y-135400000D01*
%TO.N,SW6*%
X132440000Y-127910000D02*
X134710000Y-127910000D01*
X135549990Y-128749990D02*
X135549990Y-129549990D01*
X134710000Y-127910000D02*
X135549990Y-128749990D01*
X135549990Y-129549990D02*
X138000000Y-132000000D01*
X138000000Y-133700000D02*
X139800000Y-135500000D01*
X138000000Y-132000000D02*
X138000000Y-133700000D01*
%TO.N,SW5*%
X136000000Y-126000000D02*
X136000000Y-129200000D01*
X132440000Y-125370000D02*
X135370000Y-125370000D01*
X136000000Y-129200000D02*
X139800000Y-133000000D01*
X135370000Y-125370000D02*
X136000000Y-126000000D01*
%TO.N,SW4*%
X132440000Y-122830000D02*
X135030000Y-122830000D01*
X135030000Y-122830000D02*
X136600000Y-124400000D01*
X136600000Y-124400000D02*
X136600000Y-127600000D01*
X139500000Y-130500000D02*
X139800000Y-130500000D01*
X136600000Y-127600000D02*
X139500000Y-130500000D01*
%TO.N,SW3*%
X137400000Y-125600000D02*
X139800000Y-128000000D01*
X137400000Y-118800000D02*
X137400000Y-125600000D01*
X132440000Y-117750000D02*
X136350000Y-117750000D01*
X136350000Y-117750000D02*
X137400000Y-118800000D01*
%TO.N,SW2*%
X132440000Y-110130000D02*
X137130000Y-110130000D01*
X137130000Y-110130000D02*
X138000000Y-111000000D01*
X138000000Y-123700000D02*
X139800000Y-125500000D01*
X138000000Y-111000000D02*
X138000000Y-123700000D01*
%TO.N,SW1*%
X132440000Y-99970000D02*
X134970000Y-99970000D01*
X134970000Y-99970000D02*
X136400000Y-101400000D01*
X136400000Y-101400000D02*
X136400000Y-103600000D01*
X136400000Y-103600000D02*
X139800000Y-107000000D01*
X139800000Y-107000000D02*
X139800000Y-123000000D01*
%TD*%
M02*
